<mxfile host="app.diagrams.net" agent="Mozilla/5.0 (X11; Linux x86_64) AppleWebKit/537.36 (KHTML, like Gecko) Chrome/126.0.0.0 Safari/537.36" version="24.8.3">
  <diagram name="Page-1" id="ezF7la-GceujyotX7KR2">
    <mxGraphModel dx="2049" dy="1109" grid="0" gridSize="10" guides="1" tooltips="1" connect="1" arrows="1" fold="1" page="1" pageScale="1" pageWidth="2000" pageHeight="2000" math="0" shadow="0">
      <root>
        <mxCell id="0" />
        <mxCell id="1" parent="0" />
        <mxCell id="ZQ0hPMz2IrMJyLbx8Uxn-3" value="" style="shape=image;verticalLabelPosition=bottom;labelBackgroundColor=default;verticalAlign=top;aspect=fixed;imageAspect=0;image=data:image/png,iVBORw0KGgoAAAANSUhEUgAAA/kAAAFDCAIAAADu6VlhAAAAA3NCSVQICAjb4U/gAAAAEHRFWHRTb2Z0d2FyZQBTaHV0dGVyY4LQCQAAIABJREFUeNrs3Xl0HOWd7/93Ve8ttaTWbluyvMk2m81us4XFQGDwDSckLJm5JiGBwOSSyTIMmUmYAAlhbhgSMjBhIDN3JjG+QzhhcyC5+RGMWRxMMDsOeLdly7L2rdXdUm/1+6NUSluWZFnW7s/r+HBMu6tb3equ+tRT3+f7GJZlISIiIiIi046pt0BERERERFlfRERERESU9UVERERERFlfRERERESU9UVERERERFlfRERERERZX0REREREphm33gIRERERmWZ27tz523/+59hHH431wHbhZZd96dvfVtYXERERERknjY2NJ23cuPyDD8Y67N7n9aKsLyIiIiIynlzgHvuwa0zuN0H1+iIiIiIi05OyvoiIiIiIsr6IiIiIiCjri4iIiIiIsr6IiIiIiCjri4iIiIhML5lMJpFIpFIpZX0RERERkWmloaHhP//zP9966y1lfRERERGRaeXVV1+9++67N2zYMOqPrLW0REREREQmRiaT2bVr15NPPtnU1DQWj6+sLyIiIiIy3hobG1966aWXX355/fr1e/bsSafTyvoiIiIiIsNSZ/KRC9cYP0vUGOGGNTU1P/vZz/bt2wcEg8FEIqGsLyIiIiIyLM3F7Jo/5lm/OzjCDaurq++55554PA7827/921NPPaWsLyIiIiIyLCeFWW7hMsb2WTb7RrhhQUHB2Wefbf/9N7/5zRj9eMr6IiIiIjINGQYmY571Jzn13BQRERERUdYXERERERFlfRERERERUdYXERERERFlfRERERERUdYXEREREVHWFxERERERZX0RERERERk9hmEYxpgsBKCsLyIiIiIykU499dS//Mu/POGEE0b9kbVuroiIiIjIRLruuuuuvfZa0xz9UXhlfRERERGRieRyucbokVXDIyIiIiIyPSnri4iIiIgo64uIiIiIiLK+iIiIiIgo64uIiIiIiLK+iIiIiIgo64uIiIiIKOuLiIiIiIiyvoiIiIiIjJJ4PF5bW9vZ2WlZ1hFt2NXVtX///o6Ojkwmo6wvIiIiIjKJNDY2fve73z3hhBOOP/74+fPnn3/++WvXro3FYkNvlUgk3n777b/+679evHjx8ccfv2DBgk984hNr1qyJRqPK+iIiIiIiE6+hoeH222//4Q9/CJx33nmnnHLK5s2bv/a1rz3zzDPd3d2DbZVOp1999dVbbrllzZo1VVVVl1xyyWmnnbZ3795bbrnl//yf/3Pohm690SIiIiIi4ymTyTz55JNr165dtGjR97///WXLliWTyTVr1tx7772PPPLI6aefvmjRogE3jEQi991338cff/z5z3/+lltumTNnTmdn54YNG+64445HHnnktNNOO+ecc7Lvr3F9EREREZFxdeDAgRdffLG9vf3rX//6FVdcUV5eXllZecMNN3zyk5/ctGnTxo0b0+n0gBu++eabr7zyymmnnXbLLbeceOKJoVBo1qxZV1111Ze//OWdO3f++te/7unpyb6/xvVFREREZBp6M0ZNBy5jbJ+lMXckW+3cufOjjz7Ky8u7+uqr3e7eQF5SUnLFFVesXbv2pZdeuuaaa4LB4KEbvvPOO4lE4pRTTlm4cKFh9L42j8fzuc997vbbb9+8eXN9fX1VVZWyvoiIiIhMZ/OP48QTcY9xFcu2xhGdITQ21tfXL1myxOfz9d3ocrkqKytLS0vffvvtVCo14Ibt7e2A3+/3eDzZt+fm5rpcrrq6usbGRmV9EREREZnmioLMCeJ2je2zeFuPeBPLsjo7OyORSGVlZd/YvC0UCoXD4dra2sFqeOwc39TU1NHREQ6H+27/6KOP0ul0e3t7JBLJvr/q9UVERERExk86nY7FYpZl5efn98v6Ho/H5/MN0Wv/3HPP9fv969aty67pb2xsvP/++4FkMtnvgoDG9UVERERExo9lWXZM76vU72MYhmkONRY/f/78//W//tdPf/rTm2666Ytf/OIpp5zS0NDw1FNPvf/++16v1+Vy9dtcWV9EREREZPyYpmmn/K6urn7j96lUKplMBgKBwbYNBAJf/epXU6nU7373uwceeCCRSAQCgfnz5995553/9E//FAgEsicAKOuLiIiIiIx31g+FQh6Pp7Ozs98/JRKJeDxeUFAw2Oi+YRizZ8++8847P/WpT33wwQeRSKSwsPDMM8+cN2/e7bffXllZmZeXp6wvIiIiIjIxDMPIz8/Pz8/funVrJpPJ/qeOjo7m5ubjjz/e5XINsXk4HL7ooos+8YlPZDIZu27ngw8+iMfj5eXlRUVFB51X6O0WERERERlPc+fOra6u3rJly/79+/tu7O7ufvfdd9va2s455xyv12vfmHHY/9vS0nLDDTfce++9dXV1brfbrtHPZDLPPPOM1+s9/vjjS0tLlfVFRERERCbMggULTj/9dMMw/vM//zMajdo3btmy5dlnn7XH7Pva52/atOmZZ555/fXX7QY7hmFs2LDhgQceeOmllxKJBJBIJP74xz+uXr167ty5l156ad9Jgk01PCIiIiIi4yoYDH72s59dt27dz3/+c7/ff8YZZ8Tj8f/4j//YvHnzX/3VXy1ZsqSvXv/hhx9+6qmnLrrooscff9ztdgeDwVWrVt13330//vGPm5qaqqqqampqnnzyyaampm9961vLly/v90TK+iIiIiIi42358uV33333t771rfvuu6+kpCSRSDQ3N3/qU5/6xje+kV2H4/f7g8Gg1+u1O/b4fL4bbrihoaFh9erVd911VygUshfPuummm2655Ra/39/vWYzBGvWLiIiIiExRGzduTP1/t5wV/GCs1839px0r/uHfXhzZtslkcufOnS+88MLOnTs9Hs8nPvGJc889t18TnoaGhkgkEggEysvL7Qm7lmV1dHS8+eabb7zxxoEDB2bMmLFixYolS5aEQqFDn0Lj+iIiIiIiE8Dj8SxevHjx4sVD3KesrKysrCz7FsMwCgoKLr300ksvvfSwT6G5uSIiIiIi05OyvoiIiIiIsr6IiIiIiCjri4iIiIiIsr6IiIiIiCjri4iIiIiIsr6IiIiIiLK+iIiIiIgo64uIiIiIyCixLCuZTGYymRFs2NPTk0wmLcsa7D5aN1dEREREZGK88847zz//fF1dXU5OzpIlS1auXFlUVHTYreLx+B/+8IcNGzbs37/f4/HMmTPnyiuvXLRokbK+iIiIiMjEy2Qyv/3tb7/+9a83NDSk02nTNP1+/3PPPXfXXXedcMIJhmEMuJVlWR0dHY888sijjz7a3NycTqcBj8ezevXqH/7wh5dffrlpHlS2oxoeEREREZFxZVnWyy+//LWvfa29vf3GG2/89a9//ctf/vL0009fu3btPffcc+DAgcE2TKVSjz322N13321Z1ne+851XXnnl+eefv/766+vq6v7mb/5m3bp1/e6vcX0RERERkXEViUSeeuqpffv23XTTTffcc09OTg6wYMGC66677oUXXnjvvffKy8v7jdDbYrHY008/7Xa7/+7v/u7GG2/0+XzAsmXLOjo6fvnLX7744osXXHCBx+NR1hcRERGR6Wx7M6k0rjGuYmmPj2Sr3bt3v/POO6lU6uabb7aDPlBVVfWZz3zmu9/97saNG1esWGHn+H5SqdS2bdvKysqWLl3ad4ecnJyzzjrrsccea2xsjMfjyvoiIiIiMs0ZszALMMc467v+NJKt6urq9u3bN3/+/Orq6r4b/X7/0qVLCwoK3nzzzWQyOWDWNwwjNze3vb09Ho9blmWX9dtF/IZh5OTk+P3+7Psr64uIiIjINLRgLmctxD3Gafe1vUe8iWVZjY2N9fX1n/rUp9xZP59hGIWFhSUlJR9++GEqlRpw25ycnC984Qs/+MEPfvrTn+bm5s6ePTuVSr333nuPPvrowoULL7vsMq/Xq6wvIiIiIjIxMplMLBZLp9MFBQX9/ikQCOTm5u7du3ewdvter9eeibtmzZr33nvvpJNO6urq2rx5s2mad9555yWXXNLv/urDIyIiIiIyrlk/Ho8DeXl5/Xprut1uj8fT09MzxPJYPT099h2i0ej+/fsbGhq6u7uBRCKRTCb73Vnj+iIiIiIi48rusWMn/mzpdDqVSpmmOVh//Wg0evfddz/11FMXXHDBbbfdVlFRkUql/vSnP333u9+98847e3p6vvKVr7hcLmV9EREREZEJ4HK5cnJyDMPo6urqN36fTCYTiUQ4HB4s6//hD3947LHHLrnkkgceeGDBggWGYViWtWjRotmzZ59zzjmPPfbYueeee8opp/z5pEJvt4iIiIjIuDFNs6CgwK7L75f1I5FIa2trRUVF9th8to0bN1qWtWTJkjlz5tjnA4ZhGIZxwgknVFdX7969u7a29qDn0tstIiIiIjKeysrKZs6c+fHHHycSib4bU6lUbW1tc3Pzcccd5x6kf5Ddn+fQIh/DMAKBwADnFXqvRURERETG09y5c6urq1taWn7/+9/33RiJRNavX59MJs8777x+rTP7LFmyBNiyZUtdXV327XV1dR9//HFxcXE4HFbWFxERERGZMBUVFZ/5zGdKSkq+//3vv/nmmy0tLY2NjWvXrn3qqafOPffciy66qK+G52/+5m/mzZt3/fXXx2Ix4IILLjj55JN///vf33///Vu2bGlqaqqvr3/zzTdXrVqVTCYvvvhi+2Sgj+bmioiIiIiMK8Mwrrzyyk2bNv3iF7+4/vrrzzjjjGg0+uKLL1ZWVt56663z5s3rK9Fpamras2dPdXW13XG/qKjoBz/4wbe//e2f/exnL7zwwgknnBCLxT744IP29vZPfepTX/rSl/Ly8pT1RUREREQmUjgc/s53vlNeXv7yyy+//fbbHo9n5cqVn/vc5y6++OLsAp6rrrpq4cKF8+bNs290uVwXXXTRgw8++Oyzz7711lsfffSRy+U68cQTzz///GuvvXbevHn9TyqGaNQvIiIiIjIVbdy4MVVzy1kLP3CP8cj2Pz2x4h9+8OKIN4/FYvX19dFo1DTNwsLC0tLSfh14kslkOp02TdPj8fQN9mcymc7Ozubm5ng8bhhGbm5uWVnZgHNzNa4vIiIiIjIxgsHgoYPx2Twej8fj6Xej3bWzoKDgsI+vubkiIiIiItOTsr6IiIiIiLK+iIiIiIgo64uIiIiIiLK+iIiIiIgo64uIiIiIiLK+iIiIiIiyvoiIiIiITDdaS0tEREREZGK0tbXt2bOno6PD6/WWlpbOmTPHPeRKv/X19Zs3bx7iDosWLaqoqOhbYVdZX0RERERkAmzZsuWnP/3pq6++Wl9fHwwGFy5cuGrVqpUrVw6xIO5rr7120003DfGY//zP/3zDDTf0nTAo64uIiIiIjLfGxsa777776aefnjVr1qWXXhqLxV544YUtW7bE4/FVq1b5/f4BtwqHw6eeeuqht2cymXfffTeVSvn9/r5BfWV9EREREZHxlslkVq9e/Zvf/Gbp0qX//u//PnfuXMuynnvuuVtuueXhhx8+88wzlyxZkh3Z+5x33nlPPvnkobe///77n/70pz/96U+vWLHCNE1lfRERERGZztoj7G/E5RrbZ+lJjGSr2tra9evXRyKRb33rW0uXLrVvvOKKK6666qo1a9Zs3LjxhBNOGLBw3+fz+Xy+fjc2NDTcd999CxYs+OY3vzlz5szsf1LWFxEREZFpaEsnLY2YY9x1sj01kq127ty5bdu2cDh88cUX992Yl5d38cUXP/HEE6+++ur1118/9CTdPvF4/Be/+MWmTZvuvffek08+ud+/KuuLiIiIyDRUcgJzTsU1xmn3o90j2aqxsfHAgQMnn3xyIBDou9Hlcs2cObO4uPjDDz9MpYZ7DvH222//3//7f08++eTrrrvOPOTMRllfRERERKYhfw55hbjHOO2O4Fwik8lEIpFoNFpZWdmvKD83NzccDu/bty+dTh/2cSzLamlpWbNmTV1d3Y9//OO8vLxD76O1tERERERExk86ne7q6gIKCgr6ZX2v1+vz+To6OjKZzHCy/oYNG371q19dc801p59++oD3UdYXERERERlXlmUBrkMmDhuGYZqmYRgDNuHpJxaL/fznPw8GgytXrgyFQsr6IiIiIiITzDRNu5dOPB63Q3+fdDqdTCaDweBwHufDDz988cUXly1btmTJEnOQOcjK+iIiIiIi45r1Q6GQ1+tta2vr90+xWKyrqys/P988XP8gy7LWrFnj8XguuOCC8vLyQZ9Lb7eIiIiIyLgxDKO4uLikpOS9997L7rdjWVZra2tTU9Nxxx132Iab+/fvf+6556qqqi666CLX4IsIKOuLiIiIiIyr2bNnz507t7a2dsuWLX03dnd3v/fee52dncuXL/d4PEM/wrp16yKRyOLFi6urq4e4m7K+iIiIiMi4mjt37rJly0zTfOSRR+yePMDWrVufeuqp8vLyCy+8sC/rP/fccz/+8Y+ffvrp7CsAyWTylVdeSSQSZ5999tBnBeqvLyIiIiIyrgKBwLXXXvvCCy/86le/crlcn/3sZyORyH333bd9+/Ybb7zxlFNO6avXf/rpp59++ukLL7zwk5/8ZF9hT21t7Y4dOwzDOPXUU4d+ImV9EREREZFxZRjGGWec8bOf/ezWW2/91a9+9Ytf/MIwjMLCwi9+8Yu33357YWFh3z2Li4urqqrKysqyZ+vW19eHQqElS5acfPLJh3mifo1+RERERESmuo0bN9akbll41gdjvW7uE/+04gf/8OKIN9++ffvGjRv37t1rmubSpUvPPffc/Pz87Ds0NjbGYrFAIFBaWtrXdD8ajba2tlqWNXv27KEfX+P6IiIiIiITo7q6urq62l4ld8AltEpLSw/dKicnJycnZziPr6wvIiIiIjKRDttNf+SPrDdXRERERGR6nkXoLRARERERUdYXERERERFlfRERERERUdYXERERERFlfRERERERUdYXEREREVHWFxERERGRaUZraYmIiIiITIB4PP76668/++yzu3fvDoVCZ5555mc+85lZs2a5XK6hN0ylUnV1dc8///y6detisdjMmTNXrlx58cUXh0IhZX0RERERkYkP+qtXr77jjjvi8fiMGTOSyeQzzzzz29/+9p577jnttNPc7kFTejKZfOONN+68887XX3991qxZXq/3jTfeeOKJJ/7+7//+1ltvLSgoUNYXEREREZlI69evv++++0zTvO22284555xEIvHYY489++yzDz744H333Tdr1qwBt7Isa9euXd///vc3bdp08803X3755YFA4MMPP/zRj3708MMPz5s377rrrjNNU1lfRERERGRidHR0PPvsszU1Nbfddtvf/u3f2rU3c+bM2bNnz29+85vPfe5zM2bMyI7sfVKp1AsvvPDqq69effXVf//3fz9jxgxg+fLlkUjkjjvuePHFF//iL/4ie2hfWV9EREREpqH6BqxtHK70/WjF4iPZatu2bW+99Zbb7f7617/eV2RfXV197bXX3nbbbevWrbv44ov9fv8ATxeL/fKXvywsLPyf//N/lpeX2zf6fL4vfOELPT098+fPz2Qy2fdX1hcRERGRaWhdHfUZjDHO+pWxEZ2H1Nfv379/0aJF4XC470av17t48eLCwsJNmzYlk8kBs357e/u77757zjnnzJs3D4jH46lUyufzlZeX33XXXYfe3w2k0+mPP/747bff1mdCRERERMZaUVHR8uXLi4uLx/RZgqeQfxbmGI9su7aNZKu2traWlpZzzjmnX6FOXl5eUVHRzp070+n0gBvu2LEjHo+XlZUlk8nHH3/83XffjcfjhYWFy5cvX7Fihc/nGyDrt7e3//yhH3W//vwsnz57U1wXtII1cT+AARVTf9mGFuiavh+SmeDRV0VkQiWhFbqP+nFMyIPQ4HvdPLBHDAshRNpNJETKzWZogSi5rYQzuOB0CJJy0xki4yIBLdAD0Pv3xEAvoe8+Y6cQQoP/axoaB/rZZApIFBT8v/vvT1955ZXH5utPp9NdXV3pdDp7UN/m8/n8fv+uXbv6leL0aWxsBJqbm7/3ve+98sorLS0tlmW5XK6ZM2f+1V/91Te/+c1+j+kGkslkqrH2s77m5fn68E1xPdAGqQn9GRbCVD9prIXm6fshqQB900UmVgxqoOPoHqQIKiEXBqtPMOA4mOX8ZQbdfvZW0uPnZ5CCLrxN5Ft44GoIEQuwbzYJL1HYAu0AdMHHzt/7vYR90DbGb1QQZgz+AnugWVl/iop0df2ovb39mH39mUwmmUwCoVDIMIzsf/J4PD6fL5lMWtbAY7f2+7Z+/frCwsKbb775sssuMwxj/fr1Dz300E9/+tP8/Pxbb701u/jH3Tc04DXxu/Thm+L84JvorG8Nvl+eEqzRGGybzLqn+C9IZHo4+guw8w933u6GQvCAG3LBR9qPKwefhySYYOGycIMLQuAj7cPrx/CSBI9zAdA+rBy60/COyxXCNBiD77JSCvpTV/IYnzJqGIYd8bu6+hcSJJPJRCLh9Xr7nQNknycAfr//jjvuuPHGG+2inTPOOKO0tPTLX/7y008/femlly5ZsqTv/qY+btOKZxKUZ6Sm+HuYmu5ZP6bvicgkyDlHuav0Q/Bw9wlDAAAfeLAgY5J2kYQEWJDBBQYY4AXImAOcgbgGiWTmuEQ1z5A5pUWfJJmqTNMMBAKmacZisX7j96lUKpFI5OfnD5b18/PzgSVLllx44YV91fmmaV511VXl5eV79+49cOBAvy+rTCO+3j32hH5+p/h7GIH0tP6QRPU9EZkEYwpHuZ8JD+MCXZFzH1/vMFDKDSZdkIYMZrI3rfvAAEi7ev9iZV12cA3yRK7xyvrG4P/aoE+STOGsX1BQkJubu2fPnn5Zv6urq729fdasWa5BeoVWVVUBM2fO7FeX7/P5qqqqotFoPB5X1p++7Au1E/tbnbpR0oIO2Dn1L00c9heU1ldFZEJ3NUeZ9Q0oHzIE2/cJOPdx9+b1lBugozfruxK9g0OFzhmIm4zReyrStxvMDPKjWpAZ4zfKBd4hX2a3PkwyhVVUVMyePfvDDz+MRv+cnFKp1M6dO+vr608++WSPZ+BSjfnz5weDwZaWln71P6lUqq2tLRgM9uvUqaw/vRiQP9FlPB1T863LQBtsHWgK2jSTURmPyERn/e6jG1MIZeX4wdhl+oYTmk2wB+6d8/0MZrL3aFHw56xvmQCJrDr4JCQHevz02A+LBCHncC9TZMqaP3/+SSedFIvF1q5d29dyp6Wl5be//a3H47nkkku83t5SjZqamg8++KCvM09eXt7ll1/+/vvv//GPf7Qn+AKZTObll1/esmXLggULZs+enf1EWktr2gmBZ+z7oA0hApkpdRaZgW5ognroPAY+IWmIDNnGTkTG+jt4NLtoD8wA/+Hu5s7aD7vAxDLImACx3sF60xnXD/eegSQ9WAYWJLJyfGKQ+a9jnfUNCEHOkPdxDXIeIjIVFBcXX3HFFevWrXvooYfKy8tPOeWUZDL53//93+vXrz/77LNPP/30vr77jzzyyO9///tly5bdf//9gUDA7/dfffXVr7322gMPPGAYxhlnnGGa5qZNm+6///5QKHTZZZfNnTtXWX9a80LuhLaHty/+eqfCe2VBHBqgBSLTvXQn+9ymS98TkSmb9UNQMoxifW/WEd7sHR23s343ZCCDK5U9rp92kXaD0Tv80Vc/nBwk62fGuBrQPYw5CRryl6nMNM2VK1d++OGH//Iv/3LrrbfOmzcvkUhs3ry5srLyG9/4xpw5c/rm5u7Zs+edd94pKiqyV9dyuVwrVqxYtWrVI488cvvtt9uj+DU1Ne3t7Z///OdXrVoVCASU9ac1A+ZC81EnVyPrj+lMw8pkFWhmIJV1POiby1UCJiScy8eTZ19sOQWmSYhCB3RADHrGvup0sp3htECbc91eB0uRcf4CxkZ6CdGAApg/jEF9u57TvpsL/L3f9IQXCzohBUncPb2LoZQApFy9JT4piGf9tMkJGtf3QcnhdlCaeiRTXH5+/h133LFw4cLHH3+8trbWsqwrrrjiK1/5yimnnNJXwAN8/vOfP+ussyorK+0bDcMoKir6zne+s2zZsjVr1uzevTuVSp144omrVq268sorQ6HQoSfOMu3kwGLYceTzltzgBS8EnT8BZ1KXHfezM3HKmeFlggVt0Aw9UAw9sBdyoOxwM6vGRxoSEIdOaIPOY74lcxdsgflQrKwvMr4ycGCk4/ozYOHwZmTlwkznCO+FEBhkDOIBEtDUu5BWbho3+Hvn5iY9JD29O8xYVtbvGWQpgLEe1y853Cu1jrFhGpmmcnNzv/jFL15//fXd3d1ATk7Ooa02L7vssssuu+yg03nDCIfDV1999Wc/+9nu7u50Ou33+91u92DhTqYdA0ohBXuGF/dNyHEWWs+F4OAtjc2DPzv+rH1uMRRCC+Q62boOIlAKXqeZc96fe7uNB/so1Qkd0AWRCZ3GMAnj/nbngKq4LzJuotA4og29MGN4B20DiiDX+d9A798TXtJu2iECFkZH70JcJeDFgoSXpLs363dnBfqeCYrapfqsyDHE7Xbn5uaOJPEZRr+KHWX9Y4YLysEP9dA4yB7ZnvlU4ET8QFbThhGcXXigDArpXZvF5wxftYHLqfbJ7V2cETe4IQh+5/6jKwWd0Aqd0OWcaUg/MdjhrKwpIuPjwEhLX8LDbkrjhjJnaMZwGjZAJAQGbU7W7+zN+uXgI2PS7ccyeyfmJrOyfmLwrD92+1X/4Wbl4qynm9JHSuTwuwSZpjxQDAVQ7gyxZ8BwcnYAyiH3z32XRyFwO2svkgYLTMhk1X0CPdB28DQAL/jAD34IOJcU3M5MsmH+SJbz3wxEoBnaIN7bVU6GEoWd4IK8UfoMiMgQ7JZfR8r+hlYMu+dBsfONtg/yxVgGaZOOfDLQ3HuN0xcjCAZUYPlIuYk7XTyz5xLzcU07AAAgAElEQVSkB2/RO6b1+nnDaOZmaZcloqwv9nB7CRQ7O2U7YY91Q8xOaB4kZ/e7sQcih3wkvRBwJpaZzvmJ6cwM7qsQtf/JvsQchzjEIK4h/CPUDh9CFZTSO09PRMZCGvYeYSWhASUw07lkOpxDegEsdnbybqiCQtImjaX0+GmDjyEB+6hwyj1ngYu4n1iw90Fash4wNfjyiPbRZIxK9sPDuE9Gg/oiyvrSL/SPm6M5nbBbdsac442RFeutQ64aG2N8HfkYEYftEIGK3jl8IjKugyCDCcL8YZfuBKESypy9vR8qoIKMQUc+7WFSJu/DLogRbOpt2zm/ty6+I793r506eFx/iDW/zDFrb+8a3gIgasIjoqwvE8Yc3hDUcFhD7tOV8kdLGuogClVQrAW1RUZbBtoPrmkcjrxhtzJzQQVUOvteD1RCBZabuJ+WYlJu9sAG6Maop6wHPxTBqRAg5SLihOvWg/e3XUM+4xgliMDwXrVLeyoRZX2ZKK7Ry/oybixod4bxyv68+I6IjAJ7ttIRDeqbkDfso3QOzMza8Rb09tzMmDSV0O2n0+D/QQe0UHSAGRk8sAwqsQxaC8m4en/IvQefn9QP/ozGmEXtnOG9ahN8x3wDZZHhfVdERptXld9TVjd8DNsgppnNIqPnSGey+mCWszTh0OwFtpZk7XVLYRGWl6SbxhI68mk1eBb2Qhc5e5kdJwfmwVm9lfqthWBgOV0c+jQPuebX2JXLD/OCrQFBfbBEDk/j+jIGPFAALZo4NTVloBa6oBKKjqITq4hk7xX90DG8OxdBBRQO4xDtgyKodFKvCfmwACtAPEBzMR15dBi8DFsgQmA3c9sJQwFcDF5SLlqKSHnIQCc0ZhXwpIcc1OfgZdRHVxRSwxsw8uqDJaKsLxPCXsmlVll/KrNri8uyYoSIHM3BNjC8e5owZ3irXvhgIRQ51e1umAGzsIJ0+zlQTiyHqMmL8C5E8O5gQSNlEIJPwGzSJq1hOvPImESdCfp9Qb/u4IY8A2b9MZodG4ceejuCTnjWd2kSsIy5SCTyzjvv1NbW5uTkHH/88fPnz3e5DlMJ3d7e/oc//KGhoaH/nsbtXrp06dKlS5X1ZewFoWTwZm0yJfRALbRDNRQcyYoHInJogvcPLzjmDPusYA6UZ62ZVQRzwUvGRXMx0Vw6DX4L70EUzy7mNlMCIVgBZ2B5aSmkqZS0Cwv2QzvgLFRyAHYOWQpvQWrMQnAGosNruzkOEWYWJOGAPsEyJizL2rt372233bZx48aenh6Xy1VcXLxq1aovf/nLBQUFhjHoQXfv3r333HPP1q1b+90nEAjcdtttyvoyLgyogDbo0qDIVGZf2X8fKmEW+BX3RUa6S8yHkBOpB+OF8mG0SPZAOVRmBf0CmA8+MgbNRbSG6TR4Dt6HTnJ2sqCZYoswXAankXHRGqa+HEwysA/2ZT14K+w43DoACdg/llN6mqEEfJNgh1MAXogM2ZJIZKS2b9/+pS996a233jr11FPPOOOMWCy2bt26733ve5FI5Pbbb8/Lyxtsw46Ojh07duTn55944olu95/DvN/vr6qqGv+TYjlWBeAkqIMm6FJ/zKksBTVOBX+h4r7IiIRgDmwdqPNmDvjBC2EoG/LI7IICKHOaZQEmhGERVg4pF+0FNJXSYfASfASd5OxgQTMlUAiXwmlYJp0hGkvBxIIWqDk4xO8cxoJfHdA2lu9VM2yFmYfrOhob+99aDXjH5Ynk2NPd3f3444+/++67F1xwwUMPPTRv3jzgueeeu/nmm//7v//78ssvP/vsswcc2rcsq62tra2tbdWqVf/4j/+Yk5Nz0E7ikPofZX0ZS36YA8XQBPvVHG0qy0ATxGA2lGvPIXLkDCiGJGyFNJhOwUwI5kEIPMNYiHAelEHAuZsfyqEcK0jCS1MxHQXETF6Gt6GV4HaqWyiGQrgYTibjIpJLY2nvfNx22JOV7FOw93ATiO3FtvaN/fBNI3RCPpRC8UD7nJ4h2wSNlg59cKe2dJxUB8YY9wG3RjQ7sba2dsOGDdFo9Gtf+9qCBQvsGy+44IIrr7zy3//93998880zzzzT4xngMl8qldq3b186nZ47d25ubu6A91HWl3E8trkgD3KgEPYd+bKRMqlEYSd0wWwIaIBfpiwL2iDmtMfxgulE7bHeJZaBHzLgghQ0QHjYC9iVwuys47YXqqEYXKRdNJTRkY9l8KbBm9BGYDsLWimCUrgMjiPtpbGU9jBJD5ZBLezLusgQhxqoO9weYDe0DWPgf1R0Qze0QQOUQi54wA0JaITGgzuEigyYp9/M27K1DHNsD1fLm0bSaLy2trampqa4uPicc87puzEUCl1wwQWrV69+4403br755gFzfDqdrqmpcbvdM2fOzC7gUdaXCU38bghDPrTBPuiEpKp6pqYE7IMWmAul2oXIFEz53bAdGg7eR5lOks4b4x/APHjWabHzAxx2qxAsyFotywOLoRTLIG1SX05bAQmD9+B30E5gO9XNlEE1rMSaRcLDgRl05gP0GOyHnVnvSStsH3IM274IsA8aJ2Kf0+g8r300yWgamAxX/PyZHWf5cI1t1k/975wRbFVXV7d3796LLrrI5/vzqYJpmjNmzCgvL3/77beTyeSAGyaTyR07doTD4b179951110bNmwAFi1atHLlynPPPffQKn8dqEcqA3GIOqPUhvN2esELbi07OlDid0Ex5EMrtEAnxLTLnppisAWiMEsD/DKl9MCOQwKrBWk4AFFYCv4x3hMeqVwognLIcdph5UEFlGAZdPtpDdNaSJfBW/AaxHDto6KZYqiAT0MpSQ8N5XTmgUECag6ejGt/nYeYe5qCJtg2CeowLUjqQywj+N5NuqNUJpPp6urq6ekpLCzsV5Sfk5OTl5e3c+fOTGbgQoh0On3gwIGOjo4777wzPz+/tLQ0Go3+8Y9/XLNmzTe/+c2vfOUrpaWlyvpHLe0UoEeyBqftLOsDL/jBDyFnhXMloWweKIUiiEE7NEL7tBjjtz8AJricL5a9UmZmLBedmdhvwV6ngj9fa3DLFBEZcofTCXtgwaQ5NhowAyog5PxIASjvLWhJu+jMp7WQWJCoySvwJnRh1DKrjpkWhXA+FJFy0VJIZx6WSQJqoS5rj5SE3YMHfbsTVwM0asKVyKgeQtPpWCwGhMPhflnf4/H4fL5oNGpZ1mDb1tTUuFyuK6644pprrqmsrOzq6nrrrbd+8pOfPPjgg/n5+V/5yleyrxUo64/IXtg70I4vCd3ODtqu/syBIijOmkolONdh8yAXiqEVGqB9ygZiDxRDkdM/u292XcZZRj4DSeh01ohJQnJaLDRmT9iNQglUjvFoqMiosA43slAPOVAxOcZoSmF+1qUzLxwH+eAiY9BYSlshKTddBr+GP0EU1z4qaqhKkQunwWLSHhpLaC0kYxKHLdCRtfPphpqDy5n66Yad0KaSS5Ex2BtZVt9/+91uj+gPlvUDgcA3v/nNgoKCFStWVFVVmaYJLFu2zO12f+Mb33juuecuv/zyxYsXK+sfhS7Yd7gRDvuKcBq6oQV2Qg6UQBgCzjwwAUwIwCyY4XSE6Jg6VT1uyIdZTgPm7DOZ7E9Cn/KsqJGCOMShG2LQDT3OZyY9pc55LIhCFOqg1Jk/53Jq2IysN8FyqmzTkIAUpKAbEmA5Nbg2+xEM51KJJ+uhjIPf4SH+1xjo18FA/2Qd/MvKOD9q36laCmKQcl5Xxvnc+sBzyIuVqS4JNRCc6PayHqiA2U6PeQOCsAgKsQySToBPmeyBF2A3xPDvpuoAszLkwQpYRirI/ll05GNB3ODDrMY1KaiHPYOveJiCKGw73IIAIjKy+GOaXq8X6Orq6pfpU6lUKpXKy8uzQ/xgWR8wDKPvmkAgEPj85z9/7733btmyZc+ePcr6R6fnyEc40tAJneCCfJgBhZNjlZDJwH4TXFAEufS2hpjkFZkeyHMqaH3DeHUDvl4fFGSlf/uikD0JJO78SUyd4TS7NqAR8iAIfqeezYCUcymjB6IQgx4nUh/2rTOzkrTp/HFl/auRdQdX1n/NrNDf9xfTefPJuvzSl+ztc7CE88e+ApMepATLAC/kQhBCzl9UsDclxhcOO9Rifw0LJ+gndEEOzIBK57Nq992fBWHSJtEcWoroCtFl8iG8DgcgQu4u5jZRYpEPn4BzSHlpLKEzD8ugC7YfHPT3wJ7BB1bSUHdwO04RGd0vustVUFDg8/kOHDjQL+vHYrGOjo6ioqLBsn52xM/m9/vnzJmzbdu2ePygVTyU9Y9cPpQdPLHpiEJ/K3RCIZRBkcLBwXxQCUmom6yj+3ZDodJRPVuzw6gPfJDvXBSyc38EItDp1IZNicTfnPVeeZysnxpG7UQ/lvOVGa1PgjH4BQEra1B/+D9eD/RAC7ggAPlQAPkq2JvcguAdaDWrw56lj9s4wiwoh5DzKcp31rDz0uOltYiOfBJeGg1ehQ+hA1cr4X1UtlIERXAenEHGTUce7WEsgxQcyFr6KgP1sHfwb5bdCXSfgr7I2CopKSkrK9u6dWt21rcsq7m5ubm5+ayzzjp0VSzbjh076urqqqqqDl0iN51Oe71e+4pB9hCHHHnam+OMyI5MChphK2zRanwDHepmH9yTblKdiiyExVAO/jFLA/ZkBnsmQxUsgiVQDblT7bTQrlOKQWIYo/jjILsyJ+3MnLb/pI9u/nQauqAOtsGHsBXa1WBqsvIP46tkZLW2HE9eqIA5kOccnIt7dziWj3iAupk0F9Pl4wODX8EmaMa3i7lbWdzae53xf8CZWH46QzSVkHKTNNiVNRk3DY1QM/i1U7sqb5eOTSJjrrKycs6cObW1tR999FHfjbFY7J133olGo2eddVa/yN7njTfeuOGGGx599NHOzoPWk2tra9u6dWtFRUVZWVm/3CojzXwfH91CHgmoh1aohBlZRZnHOAMCcBy8Py5rIg7/DKQQ5kBoHH9HduCwq33sFntd0ARNENeSZJOP5ZQqRaAOQs61O39W0ZFMOBMKoWHIyfHGRDRNLodFTtmbfaHP7sDjJ+mhrYCWYhIeGuBl+ADimG0U7GR+J/mQA6fCeViFJD00OZNxeww2OyP69sICu+DA4CeiGactT7c+KCJjrrq6+pJLLnnrrbfuueeehx9+uLCw0LKsDz74YPXq1fPmzbv88sv7FtJ68sknN2/ePG/evGuvvdbn8y1btqy1tXX16tUnnXTSX/zFXwQCgXQ63dra+g//8A/JZPLcc8+trq5W1h+NEBaCKth+1Fc5E7ALWmAWFKqTifP2+mEhfDQ5xpZyoQrKJmioj6zVG+wSkZnQAM3QqeYYk1UGOqAD/FAOJVkjtTLhwuAdMut7wTO+px9hWJC1//dDNZT1TsNtKKWtkKTBPngO9kIcfwNlNVQle3dPZ2EdT8ZLNIemEqK5ZAwiUJM1szYGO6B+yINRM9RlVfuIyFhyu91XX331q6+++rvf/e5rX/vaihUruru7H3vssa6urptvvvn444/vK8p/6qmnnnjiiUsuueSqq67y+XyVlZVf/epXH3roodtuu+3111+fN29eLBZ77bXXXnvttQsvvPCmm27Kz89X1h+lvXMxdMOeo26eaEG7MxVsJoQnLlNOKvnO2dTE9qYMwkIIT5qgZkAOzIVC9cKbCuxdRAvMg2LF/cnBCzOyVo3tx+W0kxq3H6YMKiHoHFmKYCaUkDGJBnsL9DsNPoA/Qh1GG/l7md1KUZocOAOWQRkZN81FtIVJ+LAMOmFH1koCPbB78N6aFiSgbpBe0iIyZqqrq+++++577733pZdeev755+1Fc//2b//2C1/4Qvbyt0uXLm1vbz/11FPtCn6fz/fXf/3Xfr9/7dq1v/jFL3p6egzDKCsru+aaa2699dYTTjih/0mF3uiRs3uiATtHI28loQE6oRQqtBYpGFmt9ydQ1US33hvszcmDBUddSCbjIwI7nBinYp7J8PWZBQ2DLCBVBlUHd9Ed05RfCnnOLHZPb92OFSTtoi1MWyHdfvYbrIdt0IWxj4paKuIELQrhk3A8VpBYkJYiOvPIuEgaNBy81KO9JHDD4MepDOyERi1JKzLeTNNcvnz5v/7rv+7cubOhocHtdldVVS1evDgUCmXf7Utf+tJ1113n9/vtFbIMwygvL//qV7965ZVX7t69OxKJuFyuioqK+fPn96vUV9Yfpbg/GxiN0X1bHPZCI8yBEqd285g9HvucIvXoBP0MYSiZrL8CE/JgEbyvI/RUEIWP4UQoUNyfBLwwFz6GdFYC9sBMmDcu8ytyYLFzwdAu0C+CBZCDZRL3UzeTWJCEwUcGv4YOjCiB3cxtpDxDCE6Gc7GKSPpoK6CliJSHtEEEdkFb1kzcFtgDnQPV6FtO1696qNMVQpEJCjuGMXv27NmzZ2cyGcPR7z4lJSUlJSX9tgqFQscff/xxxx1nWdZgGyrrjxIXVIIBe0Ypcln0rm7Y5KzT5DlWw4EBBVAGew43FdULAQg6ndGTI1oG4dATuVnjW7Y7svdnHuycFqvwTnvd8BGcNL4zvGWw704hzINY1up1JVA6LiWUfqcMz3TO20uhGvxkDKJBDswgHqQd3oTXoR1XI6X7qIz0NuA8G5aQDhDJpbWQrlxSJhFohgaIOy2nYtAMuwbZOWSgCyLQAs0K+iITHPeBwTpsDr3hYPleWX+0uaEMWqB19B7TgmaIQAnMOIYn9pnOkrpDFKYHnf7TAaczfQ/sOerlHoNZLa4ns3Kn8YtMfnE4ACG9EZOAF2Y7Y9uWs7cZ6++7BwqgHEqd5/JAGczG8pE26cinpYjuAPtgA3wEEdx7qKpjZoIcWACfxKog4ac1TGshaQ/dsB/qszoZpJyF7SKDt9xph23OqY6ITPeUKqPBNzb1nT2wH9qhHGYcq116ArAImqH2kBVwDMiHMMxwBuBdzi+i9aizfhy6IWdyD8HaNb6l0Ko2eVPk3DVX78Jk+vqM27fb5UT8EPiy2ufb/Rg8dAdoLKErl6SbzQa/783q/j3MOcCMDHlwJpyJVUK3n4ZyIrlYJj1QA/udyG5BK9RC85DX+npgl6b6iCjrTy2WsziO3d86CqmsQRpP1h8zqz5yFHf0hrO4kjUGL60LdkETzD4ml9q1O88EoRj2QaNzwd0Lc6DMaYbdz9HX3iSgcyq0RTIgDEWquJ0KXFCsAp5j74zCDTNggXPItY8Xc6Acy03GRVuYpmJ6vHQYbIBN0IG7maIaqrrIsyiDi7CWYPmIBakvJxYkbRCD3dDkrFVnr3e7a/BVgS3nKLn7qIdCRERZf1wjfrezxlAnJAYfzHCDG/zOnwAEwAtu8Bz1ZCzDGaoZo+uhdrvuj6AMKiD3GOvLaZ+V5cIimAEJcDm/xMGuuY/KZZZ2qJgKb7UbyqFlcg/t279ELQGmtpvHWtAvhVkQzjre2m1zy7BMery0hWktosfNFtgIO6ALnz2cnyYE8+CTWLPo8dLuTMON0dtsp9vpmNkBjdA0eNPMNHRCHbQ7Nf0ioqw/2aUgCs3QAl3DCNkpSGWFIbv4wedE/yAEwQc+cI/oeDwOw+1pqIMIzIKycekKNwlzUsGQ534ZZ+BqVLpEd0J0isyNzof8yZf1Xc6yRD7IAQ8koAeSkIIYpJQ5ZPpy/bm7Tu8+xN6DVUFhb7+d+nKiucRN3oN10ILRQf4+Khsog2I4A04nE6YzRGsh0VxSJi1Q6zTbyUA77IfmIVO+PeWpWXU7Isr6U4IFPc5E2C6Ij3Qo3XJ6tkSyQok9xm9H/1zIAd8whnXtzjkt4zXJKQI7IQFVx+SEC/tiTso5cMahI+uQFoUeSI1S1k/CNqiA0sndkMf+AOdP9FoE2adkORCGfPCDK6uCLu38yUA3RKETOgavOhCZojxQDUVOeSeQA7OgGIKkXLSFaQ8TC9Bi8Dq8A+246imrpaKLEFTAZTAXfHTkU19G0gtG75zavu9LDHZB6+DnzBa0OdNwdV4toqw/VLrKOAHLroO3nLbEyaxhVMupnDbBDSHnMG84JfJHmfDsHmH2Ct7dox2s01l7TyPrhdjjkfmQAwFniNdwSvPtn6oF9mUtXDIOkrAHLJg7HYt5+t5Y+2PWBd1OuY5dr9UKPU6mTB38SRj1EpFO2AqNMBvyx6Xx9ohN+KRPEzwQhgoIZl0fMw7e5bid33IOFEIGUs6Ewq5joCuI8tbRHwgY6KM1eXghDJUQzjpeFEA1hLBMEl4aSunIp8dkm8F62AcxvNupbqI0TQAWYv0PKCLpoaOAxhJSbpIHB/0MJKBmyKCfhBqoc3aYIqKsP/CO1S6VaXKqgfuy/mFDlQl+Z3S8wKmQGUHotwfgY1APB8YlClhZL9Ae+K93xml8EHC67lhO9JyQq6IZ2AMGVE6vYh4LYs7six6ngebExqM0NEMblGel2MmZ9Y2Je69CUA4lEBzed9xw/ms6MxeLoBEaIDJ9lwvIQCcU69Bz5FLQAx3Q5kTnPAhMvsEOe1pRYVYhaACKYXbvcH5HHi1FxAO0GLwBf4AYrjbCu5gXoRDK4Ays00jnEgnRUkQsSNqkE/ZAi3N4si9u74e2wXekdtDfq0kyIpN+95ZKtbW1xWIxr9ebn58fDAaPODpZVktLSzQaraioOLRPv/swqSvqFALGDo4+wzyqxZwNPRCCfGcHPfwC6AS0QtPkuMpvN/npmkyxeC8YUDFd4r5dDWWv1j7Zhj/TsB86nGXtJ2EvTi94J2IAzwtFUAl5R/Ge9C2TbCf+euiaCkPgbsiB5LAnO9qT7JX1R6AN9kK7k1wPQB6UQCHkTpoZzy6YdXDQz4F5UAIuki5aimguJulmP7wMf4II/gPMqGNWN7lwCiyDSpIBmotoLyDlocegHuqh09kRdUItNAx+LE47x81GBX2Rya6rq+uZZ5556aWXmpubc3Nzq6urr7zyypNPPvmIltZqaGh48MEHt27d+vOf/zwUCh1J1o/BdmgdjZ1F0ul3Xg85Tu7PzWozfOiuqgfanZSv64+DngzCfsiHounyiuJDXpKe+C8lxKGZ3gG4nMnUViUz7qcfBuQ5Ad07Gs9uQAAqIQQ7nHAzaQVhPuRCF2wf3sRou+SvREvnjuiUkqyDkT0n1b7ouhjyJ8H7aUIVzMzaJ+TBHCjGcpHw0lRMRwEpF3+CV2EfdBLYxsI2wmlCcC6cjRUiFqSphEgeGZMo7D64WX497IHYkMfldtjqtOgRkUmsu7v7Jz/5ycMPP9za2lpcXJxOp9euXfvaa6/ddddd5513nmkOK2HEYrEnnnji0Ucf7e7uTqUGuCw+SNa36yg+go5R3VlkIO6EOfvCfd/8V49TFRN3qmJ6DinFlsF+WdNph+6HnMnd+zkNHc5StSEogbAz/a6vLmVCPgY143tW7IYKqADfaC9V4YJCmA1bITnJfvsGeJ2OvX2XMuzd1zCbIHXCNqg+ussgx6A8ONGpPu9r35SGCDRP9Jvpg2KYAfnOQdWEEliA5cdyEQ1yYAbdfroMXjPYCF2YrYS3s6Cr9/LEBVhLyQTpyKOphB4/aaM31sednXzCWew2MYzPmCa7i0z++GZZv/71rx999FHTNP/1X/91xYoV6XT6/vvv/6//+q8f//jHVVVVVVVVhnGYXVsmk3n99dcfeOCB1tbWwYp/3ANHmTbYOZaDahlnQl43NOvXfdSHmWlTr284ta2dk/7ScwZ6oAeanXXv85w1v+zlGszRXq9taFE4MLyzPsOZdO52Ghalj/B00X69c4bsf3r0n4Ryegc1J8PHsq9DVx5UOqc32d/B0mHPzrf7omyHE4/VlbBH/FvwwQIohyZohy4n9TbDnIm7wuaH47OWSDMhHyqgBMtFt4+WItrCJFzsgXWwE6L465i5n4oEITgJLsQqI+mhsZS2MBkXSaiDXc5oVwbaYMfwRt/spXNFxJaySFikxzhSZEYy5trW1rZ27dra2tof/vCHN954o33jd7/73a1bt7744otvv/327NmzD5v1a2trv/3tb7e3tw9R5X9I1k/BAdgHUX1Apgg/+KbRyzEhDIEp9QlMQhM0gQsCEMzq3+p1or8r6y+j3swnCfXDG9TPgzD4nHmN9oyabue8JT5k9LfDVj4UQsnYn2Ha885bJqiSxwSv8+UKOOtv5Aw+12iWM6t4uPt4OABVWlrryH8veRBy6kJboAOiEIfQBP1Idg1b36ciHxZBLpZBt5/6MiIhEibvwobeNnLhvVS2UJyhCE6DT5DOJZpDW5iOApJGbyP8euebGHem4XYM7+dJTKZJZSITbquHWADXGI+6dYykZcf27ds3b97s9/v/8i//su/G4uLiK6+88rXXXlu/fv0VV1zh9w81JhSNRn/yk5/s2bPn6quv3rhx4+7du4eR9ROwCxpGqTe5jA/fpG/9fqRCUDA1u0HbHUK7snKJyxnjt4vW+jrNB7IWbz7KVdhSUAv7h1fwVuasBGw4J4php7dp0lnoyg79MehxKmrs85ZcCDlnMuOTUL0wD7aOY0GCfRaUC0Gnx67H+cUd9ketgI+P5LlqoQDC2oWN6DzQC2VQCFFon6BjlgnFUHHwTNy5vR2xun0cKCeaS8xkA2yEDowmincxr6t3msv5WMeRyqWlkPYCEj7iBjXQ5NSDdUM9NEHkSIrZOlX7KpIlfCYVZbjGuGOXb+MINjpw4MD+/fsXLlxYUlLSd6PH46muri4oKNi0aVMymRwi66fT6SeffPLxxx9fuXLlNddc8+677w52z6ysH4O90KRp+1OKZzpW/bogzxnWmtLsWrXkQEnFdGK015mqnudcBOhX9H/oL9fKevwk7Iea4b1XPig45KpC32oS9hkITsPZTNYTGc5Pa4z7h60IFsKusexsa7+0IJQ7k4xdI+oOfKT374Z9kDvtztXHOfHb+8Dx3/EWwkzIdy5wuaAE5mDlkjHpzMJVcuEAACAASURBVKOxjG4fDQbr4E8QxbWfmXup6iEHquFirNmkPdTNoDMfyyBpsN1pQWZ3zNwFdUe+G+zUQVwky8wyTliIe4xbZT/33pFuYVlWe3t7a2vr+eefnz0H1zCMgoKC4uLivXv3ptPpITZ/4403HnzwwaKiorvvvrupqWmI53JefBy2Tt+e1tOYHwqm4ww/77Setmg5x2+7Zbg9zdcuCvc7g8p+pxDIdLJ438kDWVMSj2jAr/Bwze+ze95PkjBnQCkEYSc0jeqlHtM50cqDQsg76lfdOqJNGmHmVP60Z5+UTkifAGPcW+z74UQozPq+FPZW8lgu4n6aSujMp9vkI3gR6jE6ya1hTiOlFrlwBlyMFSDhpb6cjoLeNaR3Oete2/uHPbBvRPsWrY8rMhWk0+nOzk7LsoqKivoV5QcCgZycnG3btmUymcGC/p49e370ox/t37//v/7rvyorK4eX9dMK+lNTnjMWO824j70WJZazgEPfALYrqwrI5SSAlJOoRvCF9UzZ6vBcWAxuaDy6PZXp1E15wQfhrMYpR28EM0zsiRZhCE6RX4TLGUr3HlzdZJ+V9TVd6FtkPeHMAJkePJAPM7OCPlAKC3p/g7EA9eVEc+k0eAv+AC24mimqYU4nYSiH07HOJB0kEqItTDS3d7bPAWh3vtf2emE1Q/4k9pvsct7/nqxzHpXgikyJY75l2cP2h1bpGIZhmqZlWZY18Il7d3f36tWrX3vttVtvvfX8888fTqSSKcuAkmmaiV367ULaKaMfLZmpPODnhQUQchYVso5kw1xn3W6fc83EPQYlSSN7qHZoPrjme3LuaoLOqVHASfnurEonwzlfxUn8fXG/G7qdWeDRqZxETZgJs7O6Jxm9jTUJkoFIiKYSYjk0G6yH9yGCu5ZZtVR0kwv/P3tvHmPZWZ77/r417Hmeau55sqExjhvMYA40vnCcRFHANwgJEoJIhIiiBAmUBFASokRRIIREQkqUiESJdJ2BE3GTe0SAY8zsgCcmY7vtds811649z3tN94+1vt2rurq6q4fqru5ej1qoKFfVXvtbw37e93ve5zkMb/RysspFGmkvJ+ssLMJQBrG7StqNevM2DGXERxs0aQnlBs+5xXzgqxEgwC3B4IRw07J6vQsn0mzbtiwrHA5vZMLzrW996/Of//yb3/zmX/3VX41GL9/xDbj+Lc71c7fpW1MD6/GtISu3tFYkBFPS3dJN2RuuHS1QJAfVIAZJiPiGiRXJp7diEa5avmJDGca3pXOu6yuVlRonfXMFkrpuZUbsfwgdaEAT2j6b/O2PGEzBlE9eGIVJmMCJYKlUslQLDHRmBY96xpr6SfYuM24ShTfDAzgJjBBzU3QS2ApDOAYVnzDvpY1H5hwYwCmogwmG/LHRjsroNgkEPAEC3BI0R1UTiYQQotPpXNC/HwwGvV4vHo9vxPX/9m//tt1u5/P5b3zjG67W/9y5c5VKxTTNf/u3f4tGo6997WsPHTo0GgMIuP6tDO327X8HF+ZW8Lb4LX7BCClaiEBR0kdbsklHWgbdlELRvIZ+qr3NFtkVOOVgCqLXfM0In+esG1AwIfvTbmxiW5pmGtuPp7pDHRnYD1F5XWmww0uRswXtOEvj9KK0BT+FR6GO2iT5Igc7pCELb8J5HXaYboylMXoxLEEHTsGqLxRsVur1L0r0e3DsYjMhFxSZAdEPEOBW+UATIp/P5/P5Y8eO+XX5juM0Go1KpbJv3z5tg5HiXq9nGMYjjzzyyCOPeB8jtj0YDBzH+ehHPyqE+Mu//MsDBw4EXP+2wG1s3xH09a87EpC+vVZV2U66l8410Kzt8y50aUaUklHQW3fuIhCBgoylc0XqrvFra9tIfaahKPc0hJz3mICdOApDnVaSlRK9ELPwFPwY2oSXGJ9jukcKDsD9cAAjSlUaa5qCBViQwhsbOlC5pEDfgdVN++sHCBDgFsHExMT09PTLL79cqVQmJyfdb5qmeerUqUql8vDDD2/E9d/3vve95S1v8X9nYWHhP/7jP8rl8kc/+tFoNHrkyBG/t0/A9W9lhG7ftxZcmNe9dpqARLAQWwbjFj9+10SyBMUrbCL4I6IBAabPMGqTvD/q26sxoOmFTt1kx4gc7POthgIlmIYkjkInTrlAJ85A9XKylqBO8jQ7q+RNMvAA/AxOnn6ElRLNNI7iGa3OywvGgTKcgdYGE8zuBsjKpgM0AgQIcOtgz549hw8ffvbZZ//93//9wx/+sPvNarX6pS99KRwOv/Wtbw2FPJ53/PjxWq2WyWT279+vKMov//IvX/CnfvjDHz7xxBP1ev0jH/lINpsNKNVthMjt+9ZcIcEgOMfXCVmYCLZKthLXosO5ua5TCiRgBxQ253Wr+VKE3YnnC+IIRj48A+hCc2Mie8EtP5L6RCEDLZi/eZEvibVE36X+eyGKI+hGWZikH8EQfBO+B00oUzjJvi4Jhwn4v3DuwolQT7NaoB/FEqzCOel/7/punYO5DR50rm5nDirQD4zyAgS4DZHL5X72Z3/2a1/72l//9V/v3Lnz7W9/e6/X+8xnPvOtb33rrW9962te85pRb/5zn/vcf/3Xfz3wwAN/93d/F4tdsXFbwPVvZaRv90qmFZzja4ObSubOswbWRluKa9HwJG+4jEeDEEQgB2MQ2+AARqnJYYhCClIQ9yW+bQbuUGkNVqEOg00slJAKnzzMwokbyHR1iEMJxmUzxT2YnTCFo2BqNNIsjdHXOAffgRegQ3SO6QWmTBJwF/xPnALDMNUslQK2ygDm4JzPM3cIJ2H+kqtRgXOBBD9AgNsWiqK8613vqtVqf/zHf/ze9743nU73+/1+v3/kyJHf+73f27Vr12g2dzAYtFqtXq+3kQunpmmpVCqXywVc//aCuN0lGXEoB6f52q6Qcdh7uweTbRNcNRnVIHEDub6AJEzIYLWLDsYoktzHIAFJiF0hv19P3CegBA1YhRp0NqdIUWBGzq32t35xorALxny3TAzyUIIMlkYrQT1DO0lN4QfwJKxChfws0xUKDmNwBI5gZ+hGWR6nEwdBD07DvK/4WYaybzB3oyuqExD9AAFuc2ia9sEPfjCdTn/3u99dXl5WFOXQoUMPP/zwvffe6zfhec973nP//fdPTk7q+sVFllNTU7/9279dq9XWu/UHXP9WRu7Wyd+5aq4f4FqgQwnCwULcqMv16uwOYz6Dl61m+RnIy9FbZYPCIwcZnz7nOvq0qpCDNHSgDisyPeqyh70DwnB6i53jI7ALpnw7YCE45KWt2bCap5rH0KkJHoVnoY22xNg5dnZJwV54AOcAZphGmmrO0+3UpRLJhWuxenwTpYsJzeC+ChDgjqD773nPe97xjne0221FUdLp9EimP8LRo0ePHj16iT+Sz+ff8Y53bPgSwSrfkojCjtt6NpfbvZK5AXC9AgPcGKSu9hfDN8pQqwgHN6bvEenAM5LobFH5oUISElCEFTh7ubEcAZrMHzgO7a05qgzsg7SvBNJhv5ePawnKRVaLmCqn4TE4BS0ip9m9QskkCa+D10GOboLlcXpRLJWGYBZqUrZkQQMWYXUTRN+SA7sBAgS4AyCEiMfj8fhW9TgDrn8rXhTyU/n2FmbEQLvtJtI00CEEUYhDROYTXRCV4CZo9mTgaA8GPi/5zbPPQKN/w+Bamtav/BedrdRpuPbwKRiH0lqWL6QQPw0FSMvegcABR2Ar3v+aKsMQpoqpY+iYGtba60oziAwIDwgNCBno5uWeTEIKe3ZAHl6E2iYqBHd0+KnrOqobgiQUYOL82/fWZAdOGlulG2W1QDtJXfAT+A5UETUyL3OgRRpy8Is4h7A0KnnKJWwFS7AIL8vHlwMdOAErmzvXDhyHueCmChAgQMD172SiP34HKLAFRG+XzpZLIBJQgByENmG9kvB98A+gBR3oSmOTzWidmzAMNDw38BTvh+egd4W/2IbeFpjZu4qdHOQguXbrQIEUJCENmfMvbYOlMgxh6AzCDEOYGsMwhoZ9ubyLFuCgWMQ7FFaJd1E2I85xS/pxaG2iqheQgszF8qSuFBEpncpKj1H3YHTIwySkcTSGIVbzNFMMQiwIvgXPQ4vQCqUz7B54up234uzC0KkUqOSxVAxYgtO+d9SDl2B104c3vKqiMUCAAAECrn87QIUi7Lut3Tb9MG6Ld6HDGBQgCeErp3RiXeqQq3y4bNhQH6owEdw2NwpJmIFTV7gZ1YcmZK4r1xdQgr0QX6vLVyAORRg7H4jrgKHTjdGLMAgzDGPoWOrVXKi2RivFMES2RraOvpl1UKAAq5sbxBcwA/VraO0LyMIMpCC0djQ5BlMwCSEcaMdZLdBK0RG8AE/AGWiQmmW6TMkiDa+F1+IU6cSp5milsFTKsAIVGErdTgtmobLpIzRh7sorxgABAgQIuP4tBrFW1BGCPMQgAvE7plNr3BDnja0+j3mYhsz18FB3DRBjMAMxTzJ8GdJQCdw2byDcrKXalftHVT2KeX0Qg51QWDfyG4E9kIaIx3EdGIRoZGimPH7viPM9/pGIrAOrIKSrvg4aFDaqWwWDCCslWkkKq6Ram7jqwzAF9c3V9pmrbe1rsFs6C8XWlUB7PbcDR8XQWC3QTDEMUxE8Ci9BBxaYOMfODnGHEvw87MWKU81RKTDUsRQW4bTPVHQVZqG9OZtRFw5UgtisAAECBFz/NkYOspCEqEyo8fO8Ow23yi62kDJoRX4RhjhkISX51vU9fQoUIQWzsAz9jZlEA+refOGdWzYL3zkSkuQJH9tzZJ/YkYGvzhWORoxeKwLTMID2lfSeK9C7Zq4vpDf8K+Rcu/B9PwX7PGGYrWAp9CPUsl4z2gFDeLR+Cc7CGaj5rixn7UPITd+agd2wB3IQ8ZNnga3RSTAIY6yQraPYl7wAhVTMz25izUMwBe1N7GuNbkn37e+AtG9NRh+AcdgFRW84oRdhaZxunD7MCv4XVBF9QufYOcuMQwzuhaM4WfpRVko0U9iCpuAUVOVl04WzsHCFlN0V/8wFGYIBAgQIuP7tihC84o4R51waNnRhZRsciSLbmMpasjj6X1XO2uoQhpD8ektb6S5TicA+KMICNKFzMXLZgypk7rDWvuKLf3LPThjCoMnZaFX+mJ/rW2DBAIZgyC+6MABz07IcIa1sFqEK7U3r0M7CK67hNIUhA5OQ9e0gubtAaShCBkfFURiGaMdpJ2klcFRMqMMyzMIZWLqYpbsDNkLBEb4btA51+Ckk4W64G2Yg6S8qBWaIlRKWSr6KZl1u3XZB73KW8+5ZGwPgHLTWXfNC/kxSThvHZPfE38hX5XB8Hgo4ISyNXoRminqGvs4S/ASehjpahdwc03WyDnl4I7wGO043zkqRdhJL0ICTsjfhTtWfgsUr6eXbYMhzECBAgAAB179tMb4J6z1/e+2CVtttAwtWYW4T1hxbhzBkJUGMSj2VKrm+6usWi+tqQH4VpD8NCehABVbWqXocKMM4JO6M1r4O49IYPiYl6Vd3ghwwoQ99GEAHGpubihYykmkcqrC4uR2qMlSheOXHGYExuYnkH/B1hTEFSICKA50YrRSdGP0olkJXcA7OwCwsQlsaAhloA8JdYgPCIByEiWaihhlE6YcYaJhhBjqm+1IteApehN3w6nXDRC7dN1VKZXTrcs2OvWBsYrlUGIc41KXGyG3zZ2RZq0Jm44SyhDd9Sxw0LJVWkmaSboxhiBWFZ+A4LEKD2CwzZYoDErAH3gAHGcZopKnl6EcwBPNy+dxn1wqsbKJi8V9mq9KFs0aAAAECBFz/tuYohU1kZ9agAnGwZU+rABnQb2Du5tbBho6cY7tZSn0F8rAD4j6auJ1ZsjvakZKG5cegsfYHXLV1/Hbn+tHz+abni7FrXFgddEjKIcshNGAFyptg/IocsMnCAsxe7ldsmIXkFe7s6bATptZOgyiQhWnIeUthqlRy1LIYIRyFAfwUnoUFaIMJNqJDrEK+TaJH1CBkolmoDrh030Eo2Cqmiq1gh+kXKRcpRxi4AWIN+AmcgUPwlrWGwI5KNY+lMbZCeHjJBY/Dns2Z6CuQhqTsiLuzPUmZd7vR2Y9DAUqQBAVHMAh50nxTZyB4Dr7vTcZqyxTnmW6RcsjDG+AwTp5hmJUijTSWiiGYhVm5dWPDPJzahALHkVtGBrRh/tYfTAoQIEDA9QNcBiHYtQkjDlsOe/kltIugQQKykJWjc8otRezcBmpD9vJvoqF+Cg56POAWY8bubkMCXgHHpVGJLVlRBXbcpveOK9eZhp0+visu9mMj9bYqqzhVamYs3z/bl2PgrC2oXOHHmJSazG+gm1rP+PdAHs5C7ZKMvwHLsGPT154O0zDtM5Nx65NDXuPAEZgqzRSVPIMIpqAleBm+B4tggInWI1Ilt0ypQ8JGdbxluiDxwQEsDAvT/bpDvEbuNLvzVMZZStHSMATU4UmYg7fBPkm8AUehnsVSGV8mPNjYjlOBHOyBE9DbRGtckRdA5AL90MXWqgh7vWNyBEOd1QLNNIZOH04JvgtnoYtaIXeWnU3SDgl4JbwZp4gRopalmsMIYUBZMAstX0jWPKxc8vFlw1DuEZ1eNwwRIECAOxWO4ywsLDz33HMLCwuJROLgwYO7d+9OJBJCiEv/Vq/Xm52dff7555eWlhKJxJ49e/bt21cqlRRFCbj+Niu1YjABk5eT6tpQgco6buGAATWoyYm5POQgdYucWzdlZl6yj5tLl1O+6b1bEa5Vyl1Qgza05AWWuu2a+q5OJgopaSGvrPsBXY5PhOWwe0SOVWhrxVejkdyR+4wbXjb6wvSVEG77OQZFWIJl6FySwbtlWE6K+Begs/G94P4Tm3huJGEcJny3uQ45mIACjsDU6MaoZ2imMBXqcBKehnNeEzxSJ7NKoUZu6HHyiBS+uCb2RR99NsCCMqxCDVrQcBgMiSwytcx4ntUSKxnqUfrAHPwveC3cBROusEgAtFKYGpk68S7hwQYDu65bqAYr0IbuJmZw2WDF3GsgIk9WHnTPeqgTp5alk6DPeWl+F6VNfInxOWZs77n8ABzG0unEvDwtR9CGM7AsOfoQFuHk5R5fNizBuU3UhwECBLiTYNv2M8888/GPf/zxxx93v5PL5d7//vd/6EMf2rFjx0Z033Gccrn8j//4j//wD/9w5syZcDhsmqamaW94wxv+5E/+5MiRIxfQ/YDr3zwkYfKSulI/XIuG9uU+TprQhGWZ2ZTd3mfYggrMXo9wnOtSdfTA3MTUxDYnwRGYkEWgstZB/PZg+Slv2NTT5Svrqp2ktId0f+CyO13C1+N3M1PxCS06Mr/MP2jrvtBu6Q2/JAXvl0AYdkAKlqB8MQqbgfFNPApc09WSz1JTQBImYAxC2ArdKLUszRSmRl1wDI7BKUlna2Sr5BpkTK/0ycEUzMjZ3ugGokD3kmpBXdLbc9C0UcuUamTTNMZYLlAJMezAt+A5OAiHYLdrFCzoxelHCQ+IdUi2iXUuJuIX8tnVgxa0ZOE62PQVosm6PQ5xb+TGFvQjtOO0kvRiDBXOwgtwDMrQIr5CcYVSm5RDEe6DV+KUMENUc9RyDEM4gjqchqo81wM4DQub6FM04URgsBMgQIAL8cILL3zsYx974okn3v72t7/hDW8wDOOLX/zi3/zN36iq+tGPfjSbzV70t4bD4SOPPPKpT30ql8t9+MMf3r17d6vV+uY3v/ntb3/7D/7gDz73uc8dPHgw4Po3GzqUYPIK5SKb3+rtwiysQBF2bkEk53WBAXMwv51SY/rQlVTvNuDEodvuxknK1nVi3T6YS+9cvX5IWieJNXePA5aKpeJIHmsrAKqJaqHaCGeNjYw3nJ2R/jxtWIJVX1/WJdmuncs8zG3CQyYrN99cxZrj+0+Tm4jO0CQtH719FXaez8YyVJbG6cYYhjEVnoEfwBJ0oU18luka2T5Ry9saeCUcksm60fN/1AFbYKsI22u/i9EllYc87ILDUIaX4XlYMglVKDRJLTM2zlKRsoblzhu/ALvhdbADVHAU+lH6EVopwgNSDRJtQsO1tYVYu38ylIljNRiAJTX6jqxm3XVIyhhgdw8n5F0DDnSjVHN0YxghTIVlwZPwItShh7bAxCKTXWIWEbgL/gdMYofpxKnkaSexFUzBAixK3Q5gwizMb0J26MBsQPQDBAhwEcr+xS9+8cknn3zooYc+85nPzMzMWJZ1//33f/CDH/znf/7nn//5n3/d61530dZ+q9X6+7//e13XP/7xj7/73e+OxWKWZT388MPvete7nnjiiUcffTTg+jcPrt53HMbPfw5dAXW7Ij8+1/ptDipwALLbrL9rwEmY32bb2UNo346Kl9sAGuyF6XXT0kLK1idkDCqeN6StYCsMQ/Qi9KIMQ5galop9sftOsVAtFIdIj2iPSB/dQLVQbIRAaNK/Mi/Hx2syIMm9Md3Z6AKcgdYlyZ+QpX4O6m5nHCwIQ2ETF15hLdHXYTdMgYoj6EZZnKAbx4JVwdfhOegjBoSXGDvHDoOIQxRKcDfci5PE0XEUbAVDoxujH8HUvH+WiuJyfRvVJtYj1iE8QLNQBCKNSMEueCP8FJ6BsoFSIVQjN0trJ+dyVDXMCk4NjsFOOAJ73CQrgRHC0OnEUSxiXdINkm1UC+F463T+uReFCKRhWvJsS1LnixpkgSO8cYVOnGaKdhJLxYC64MfwlGfho9fIzTLdJG2ThL3wRpxp7BjdqMfyLYWhYAXmoCuFXgOowyw0NniCOfIJ3JYC/XJwDwcIcJPQ6VNpoW2x87RxNQF4J06c+MY3vtHv9//wD/9wz549Lq1/4IEH3vve937qU5967LHH7rvvvlDoIn2706dPv/jiiw899NCDDz7oKvtVVd23b9/DDz/8yU9+8vjx44Zh6LoecP0bCAVCsvlXutouu3pV2hI31eU5mIGZ7RS4u7yJJuhNqUA6mxNMbzXWJ0C5lML2qbrvBAh570zAxNpyV5cK84nz5ZkNlsYgxCBMN0Y3zjB0vot/Cdiqx897MWogbDSTWJd4h2iPcB/VFZdrkIYUtGDOJ8VxiaarLBrJsi/xppDWW24EbGUTAzYaZOAu33MgClOeCY+p0E5QLtKL0RK8BP/t+cmEV8nPMtP20mJ3w31wACeKo9AP043Ri3od7/VlkP/Dq5MEB9Uk0ifRJtYlMkATkEK8Ae6BY/BTWLBpNsk8RzJHrcRyilaMroN1DI7DXrgHJlwrAYEqsBRaaVopIj1SLaJdNAvVRHNrLUduKoi1qxG+CLt2FCwFS8PQ6CRoJelHsAVdKMMpeAoqMERrkjrHjio5x3MnfSPcjROhH/aGdi0NG8owBw25FCaswFloXq5rsALzl0u2DhAgwA3A92b5SQN1i7n+Uvsqfml+fv7s2bMzMzN33XXXqH8fi8WOHDkSj8effPJJwzAuyvVN03zwwQePHj1aKBRGvyiEMAxDCLF+KyDg+luJKCTlv5TPluLqCoaMDEm9UpgwBxGY3B7WnPbmAjJvCm4KjXZ1CP7sJ80X4KVIrj8aIR2C6Yt86l1hPOctAZfaJiW39uvy45D2JUyrOAJDpxelF6EfoR/F0HHE+QJgKHUfrvYen75Jl+nG/s8BR8EI0QjRTBEaEuuQbJHoyEAoIWNoM3Ba/sVRZTINMXj5cnQQ2eMfu5ytvvtyE1CSx62ed9V0VPphqjmaaYY6c4L/hhehiaiTnmO6QsEkDBPwM/AqyGALBhEaKVop+pELiyF/ePCF8x4CS6ej00mgD4l1iXVJtAkPUBLwGjgEZ+AMnHBYqJCvkYnTzVDLUkvRCtM/DqcgL8u3KShBClRBP0Y/imKhmeiG90+1UC2P/au2jBVxUBwsBVv1NnBswTCEoWOpGCGGOqbGQLACszAHZ7x4Yr1BepXCKoWBtxdzAI7gTGGqtBNU8nTjOIK+pPUDX+WzCKcu9xC2YAlO3VRLsQABAoxw8E3sv3/LuX7tL67il8rl8tLS0tGjR/3sXAiRz+eLxeILL7xgmhd/jtx7773/8i//EolE4vG49+CxrNOnT3/729/OZrOHDx/2N/UDrr9lUOVHWcRn+XyNDU7XVXPpqsioASuQh+g2WJyqjx5tN9xIt82QVBjHfeG76lp7eHGxasSWTn8WmNCDrpwfbd0WLX8NdsAUhNdy8NHmmLtiAlvQi1JP04tihDA1j+K7M6SuiaWbYOsKvIdS5q35TnhcpjBlYDfkff/VURhEGIRpJUm0yVeI9eQ5Cckb/CxU1irv3T9xatPKjUtX4HE4CGn5YyEp0I9gKzTSVPJ0owwVnj3fzg/NM7XMeIc45OB+OARj2CG6MRopOnEGkuU7Mqm6Ip0u3UrSXaaRl1Hy/LKDwAjTCNFKUs8S65BokeigJBGvhP1wH5yAn9gstNDaJFYYi9JL0sxTyVBfxlqG52UbpAi7YQ+kBbrGUGMY8Qpvl9a7SiK/WadwcAS24sl1Rl+bgg4sw0lYgBo0oAd9wiuUyhS6xAeEHeLwGrgHijhRehHPacfUsIXnGdCQfN0V5CzA3CWJvi2ntMsB0Q8QYPvwMRVNR9tqunvF1MG27Xa7PRgMSqXSBZ34WCyWTCZPnjxp2xcXOkcikUjES2N5/vnnv/KVr8zNzf3gBz949tln3/3ud//CL/zC+g/VANf7dGekX/71lci7BKh2tcErVWhsgzldNwre3sanT2zlH1dl0GlhnUWMuJI/Mrp3HRn25MgwsrIkbeat6e6Xg0kYW3v7RCXBVT3n+KFOO0E9Qz+KpWKBIVuxL8NJqILpM82/7KK6OyhhGIMDsA/yEHGPQmDq1LO0k2SrFCpophSWZCEuW8d+l5403AVRmL+2XZcIHPSFb4SkQF/BVKllKZcwNCqCx+GH0EZUyZ5md4OMQwReAUdxSjg6gzCreZopLA0HLEEfqlCHjpx5vei+1khOpsnx6Ky7NAJHeeVLQQAAIABJREFUo6fSi1LLERqQq5JsoSkokzCGuA9W4FmHYwNaA2IN0gtMRejlqeZZTdDuYVWwzsKPpSXQJJRgHNKCmLgwpRrfMY7E8z05nbQAZWjAAIYIA3UgG/l1MgYRmyhk4BU4r4YCdsir5Cp5TB1LeB6as7LacWAA52AJhhur80dE/2VkCEGAAAECXIbr9/t9IJPJXMD1dV0PhUKdTmcjru/HD37wgz//8z8fDoedTmffvn3ve9/7crlcwPW3GHGZx7QVTDEFO+DkVbEHB85B6WZz/comtA03C9rW1EJCyotzkifpm3uV9TXA+vAd/8+osju9R7ZpV6ELg1uE9Lt18uG12bGuXmUnZHAUT67TibNSYhgCwUAat56E02unJW2w0Ax000uJciNgXeJqqVg6hoal4Iy2Sdwk05Ny4vduOOgavgsAU6dcop2gsEqqhWpLux534PQCPU8U9oMOZ6+qy+vK9g74jKFCsAemcBRMjZUStQxDjUX4f+EcDAgtMn6aPRYxmILX4rwaO0IvQjNNLYuleRtBLajICePNPDrcStKEPpTl3ILr3xMThAGVfoyFKPqQRItkm0ifkIYSh93wVjgBLzssWVQ76B2Ss8xE6OWoZqlF6YUZhDBa2Ofk+oXlvpcu90ddiX5Pbs6MtrIGkmDbKAaaQahPuEWyTqZJyvDkcVmYhFfAbpw4pk4nRjtBM42pYQpaUIayPImuCW8FFjeewXXRl7tISzc7JCRAgFviOa/KvL47m4E6juM4DmBZF1I6y7Js21ZV9dJxWi5e//rX/9Vf/VWtVnvmmWe+8pWvvP/97//0pz/9i7/4i5pvKyPg+tebLM5AfCtfYhJvYqx15QSuuw0aTtu22RyBKShcvz/ozmS72UQxSEiL1Y2uHA10+U+T2a7K2l8ZqXcMKeAZ+piOnx8nIQETMnKhKRvd2xYRGPcc4s+vSQoKUICYJ9dpJ2gn6MawVOqwAGfgFCzIN2cj+oS7xAeEhoR6RHtEh4QchOPJQITA0TB1jAj9BO0CqzG6F5wZA07DLDwHr4d7R2IiQS/G4gSWSq4mVSWKHB0+vnbbTYPdIODc5jKhRkhCEUqya+AWPGMwIe3zc9QydBWeg+/DOUST5CzTK5QsXOn8/TCGpVPNUs0xDOMIhrAgY6rsDTg9a/VIYoO72I32C0MKUnJ8QhUYYWohGhmiPRJt6WqURLwaXgk1mIVZWHSo9GjOE1tkIsIgRidOJ0Y3Sl/H0BkOMbtYK+sOwfGpe0w0A81AHxIaEu4T6RHpEe0TNbz0gKK0Kd0JRRzdc+dppD13HgRDmIcFX6lmQV2qsy79vOrBCVgNRDsBAmwOCekvrEPtjl4JRVHcudtms+mS/vMf9bZtmuZlo3Nd7N+/f//+/UC73f7sZz/7R3/0R4888sj9998/PT0dcP2twU6Y2OL5V1fJU4AqLEPjSn63tA0cZhIQ2k6fixFIQBSKkL5ON4QCJY+heh7t6zmTkJWAO2AakpaRqo/ls7Zt7+dhllQwjOi+G/g68oJEtkbdxNAB1GAVqtvS5zsGe9bqdpIw42lFHIVulHqGdoJhCEuhIXgaTkBVWlwaaE1SPaItEm2SA8LuPKd9mQkMR8UqU8pRKbGSoCPWcdqzUIcu3D+yfhGYOuUimkm66XOHLMAQTq2l9a7/vQ6nNrfyLq3fB3G5Gq5AvwRRLNWj7oMIVcF34CfQhEXGzrKzQ8IhDg/BPRDH0Fka8yxlXFZ6GlbW3X1u9diCqtTr29KNSpNlakzmDV+AgdSMLUJSeonqAlujk6AbRzMIDYl3SLWI9FFKUIRXyHCyZThjc7ZLrUt8FVvD0jFULA1Tw3C/Btz5WxXbRHN3aWwUd9PGQrW8jATN8rqFo1ThKemOFMVRGIaoZaS1qI4jvDc+Dyu+zVIbluG0dOW6BGw4AytBFG6AAFfI9TUwLxcPegdw/XQ6HY1Gl5eXL+D63W631WqVSqUL4m9HqNfrhmHE4/FYLHZ+aROJX/u1X/uzP/uzEydOzM7OBlx/azDhGV1vLdz9rwTEYRxWYEE6sdiXZJ9jssV40+/z8NbP5vpnW1XZJlel3U1cDn26VEb12d1cI0KQgimX8fho+ugsuOfOpR9h+dIChOcKj7SHd9bmQPn/jHBA82zIvf+L5GcmdKABDWhJzbEiw3RLMIQqzF3VvtBWIAq7oAARWd6okIa9kPLEKrUM1TxDnb5CGZ6Cl6AJAxQTrUt0lWKFfI+o7Nz7z+WlyZqw0FylxzzTRVZ2cjbCQKxZfhrwNWjAUYiPZlNDLEwSHhAZyBdzu/uuvNtaS9/dJ8MpSaY3Knim5ZSALiXyYdgPRRwFQ2elSD3DQOWk4MuwBB3Cs8zMM2N6Mw1HcfZiSg16L4qt0IUVGak1qhhdqfuKTwez/hkifKMMIYhBBnKuQ76vHLXldHgFQpBx7UQFmsAOY4ToxqnmCQ2Idkl0iPZQo4gSYifiXuhD3eXXJgsmTbn9504VjNbLEeCeXOf8kanyyNIwDiUo4mQ9NytHx1YZhOjG6MTpRTF1bIEtsKAMs9CX22IjnZIbEXbpfRj3oOpQDYh+gABXAnXradItAiFEsVgslUrPPvusaZojb03btpeWlhYXFx966CFtg5HiP/3TP/3yl7/8kY985AMf+IC/959OpyORiGEYF+iCAq5/nZilKykO38BXdLu20zAJbTljN5CfkpZkiO4+dhamtocJjyZThLZCTaTIPnpSMmk3elPf+igxV2u+D7IXeyEdklCAtCt1OE8YHNfcXcNSvE6mm/pkq1iKF3PkgHBQpRWJahIaoplo5joncnfkIC/lzMtQhY4kLq5SyN3EWIClm+3bo8POtRVyGPa5AnlsQTPJSol+FEOwCN+GE9AGA71BapV8lXyPmOPNjcYkTXZ3TCJy18MEBTrScrO/7j0LG3WAOsdMnewOzhZYDWH4T2MPvgc2HIWUPONmiLkZpuaI9uWorga7wIGzvhcR0pgrA/OwKienkbkZGiRgLyTWLs40TEMEW9BIeUvRhO/D49BBqZA7x846WYcSvA6OYCfoRSkXaKWwFY/Nn5Pp1G4L382Hbkgxz6UZrSO5rJs0twKKdM9JySUf7VyZYEIXFmTkbdoV9At0BVOnm6DieH6do9AyLYGaRexCvBYMaEgpfhdaju98OV5J5Kr3I3JfLAIRHM3z4nGzkQ2NYYh+mG6cYRhbwZYetW1oymIYWSe731+VIy6XXhN35qENi9sp9jtAgFujmx2kVZ7H7t27Dxw48LWvfe1HP/rRG9/4Rveb7Xb7O9/5znA4fMtb3jIqAPr9vmmaqqpGIhEhxNTU1LFjx55++ulf+qVfSqdHQ128+OKLzWbz8OHD2Ww24Ppb0Kves/Zz+kaWGar0IHc/xUfm65Y0FIzJmN5tgoLXkLzO65CAMalTD9/Yp4nrkj7p80sZHVVUqpmL5wMWbIGheS7ghs4wTD+MqWFpF0913YhzCBvVIjQkNEQ3CA0JD9GH6CYChDsVOQENOYjZk0cVhp2QhwVYvd7nYpMIy7xb1XcGZ2AMR8XQaaRYLTAIU5e5rAswINwgVaGwQsnwbIwSsmIoudQSolJxYstmtYCupHKu6ctFx9tFm8TL7O8R28UZbe3PGPAkqPBzvpupF6FcZGKJkOF7pu7Ca6Vf8AkXh30wAVVor91livoGFZCG+hOevLyeoZJnGGYOvg8/hRbaLNPzTPUZDb/ux9Kpp1ktMIjgCC/bdVW+V9c4cl6e8avW0dly42ikQ3OfP+m1910Xzsq84aS8MeMQcv06wzQy8vIdeNduaEDIQA0jnMs8rxwZjWupmKqvSnbvKB1Dx1FAeEY67uxsB9rrtlZ6sCS9OTczU9GTeeTdoKMfIMCVwxWdhoKFANixY8fRo0e///3vf/azn52enp6ZmXEc5/HHH//Sl760b9++17/+9aO+/he+8IUf//jHBw4c+MAHPhAOhx988MFCofD1r3/9P//zP9/5znemUqnBYHD8+PFPf/rTmqbdc889fgFPwPWvE2XZv47k3RTSr62tN0ai7e2GJOyXHdrrdQom5CDjDS5pdOn4nl/rrhOCvOziRz1vTUvQj9CN048wDGFIcm8LhoI+dKAn1eFuF9IEw2fko8qB1RTEBSGViIoZouuAg2Kjm2gm+pDIgGST8AAlChHIQRsqUJbMXpEhUiVYhvKN6lAKPM/3vLQkcr85DjsgjqPSiVEu0o0zUD2W7wbRrjC2wIQrx4cIHIBdMAbjkLjY00zxfdNdhf1wGMpwbqPjMwhXyU0zq62rB4bwBNwLU75XaCWJ9ihUfO7vOuwFCyoXOyLXqN6ShfoFd2gUCjAFMRyVXsRz/umrPCf4DixAg9hZdi4zbhGDe+ABnEkGYWpZallMnaFgFWbXel5ZcBoWrl/ymkujB1CVpD8LeYiDJt+XK4hv+dLiEpCDFOgCS6On0YsCqJbcqzLOp2dp5nmxGni5WW7n3vunYalYCpaK7VvN0RCCa2PQ9c2x4Kt8ynKIZZNrYsvMb4sAAQJcDSpwCnb5IsDvYIRCofe+972PPfbYo48++hu/8Rv33Xdfv9//8pe/3Ol0fvM3f9MfpvvVr371C1/4wtve9rZf+ZVfCYfD+/fv/9CHPvQXf/EXn/zkJ7/61a+OjY21Wq3nn3/+2WefPXLkyPvf//5UKhVw/esE92N7D+S2JaXetttkAvIQgpNQux69sTzsuRk7gzE4BOm1LF+BLOz1JgEcBVvQj9BK0kpihLAUTAUDesKTVyzKeDFDCoZtcBD4nFFGkn7hG9/VIQ4zUBKUBFmFpIbqoMZRHCp5Yh3SDWJdNAWhI9IwBcswL5UsOmSll+sKLEJnK7uVijRE0X2RYWmYgRxOiKFOJU89w1BnRfAYvAhdRIvkWXbICNgozMBRmMAJeX/IkRp7sTZvSay/+JLwIPw/l+hsm+e56oXow+PwsO9zylapFIh1iXd9vxOH/QBUL6aSUtYVpUKOI2dwQqAxCFPJ0Uwz0FkSfBuOQRO1TOEsO9ukHMbhKM7dEKMdZ3GSQRhbMBCc9M3gjjQn8zC/NSd3RPprcA7CMhc35rsrLanpr8KC9NF0y4OkQAdLw9DOnzLPH5WLWMyOJlocvM796FaxpPjfrZhH2Wn4fsbd7KnJ6VvrSt5mx7dPEiBAgKuAAfPQhINBEgXAzMzM5z//+d/93d/97ne/+9RTTzmOk81mP/axj/36r/96InG+fXv48OHV1dVXv/rVqqoC4XD4t37rt5LJ5D/90z999atfdUd7I5HIO9/5zt///d8/cODABQY+Ade/KrgTluMwHmxFXS3nS8PdUIUytOVo4NVBuxmzPsIz8VvzpvJyMFfFAVOjF6GeoZnC1rwwV7epcRxWoA8WwkI10Cw0C8XwWvOajQI4KCaqgu06k7hfuK7wo8bmGU/STxgmYZdgJ2QF6RCDEI0MmkG6SaZOpI+iInbBOCzAspQma1J5MgWLMLc19gg6FGGvjya7Q6u7IYQtaMdZHqMXoyt4Hr4BK9Aiucj4EuNDYjAJh+GVOEVvbtfUPQlHL0o3hoBwH8XG0An3STcJD1Hsdbx9H9wLT2/M9VVn48LxGLwAr+K8A48RYnmMnefQrLXc/SDMwsolHXjCEIIc7PIeJragmWKlxCDiLcU3YQnRJXaGncuM26RgH/wCToahTiNNuYipe1fYWd9+gusdefo6FdWXhQ1DGEILZiENWelzNUqOQ4YYu7z/nBy1CEMMYoIIaKAIb/h2/Us4soCx5ObXADpSwWis69/bcpDAkFahvStMJHRfoit3CQIECHCN3YEm/MQXHnIHQwixZ8+ef/3Xfz1z5szc3JyiKHfffXexWLzgxz7xiU984hOf8P9WsVj8nd/5nQ9+8IMnTpxYXl5OpVI7duyYmppyi4H1LCnAlZPUPIxBNBgxuTZEZEhmW+plW+u22jdzRm7KVZyFibWHUfIyldwWczdKNUcrhaVhQBlegDMw54mllS7RLrEe0R6xLtEBYQPdQpNOMhd5QLrtaxUrxCDEMIQRYhChH6UXoR9h0Gd4GkKQhp2wD3YI8iEqeVoJUk1STeJdhOt+k4NFWJEBQK78egaSkqFeR3boTghMriP6Oz2i30yxUqQfpSL4HvwQ6iir5M+wu0nKyzrldTCOrTCI0I7TSdCLXCje6MbPf54006RaJFvEuj6FDRCCV0s7nytGB34Ke9Ym5nUSVDMUK2sfCXEp8HPtcS+IQYhARmq9wqDgQD9MI02lwFBjGZ6Gp6GFtkphlukGOZiA++FezATNFI0M7QSG4pXNq1J0bsk5jZtFTy2oQlVOzCflGG0Uoj7bJZdJN9d2UtybWpFaIGctcbd8nrP2xlWHG6g7kPsJvSun+O7LudkUFWgHHf07BtFg6nrrMQwqZ18rTNdHNvlXhHQ6fd99922mIxrgSuDaZaS306jrrQ4NMpCCIXShIwfpNtlajl7XAKzNQIUxKUQZfWcvFL3yrx+hmqWToB9mqHAWXoCzsABDRJ9wg0yFXIeEy+9tzzowLFXPGTl4MVKSuHGuHYeOQ9+maxCS87SOgq1jhBiGGKRo5qgmaQ2wVuEYjMEheLUgF6ESopUiWyVXQ3PLlTikpAXnqGhxTRXjUupz7ed3AgqQk88bV7czCQWcMIMQtSz1DL0QJwT/DcehTXieqUUm+yRhN9wPB7Gj9CM00rQT9CM4l97NEQyirIZpJimukq35aLiAHXAPfO+i9M0g1CEW3eDNO3ACjsHP+B+ggkoBzSLTWFtWuFdLBto+J0mkEWrcE4A50I/QTNJK0Yt6IVlPeZL7yBwzS4wNiMG98HqYwQx73vmmhi2YhTl5shy8zKxFaG+DXXJb8uyydMh037hr5hNf9yk0SjC+utcaytHhBgzkHsJVL8IsLHgbcAHuJOYVcP0AtxvPCnAlSN2MAdA7AYo078vIRNizm5AXC5gamSDeqH6PS+t1H23diVMABUOjmaacxwgxEMwKvgULnkZJrZNZZKJFakjIIuR4vuDutMEOSEFIWjD6k7RY2880pV3iPCxDzaYzQB8QAadGbp7pCL0c1QkWLXodnDn4ERyFVyjYEVbG6MYpLRPtg46YhDTMwaKP0IRhF6TgxDW3XvbClK9siXsWQE4IS/e88wchGgrfh2eghrJK7iw7GmRs4vAg/AxOAkejmmO1gKHLHQ55eVjQgYGcNl4TQKYwiLA4jmaSbPnofgReA2dg9mKMUV1gMk91o327NnwdCmsjK4wQS+MMQ2Rrni3P+ZityEUMeV21uS2wVJppygVMHVNQE/wfeBE6iDrp4xzokLRJwgM4b4QowxBL4zTTnpXkHJzxqfMNeBmWth89dXymnDU5dxKFNMRlARDyhWNwsY1TZ90X7jSCq+FpQVu6kNnXcJx9qEADlgOWf0ci6DcHCLj+HV3rp4I120qMEnJ0OABpOLNxeqWAHEzfQCWVCgdhzFefzMBu0HFcM/gx+hGGgtPwOLwMA5QusVXyS0y0PRFDAvKwHw5CDkI4AlvgKL6hw9GYqZsa5CDs8wlCFGGfR0rpwyKcgzlYtWkN6QwJN8nMMlNgdYLFFK0Bw3+HF+EBmFJppuhHyJfJNNFMRBIOQRFOQ1N6VGpQggi8eLV5CBEYg2nfLZOCuyCFA8MQS2M00nQVzsBjcBbRITrLjnmmHWKwE96Cs8+T49cyNNI4itf07cKijFgftYF1X2JxdDQYKrB05ifZcY5Yz0fAJ+GN8L8vaqheplgnnd04mLoC/wHvh7zvgjRDrIxTyZOrkqkTHvp6/OI8QXXPtqHRStJIMwhjqQwFi/AC/ABqiDaJOaaWGLe8nY034exlGPFCsgYRBoKqXARLsvwBzML8DaTvXNUNOOL9A6j7bqiotB9VZFKCLoduvYpKNu9HPXvjajcBLjie0SH14czFPJQC3DkIZkYDBFz/zkX4xraQ73AocihiI+14Cg7c2Knc/Fq9UA5mQMeBdoLlMQZRWvAMPAmr0Ca+TKlMqU3S8eRfuz0PeTvqmYK7/2voXqKnI3AUTBUBioUi3TQ9O0IT1UKXvoSKgojBXtgrQ4jmYRYWoWJRXWa8Si5HtcRKnuqPMBfhAXilgDBLE/Sj5KpEeyiuOZK72ks+8uSy85NQvsJGaRT2Q8l3gvKwG1LYglaSSo5WklXBE/A0NFBXKUpJ+k64B16FnaGVoJ6hncDSGApq0JRxSOvd0F2Hh0WIyRzrkc7K7bpPLvhyboHDcAKeWX/4NuocU0na2sZ93UV4DH4BYmu/b+meUWa6QXiIaqHYKBaAoTMIY+hYGt0Y/QgIbKjCj+DHsAJDtGVK80y1SDuU4H54NXaGTpxykU4CS6EF56AsSfAQylCFxg3RHrh1hdtNV6Wrkia/uGpHLFsmnt1ISmdJft+Usp/uJWepAwQIECDg+rd/ue8EI7k3kO7LsUUW1v3X5A0MKnb9VXf7mGsS9kIUG9pJFsfpRViFb8OPoYuySn6WmTpZxwuDvQf2QxJHYRCmlqEX9WxkLNXL/bn0led29xUbzUIz0EyiPRJtSV51KEAe7oYm1OEleNKgs8xEjewEizuYXWTwZViAN0FepZajH6FYJtVCAWKwG2Jwykf3E7AftCuRhURhGgpyuRQoeHlzlkI9TbnIIMyi4BvwArQInWXHEuMD4nAfvAlKGBFW89QzGCEvGeqcZGOXpYxtOA1Df5q1oBtnpcTYMuGhXOwwvBnqcGp9KVMlP8f0OEthBhudm+cgDq+CCdb6dAp6MfoRSfRtFBvA1DG082fbgmV4GV6C0zBANEnOM1mmZBCHA/AA7MEMU81SyzGIYMKSNK1z0ZL2tcMbdTuM0n/7coJWlXQ/DGnIQWR7PyfdLn4ZatIwtH8N+WIBAgQIcAtwfbc3YwZbV5dEB16EXVBYKyoNsHVwo2d3S8NsP1xjE33rDyALk5CFiLxpxnCmIYmpsZqnnqWn85LgmzALHUKn2bXC2JAITMCb4ABOEkdjEKKRppFmGJZ2+Ze86fzk0W35uwaC7qE006yapJpkGkR7CAcEws33cu0/p+HrsDAkPMvMkPAeTjr0n4Qq/ByMC3oxFicwNXI1FJf9TkEYjvn8eWKwH1Jw+nLTugIycBDikujrsAvGccJYKislallMjdOC/w+WoE78BPuq5G0S8D9wXgdJ+mGWx2glsVWGsAyzvgvAWVt4i4utmCl/Ze8oY06hmcbUmVgg2pc/PAa/BE/Dk2vnwcWQ8Cl2LzM2wcIkiyoW6276Hvw3/Bhm4AjslR68rnTIUXHUCx0gHfmLJ+EnMC8tZ/uE5plaYqJH1CEGR+BNOFmMEKt5qnlslYHcuRnKP9SBl26s4KQLJ9bKZoZr138ZwjAGYxBbOz6xTVi+e8wnoHw99D8BAgQIcGtw/Si8EgTMXpXv4R0CBxrwU9gB09u+cXU7IQoH4Njanm4LlmHXFhP9aTjkm8Z2nc0zoNKNsjROJ0FP8BR8DdqoNTIvcqjvGdwchrfhxLEVhjrlIo0MjuJdS6aUWVvQlLHhmhzEdZNhR6KIC9mSALBVbJVKkWqeaJdsjUQH3ZCBRBF4FeyA78APbdqLTHaJ3sWxBJ1jUId3wk4BYRYmMXQKq2gWQoUSaJ4hjvdqYdgBBTjpM3b0H04c8pCDjAwXc2dSD0EBG2+gtJHxZE5fhw7qCsVT7O6Rht3wZpz9mBFW81RzWDomLMJZqUtxpEu6DS2Yh540cFQhJp2FRnsvtkxv2CPfkaPQSXB6N+NLpJpoFsLddPif8Ar4Jrzsq2aEhd4k3SQ1z9QkC1lqMXoqlv9UGDK76TkoSc/SHBQhCQKGYIKGR9TPQhVq0Pac3/UekSq5WWYGRKX86K2wD1ujE2Nxgn4UR9CBFzg/QdCTZjvdG3gnWnDmkvx4pHo/BeegBOOQXJs3dxMf4CPp0dmtCZEIECBAgO3L9ZHWh2lowhKsBprFDWDDGWjDlI/WBNhSuM31KTi7VkaysHb08/pChRzs9hH9KOyDPA4MwiyN0056JuiPQ4fwApOzTA9JwX64Dw5hRulGaSdoJRlEcASWdBd1M31MaQTurHv1GCSkJXkcEjJr9iIkRqGboBsj1iPVIN4hMpAZUhn4OSjCd6DcIPsSh/ZwMkNjEeeL8BAcAl2hXMTUKJYJDxHugu+H09DwHVsUDkkf95GDpA0J2AFx31qpUPCSxWxBM0m5SDdGGb4FP4EW+hxTc8wMSMG98BacopdKUMthCdpQhnPyjLsV0bJU6vek6MbPdOMwDfm1R9KDl2AAk1LPY2ksTtCLkq9IBZQCO+D/hh/AszC/Vs8h2qSOk4jTyVPJU0nR0jHEOia5DMu+pUqBkNmsCli+msVG6RJtkK6TqZHte+d4Cg7DYZwkgxDNFNU8gzCmjKRtyEdQB07Ayg2/E9tQ3fQPm7AAZSjAhDQ2uPFPS7ecdq+ZJaj4dkUCBAgQ4M7i+qNvuEmHOd9HS4D1WIW2jMIpBIz/hlyqE1BfSzVcxlzagsXXYVLu3oy+swdyONCOUy7STrAEj8IxaBE5w65lxk2S8CC8CrL8/+y9eYwlZ3nv/6k6+773vsz0zLjt8fhiE2O8XBtjwMT5xUokCwQCshApUYgSRYFI2QiR4kAIUiykCBGJRCZIJiFwg7g/sxtsg21wTAxeZ8az9b6cPvu+VNX94z3vmerldJ/u6b3rq9bYM33Wqnf5Ps/7PN9vxUMyQdlH3QkKFViEoix0Xr+HUoOClH4T0oR+aUTq66T6qlL2UnHjquMtE1vCU5PX7lbww/dgNkPkPNcd53KCpQWMb0IDbgKHSjaCrsqCdlUq4l80XXMFHFIvXzdxffdyGmeDfhgFD7pCLshCL3UXGYVvw2tQxnGRsTn6NWJwO9yBFiIbJBOj7KWsMCdT8iIXK8yMshsJxgsGvAAJyewVSTqvQEXnOe5mAAAgAElEQVQGJIqCbicTpeoikSRQlNfTD3fBCfgFvGgSiGld3hKBEv4kPUFyQfJhcl5KdjR1rc9UWesON7CX8BYIFPGLP7VWT+sJeDMMQxTdQTZENkzZh6ZSgikZGSKFlxZXfbrdwRaU5hswBznZy+7braVSSGeKZt8iVKG6u2cgFixYsNAddF0vFouFQsHpdIbDYYdjE9XJxWKxWCxqmhYIBPx+v6qqXXB9pH1mDwRgcrnqtoUV257IEk2CH1zSEElIxdmkVPqaQjFWYLCFnXt1/6oBb0ARBiQpv/YL64BeGAC/5K9qK0VtRNBtZEMsxam6mVD4JkxADu/r3JAnpBOFd2PcDE5KXub7KHulIaoswNjCbNKgCEVYggCcMUUgqweWYaPqoeqi5mRkCntTdu7eADr8X8gWCF7glJ1mlEwSvgUq3AQ2tSXaPjiDo4kieqOvh4uwaCLZiixLXxN+GIMIhgNDIR1jMUHDQVLhG63b5b7AiUV6dUJwL9yG7iYVJZlAs9NQOGfSkazChc3kYjXIQgFScL2s1FdolQOV4DhEaeXyy35mXATzxJdw1QEUOwxCHG6CF+B1qet59QpX8FbwLJFw0HBQd1Fz0HRR9VH2ULahGSh2NBUNaOCo4xQ/ZbxF/DXcTewaNqNlKnECboFjGEFQqblIxsmH0GwYCnl4TcrOivz0LFzeqIvU2LFFZssaO8K5Ngq+nVkcVowBEVcnZQWVtYVZsGBhf1Ibw2g0Go899tgXvvCFdDrt8XhuvPHG3/u933vrW99qs9kURVnnialU6itf+cp//dd/LSwsNJvNWCz2rne96w/+4A+i0eiKJ9rXW9N9MA4xqbptoVPWqtHBekMkQR3LneFdy5XpbLKyeffZvy4dZ9rMwCYjk30YihgdcpkVuATTMAT94N6q05ngrx4Yk73XSKus66R8jpOZIYo+Sgovwbcghz1J4gIn6gRhFO7HOEbDRT7AUoK6q1U8UISL2+HPImo55uB4F6Ss5Ge2n4E5SfftcBNU4P+HahnfWa6/iZcDFDPwNVDgDNhUCiEmbQxNy2IeH5yGKMxBFepriW/awCePuUIYDjSVqoelOLkgZYVX4fuwhJIneIGxDDHog3fAm9AcJOMs9mIoNOAcLMmXrcPrkNxSdJSGF2AM+qRDkw5Z+AX0wQh4wKbQdJKOkw8RkZL4CihuGIFheDdcgJdgEsqyVwBQNOwa9iqeznfVUDCMlXPbDm7ZWzAGt0AIw4au0nCQD5CKtXSHdFiC86b2AR1ehfkuZkoFtFWHLdsC5zU4CbpNJy1d0ndD/uirXLT05fOiLt0mRPOEVYBqwYKFg4BcLvfXf/3Xn//852Ox2MDAQLPZ/PrXv/7kk09+6lOfes973uN0OjsR/ddff/1P/uRPnnjiicHBwYGBAV3XJycnH3744e9973uf+9znzpw5Y6b7G1U6q5AAF1yClFXjuHl6Wof6csVoke93yTDABU65g9qWG6eqO8a5NShDXpY+N6V3kjB68i9vcNwnqMtcb6ffiiE6DPEtUZwYjMrzGUVOjiicwPCjq5Q9JHvI+5mC5+AVSOOZZniO/gYJeDO8BSNB2cdCLyUfhkpTOFxBYVvl/GZgcN3Mejt8KQRIV4mnsOlyPt8Kc/Ac6GX85xkf52yAUgX+L6hwA9ih7GNmiN55fGUZJgxCD5QgDXmogl3+AAHoa502GFBxk4mQC9O0k1T4CfwP5FCTxC9zvEgQhuBBjBM07aQjLMXRFcrSSwFZkj61JaJvHhUXoAhDsnZevPIsZKEfemRJSdNBsod8iHAGfxF3FdWQgc6b4DTMwCQsQhqWoCxtjPXOsaPNaM0rL/jABT6IwwD0yYMPlYadqoeSl6KfmhtDpSHL4udMRL8JCxsRfcGJ83BZJtHjENrWCkPHNXB9bzeDVn6RKmRkm6/Ip2imAECTf1WktVbD2p4OI1Tp22AHXebIVNMwMEwjxBoAFg4aNE372te+9uUvf/n48eOf+tSn7rjjjkaj8YUvfOEzn/nM5z//+V/6pV8aHx9fM7Vfq9X+7d/+7Xvf+97dd9/9iU984uabb9Y07cUXX/zHf/zHJ5544nOf+9wnP/nJSCTSNdc3pzatep7t4tnacuHCdnbfJut/nCbm7b2GXHWnnN8spKG41t1sJ2jFj3Pf5PgbXehm5KAKBRjepEqSu1V2chVCdqYHw0PTRipONkzNyWu0hDWzBC5yIkNMZxT+N8ZNND2tZsqKB00hD0mY3oEpI1oMR7p4pG4nHcVbwV+UV8MO90IGXgOyhC8zdpI3vFSz8C3Q4UawK5R8zPUTXyKURzXkuYcDQlCDuhyuqnxVBQOadgr+1jVoqEzBE60jDecsAzMMVQnAOLwN4xhVN0sx8iGatta1yso2ynlY6NwvpMuHIWdHp3vdlKqWQ9BrWvDKcAXSsmDHASjUXCz2kgvhKxEs4GvX8Qvd0FE5CpNQMHm3luXlsMtP5pLur0IyNiCDSKkZpEPTQdnT8tOqumk6MBSaUIRZyEHZlMDOLW/7XXNel2TxUk6eIJVhCSLQC9Ftit6vZSHqkusbkIErkJM9IRaOGtwQAa90bBD1sYbcKNfk+kXIQt4SUbVwkLCwsPDtb387lUp97GMf+7Vf+zWbzQZ85CMf+e///u+nnnrq+eefP3XqlPjHFSiXy1//+tfj8fgf/uEf3nPPPeIx73rXu8Lh8JNPPvnss8+eP3/+rW9962a4fnuZHgMFpq3oebthyKRvwyz3J1MaIi0YhJBMDl4L+a5JVWm9cyiShwLMg1f2ODr3wSUqdGcIWmtJ3HMzmxvboVX/0gM2NBsLfWTDNGychW9AGmWBxGWOF1vF7O/CGKDuaenyaDaqClekktUOMZVq155uDSepKL4SSnvehuA+KMCUgZok4aA+xiUXjSR8GxS4EWxSer/sJZHE2ZTDUpEFaSsuvIN8kFyImoumnbzCT+HF1qmG9xLHl0houOEtcC9EqHmYHqTqwVBZgPOSu+twAeY7nITUZVa+Ljd1H4wuj9NWDx5hzpCG46beUA0yUIKFll4QNgVDoeql6iYfwlcklMNfkopGItyJyjfTZX2JECQSAYchKYlqKs4zGSnUHRT9FPzUXTQdraJ8FDSYh3lp2mqY5uNFWIDqumNJnGBkTMnv9jiZgyyMmyrTrgVbHs92KSS1IVKyCcfC0YQT+mVBZpcFrgbEYACqsAAzVlLSggnP/ZDnfoaq7uy75Ke38KSJiYmzZ886nc4PfehDbU4fi8UefPDB7373uz/5yU/e+973rsn1c7nchQsX7rrrrtOnT5sfcPr06ZGRkfn5+aWlpRULcHcQ29yATB1Z2AV2K04AalCSlQx2mfAQLW52We3TzRYuDvdf686Cvl19lIUZGJalXOq2fkHdxJcEh7DJ8hvFVKoL5OBc10GmKHTOL6fva8IDPTBk6hcUxSrHMBzoNko+5voou1lSeBb+G/K4phiaYkQjCDfD/egB8gHm+6i70BXy8PJahlOiWDwHMVMb8RZqjRww1E29vmnqGitum9CXfIvwPtVRpxmyoR3nsgMtCf8O74Q7waXQdJCKkwsTzOEpY2/iaGLXADSVph3d1qKvRT+6SgMKCq/C05CFBnZRt1MmIGOMt2A4KHmYGmkVpudMRF90ZXRaM4WczsSK/AbkWyr+643PusyXH4OE6cCqDklIQQhGISgqXlQaDrIRshHsDQIFQjmcdWx6y7pY4SpvVRxXa0taF1xBV1r/o6k0HNSdVNxUvNRcV2+HEGCtQlL2Da+YIBV4o4sC/faE7VQnVoEL4F8jQts0xClFafNPjHStl6XuogGwhX2IOlyGGeiRGgkb7nGKjK9FoVxt3UMwC0cNwTtx3Ypq39l3qXx2C0+amZmZmpq65ZZb4vH4VV5ut1933XV9fX0//elP6/W6272GFoemaR/84Advv/32wcHBZUm3Wq1YLPp8Po/HsyWuj7TL8Vlcf+/QlHosM7LCJyCLgT2db6YIGxbhypY26TK8AUnog+h2OIjpMoARBlLiBFbs7l4IyUoH4XojcreLm693nzeVaK8JP5yGkMmpKgIJ6MNwUvGQC7YMcV9SeBYmIUNwgpEkfToDcDfGLWhusmEWe2g4WnniC8uJfln+VfC2Gvikx5JTShB2DzeMwuAm6zFszbX41I3wKpwTodU0w26qw0wL76fvQQ1uhZiCCk0H6Xjr3tk0HA1Ug7rISqugXPW2moGzMAUVHHlCiyTm6dPxwjG4B+M6dDtFHwu9NJzoCgW4YCL61VVUfgUJyKz17zV4A3RIbHRlhPV1GuIQNlXH6ZCBAkQhCkHwK62XajrJRMmGsTdx1nHVcVWxN6+uioqOrrZ+AF2l6aBhR1fR7DTsNO1XoxBDqogKXRqhF1ReHsc25ASZ7toQV9nIQFosGieveQlSoLe78GNFgDrS9fGgqNyw6L7F+KdllV1fdwfaihxsw1Z/tgXzDujC6ce2w1xf2XQq1DCMXC6Xy+VGRkbMRfmKovj9/nA4PDk5qWlrH1GdPHny0UcfXbkT1mr/+Z//OT8//8ADDxw7dmyrXF9ksiKQtA7I9ho6lKEMi+CQpkshk86PYBe67AxOyzKALb+d6MgMQ1R6FW2W8QsmJ4qJRcSy2p65IL+RSwYAW64ZSENdeiexFtcdNhF9IAbXgQdUyh5mB6h4qKo8D0/DErYk8UlG8sThergL4zhVP6ko+SANO2mZHi6b4qsyXJTVCA0Zt5RkxGWXxTBdLhFOGIWBzRdeO5qmAp42QjAOl8TH0rBf4ZiXcoy0Ag34EUzDSTgJ/e2VQkVT0RxXx0UJCnAZLsAkFKCBmiK2QE+WSBU39MJtcAMkqHrIRMgHqbuoKa2i/Lx8rRxMd04lGHLYdIpIL4IO/RuNTA3mYAlC0Ac9JpbchEVYAp9sbA2IsxcFw0bDRsNFyQAD1SQK0zqDUq/m9Vd8AnFs1ZBy72LmllZp1YsYoARzsmKte7KidrGWL8LYdhzNRcC5SS4+AOGuHywcoy0hfAtiXgsZwBEIdL30hWEQLlmXz8K+hqZplUoFCIVCKxpwXS6Xx+PJZDKG0W3R/NLS0le+8pXPfOYziUTioYceGh4evgauLyiRzeL6+wkNyEEeFqVopk129zZlG2VjOwrHm7AEWZiTi6mns5OrmcE0peNpAaqyvHmdx9e3I6vXhGpnrh9dXr7shROtFHvZzewAFS8lhafhJ5DFPsHILIM1vPC/4U6MMJkoyQR1FzWVKZg1hS4ZSEFeUrp1PuEcRMHfXeAUM5PuzcRY7k6NDjfAE+1ethrui5xUeCNCRpRRnIMr8DyMwA2yRsYjt+BpuAyLUJH+YBpqltAsAxmiNZzghzfBbdCH7iQfJJmg6sZQW6ZXaXlco8EkzEoh+TWRlMn7dWjBBbBDT3ezRhR6JWEAIibGLw4pSrAIHohA3KxMpbQOMtgoohC9u2UoQkkeYYkfY/mAr0BGNg/UZDPG5lJKXQyMOlTBe80zS1SRdU+kBmB0MzGGUINIWyu7BblOir0j0bXoggKD0rjQgoX9Cl3X6/U6sKLeBlAUxWazaZrWDdfXNO2ZZ575/Oc///3vf79UKv3d3/3dQw89tMKNa5PEwbCUrfYrDFPmeKdX3oKs2BDKIkEImkrPVcnXy5IDVnZ92Iiye/9av7JBFE6BR2ZgI3AKI4CutqpLyh5mFb4Pr0MJ1yWOzzJoEIR3YNyFbmcpxlKCpo2a0jJq1SXDW4DXug6Gc/A63NAF3Vdkh8Zmh4WnjKcT14/DMJxtv0ee4Mvc1M/cIDNeKipGDZKQhBdNlgOYmiw0VA21jnOJ+Dx9Jfw6DvDDdXA39KLbpT9UGF1FV8jCeVP+XocpOL/RV3F2MYRqssy3S9RhAZIQgCGISe8L8anE0E3DZXl05gMveGRgoJukcpqS3LdHfvtUas2PrUs9+FmYueYJYoOE7Krv9DqiTsm7HfNrCMqw0MVnFi7Lm23uH4SpbZWptXDQUYZJWZnZAyGZz6LDymlY48fCfoeqqoKRFwqFFZy+2WyKSv11vLSAer1++fLlf/qnf3r00UedTudNN9308Y9//N57713dzrtJ7tCAaWsKWVhFhswLripZ717BBcdgaK1UoheGYEDm+52yN9ffkqvJRKk7eAMehxmUIr6LjCXphX64F+N/oTlIR0jFadqpwKQk+oL5LsIbm/zuQv3yFITXzX2KWG6zdVOKTiiHs9HhicI+66z5Xxq4JhlNERthMkRe1KE7aNjQAB3FQAU0bFXcZTwVPCV8WSLVlspkDIbhDJzEcFJzUfKRCVP2YSiUIQMzJqJvQG7dGv02QnCjrIlaU9dekVLcWxjJ4mQsALG1LCb05eVDNrlwGssV37sh64Z0dc1JI+TSdox5BWLghInOFFyTrgLXXsYjdBpyG0ljKRDYknSYGwZh0sorWVg+d9q5B4907vOajD5UGcCXYf4aalYtWNgV2Gy2YDBot9vz+ZVutbVarVwuRyIRtbN8ULlc/s53vvPpT3/6lVdeufPOO9/73vc++OCDPT09a4YHm+H6mnQdt9ZfC2suxOw1yxcQlqyrJ4gNjsOA/JUNTkAvOGiqzPeSC9NQOQffhhmUFNEJRrNEYQTeBadoullMkAvTcLAE05CRCVpRt7O4pQ0mC+fgxEZKMhUp7dj9LfFUCBRMxeWrMQbuVR9aKeE/z3V+Siqaiu6h4qUM1HDVcQIa9jKeCl6tVcUllC9PwQj0YripOSn6yYUoezFsrQKwGcjLZIEBZcjBTHeF6YpsMSjKQpe2ia8OLgiDZ5O9zisGsHCXs4MPIhCRKrcrCtW0TQ5yQwpqtY+5ch3cLa6R7gfhJDhgtsOLCycA9zW/l4hStI0+TwJGtyr+0wtJq2q/MxwmLSmxjeePkheBmEdLJldKrzyzEq1lFWuIWNjvUBQlEolEIpGLFy/q+tXZaxhGNptdWloaHx9fU3AT0DTtxz/+8V/+5V+mUqk/+qM/+q3f+q2TJ0+uExh0zfWFv8mEJY9gYd/D3aGFS3QVt0mbkHewo6kkE+RC1FV+Dj+ARZQFei5zvIQfTsGDGH1UfCz0UgygqSzCRUlENJiGiWtT08/DJXCtqx1UhEIXQqJtqDrhLO71eXQAji1P7bdWIQ1HrtVQaYBhQwNFRzWWRRseGIVjLeMxAhg2qi4yEUo+6i40Gw2FNCxCxsTphaOw8IXtvnxFlbZUbUVazaRo79omq+mmTPPPyzZxP0TAD3bZD7MOp9dlSU8NapKU1GSFT9NU+bMT8MAYeGEeKsuXa3Ec0dgOrn9OGl11ggt6YVhWym0hbvFC7Ghw/e773+wymvVB0HRgoso1ZB5SR4nxm8tW2y0rlpeWhYOD3t7egYGB119/PZ1O9/f3t8Z1o3Hx4sVsNnvzzTevKLtvo1QqPfLIIzMzM5/4xCc+/OEPh8PhDRcPGSVn1u1zF4TGyrJY2OfwL1fXMXPaEdnXpUIvjGLYadhZipOOUVb5GXwf8qjz9J5lXMMLZ+BXMCIU/Mz1U3PTVJiECdlhWZPGT9eeo23X7nei+xWYBmfXsqeKjr2JrqAanR/vgndCDKYgJ/uLDVOVjCIXAHFG7pD8Nw43wPUQABVDRbNR8pGOUfai2TCgqZCECSibKtd1WIAJKG6VlCjyJjp2ciAZ8uhAyGJOSjJhl6nEFRS/IVm+OQLB9D+7BtE7OyjjjYIMWo6Bz+Q5qnR3EcxhVVH6q2TX/VIDMCaZ6JZDLztEYfHwKieqMAR94JDjpy4PXlTTUBea8U5pH2s3aQQrq8K8uByus0dMcVI1mdd5pAadbjJp0ax6BAv7ETfeeOOdd9756quvfvazn/2bv/kbIaU/NTX15S9/2efzPfDAA05nq9vp/PnzyWQyHA6Pj4/b7fZXXnnlu9/97n333fe2t72t0Wgkk8llCQSbze/3t59r4vp6S0ejI9dXIX7EcgYWDhw8MA6R5bugDeIwCmFQwA19MIThpuwlGacQpKDyQ3gGytjn6bvECY0A3Ar3YQQpe1nsoeZGV1qlO005axZhcfuKMXLwMlwP0bXCFUO6yY7I77I+NDuzg0RTRLI46x0er8IxOAY1SMt6Gl1qozZMgYUo1OmBPgiCF2wYYCg07VRd5ELkQuj21pUpycy9Zvr8RUjBxEErpW3z9ba33X5GmwXa5ElRFCahKKVym5CR3FEoLhlSqFeXQYshTycq8pSj3vUJTF2OrGv8FuIM57ByVjFHnNthcNa+YnZZexaBS0ejqsclHUv84DaVNomouyndKorybE0cr1nU38L+gN/vf+ihh374wx8++uijfX19t99+u6Zpjz766Isvvvj+97//1ltvbZflPPzww1/96lfvu+++f//3f/f7/c8//7yu62fPnv2zP/szu31lhc7AwMAf//Ef33TTTau4vgsi61b0qBCBUAcvGwsW9hYOqc8QXkX0R2BUNuN6W2Xxhp2ij/l+Kh4yCj+C56CIa5LhOQYaeOEOuAsjSMnHQg9lH3WFeZiW5KNG66/be2RcgnNwHHrWmo8iuihL81f7Rpt/00EyQcVDLIW/uC79cklj+ja9FaTPbqISphIZA5o2Kh7KXioeKh6ajpYYZRmWpDyruYtjEaYgbyn27kUMPAJTYECfVC91yr5G4eQlqL8m20LahxVbkOvNQnk7TPfcEJYtMYcSGViE0R145Sg4YQbmD29Ni0ji9MpyJnWjcF2THhfCxk78WbWkBS3sMe68886PfexjDz/88Cc+8YmhoaFmszk3N/fud7/793//93t7e68uh253IBDwer2i9XZhYSEej1er1Z///OerX3NsbKxQWGZVY7/63w09fTxS1s3aqi3sKygwAEMmG9Q2hCqMUw5ywaFVyl4W+qh4WFT4PrwKJRwXOLFIr0YA3gZ3oAVIR0jHqLloKkzBlNw4G3AekjuzjxbhDWjAUIdzNvGAQndq04aNQpCai3CWWBp7szsGpqwtlKgr1JxUPVTcVN3U3DTtGAoorV7beakto5niE+GuYClj7C3dH4JpmIUl2UuwQw7oTciuOl7b2ryOwezh7bMUarOJbRJCXXHp/DAGQbh4GOedMB0f6FrlqV2AJwR8dJnyb0jGX5YGdha9sbDLa7PH84EPfODkyZNPP/30pUuXHA7Hbbfddt99942MjJh7bT/60Y/+5m/+ZjgcFnU+v/M7v/Orv/qr67zmiRMn1uL63UCFBKQgbcXBFvZTdkcYoK7uAvSb2LANhqEHQ6XiYaGXkpekwv+Bi1DC/To3ZIgbJOBdGGfQPCzFSMVp2qgoXJK1OsL56CLMd5dubJd/mNXpN0QV3pDlOva1nlWDScjBMQjJxyidN7q6i2QPhQDxJP4yqo5itDxf1/jMivwBXaVpp+qm5qLhpOqi4Wz9tvVI6eY2CzlTkkwk0tIwBVnr0Hx/0P1huLwrZ7OL0C+n3rUw/iCMw8uHl4GJxeT6HWg+EdF6P/jh/EYtFgduJI9LoYWtdX7bZIWbAWGTXUhDmmO069asomULOw+3233PPffccccdzWZTURSHw7G6LGd8fHx8fLz915MnT548ebL7t9ikvr4XrocpSFqaVhb2Dg7J7EX82bsqu6NCGEblfiDkuofRHRT8LPRRcjOr8DicRyngv8iJdMtY6pfhFLqdZJylBIZKEy7DnHzlJkzAXHcbpy5lHG0mbTj7htQcAE0m5EZlmfXqKCILL0EYEhCgJXCvdtjfDIWKjykPniquKvYmjgY2DZt2lbvrKoZC00HDTsNB007DgWZb+0WFFVQG5iG7alNswhRctuw49g1E2+KAVPzcURThZRiQnR32rTJ+BeJSa/+wQrTGRHfspgfgNEzA4sGX0bNBEMa249SIVSkYm9TujEtF4CSkpC+eBQs7ujwritPpNHfTbi827cOJF05CFOYgZW3kFnaR3/sloeyHCKhydVZXZX36YBC8oEAYhiGO7iATZrGHios34Ptw5aqIfgQGWkS/4SAdJRVHVynCHMyb+OtCd3ahSNuXKSjKE+S2mEYQ4l3IERowC1Vp6WrvEE6kIQNuCEAAfLJNbW0BSpWKl4q39QaKgaK3iD60qnHW+ViG7OMv0TLGyq21CNRgzrI+3ZcIQARKO5/lzUMRvBCRRqe2rb5U31adKw4Emjv81RTZp+SHiYOcpLNDH4zIhX2nA2Nhkt0nZbiK1tph4QDDvpUniZ6YAKTgiiXEaWHn4YRTEJIExdu5t0SY5vbLVGIUTkIA3UYmwmIPFQevwhMwB0tEz3NdGT+MwP+HcZyKl6U4+SC6jQJchLQMMMoyN7ahMIgQnJmAJVnQb8jaUCHhkoQF6IMekyEOHai8SCzFYKxzeGCYzGUcUpsiKLOqDjr65hoKhrrx12lCHUpQklWttQ5dmw1Zml84IMkw3aQpaZMi9MrhnUo26IG5XQnDhN9wCVIQhQT4N2+jq8g49rByfW1XtIaE1bEXkpCWDdkHCCoMSJWFXZueYuz1gxPe2PcCXBYsbDPXN8+BEJw/1FIJFvZ8iU/ACAS7UPGzS2VxVdqInoAgmo10hGQPVTvPKXwXSiiLJM5zXY0g3ATvxEhQ8jHfR9nX8sG9LItcBZO+AAtdjHMDluCNdXfTptQpn5OFRrbOG5gQep+FNAzIdrROplG6bLsU7bCqPA8RwblT6nMrponMKjF4TeYaK7J6tbpcinH1JxTvm4M5yByEdL4BBZiVVbmalJx3yAoxjzx76VRwpZkuiPk4RJEJ7H0bMISldP2uXWqheTIn9bIiEJaed93Ynyk77KWw59FmdbOW2FsN86IQhiYUIQmZVXYQ7WoWRY5tXY72PYwNbHA99G6TWd4W9iBxrHpux9rZDxAUeaIuGp1rcv20epoPJ9dvzwEfnIE5mN2Vc2ELRwdu8EEIBrqQoG7XWY5KAhGFYYwQDSepKAjfGAIAACAASURBVMlEyy3rm1DCPsvABKN1QnAXvA3DR8nH9CB1NzrMw3lTSr4Mr0Oqu4+twWvdpbQ1Kag/IA+m1XUJk2jjW4QeSUM3PBNoS6QnZa+eV5J+VS7ZmFSo6zJUaHa3dovAQLg1LRwoKfQ6zMDsqtClDgoUwA4piMu279VfXBR3Ca1uRVrq2sENPRC5hpKVXeAux2Uzya6dvbQ9uaqwCDbwQRgi4JUuUUrnJx5uZyh9V7g+y9tSo/JQS6wSTTmM275U7XbVOmQgC8U9CuNHoH9Pg2ehOT4OLx3t2n03xKWJuJizmjQcTMKSxfgPK9dHEoghCMDstvoKWTjiRP8kxNapP1medElAFDxgAz8kYAjdTdlDKkYuRErlJ/DfUMA5ycgcA3X8cCfci+6l7GWuj7qbGqTgkklMU/i8prv+5NomhTjbRfkjHSy0VqAgE9LCMUe6Wm28ERqSx2eWz1+2FKIbskJjARYP4Om2KGmowRI4wSHpTgDC0qnUA74OlF0ctuQ6nPOkYRD6tkNjfocg+jVTsCCTu7sMTbatz4IXQhAGrzx6Mo/nBsweal8XsWTtfmTY5v3rQwS6UTlZ0pDdXb7rgNj+uFNC8O0Qt4mvP1oCcAziy8eMHfzy6Pg8zFrc5bBy/fZqFZF5mhnIWxfWwlYhPJ1i3TXzqdAHY7JbSxToH4cgho2Cn8VeKh6mFb4LFyGH8w1OJenRCMPtcDean0yYdJSqhybMwpRMIgqhm/mum3HbJGaz1NmAtKT7A92l9yoyW++WqfowBLoIjVa/9WY/agPykJHlPeWDWb8nSrxOQgBC4JQpTK9sitgwwuyFZIeOvYosABuEaHeR2O5/fRf0QVi2Xe1VNXxTkv5FWUAlqs6CYJcj7XDXiLogtO9bRFTwwCAkIAMTu1jNEtw3MbMKg5A+en263VTSigLaglXmdLi5PjLBPwARmIa5w2vXZ2HnYIMx6O+iLtMmbV6DkkupEIeTGF40G8keMmFqDs4p/B/IomQJXuBElpjBILwDYxzNw1KcpTiajabCLExIhXgDcnAO8pskxFsjJQaUZPvXWNftoaLfV5yf2sApmatZ6FDpWtrfWP4/bc1pDepyERcV/DVTIe+BzlT54JhpsBmboRR+GIXXOgwPTToHB2EQIjIM21eUTgWvtKed3mtNxpqpUGdJ3hTtCHSCBSFwcDifG3ohDJdhfldOhEJr2/rtDYTI28UjU66sQAiOm1xc1nlkAIbggsX9DjfXR+5kPjgFcZiQHjoWLHQDJ/R0kdgWlpCDMCjHr8g5jUI/hkrNRTJBOkJR4UX4IaSxL9BzhWMVgnAD3I8xQM3JYi/ZMIZCHi5BSq7gOsxIucwtsPYtoylPFcY6aOqvE2DoUudnXl5MP/jABx5ZW2mTzQzmT9supBZiO01ZoVs1ecg3D+nepiw/O9qsPkwfJNdtcm1CGtLglzqwzv13EVQIwDj0wxTkZCy3h9CPjNiDSJbbDtRnFuvt9RCVA2bnFgfRAKrum+9ugxgsHI3stRd6pCG90t3A6JOFeVbr5maJg2FomtZsNm02m91uVxRls09vNBqKonR6rn2n1oIoeOEKzFsa2xY24kxu8EMPJNZd1ttSkn2mCld3S7zSCKDbyQdIxah4mVX4KfwC0jgnGZ5lsI4P3gQPoIepeEgmyIfQFbJwEbImnrEE57capgph+y0zFQMWQTEVJm0Ndckyka14wszLaarzacvItFtyG5bB7SYXupHuypeLsAiJfcn1298lDH7IQVYaPFkWQju67oVhBCIHdvD3ggcudq1bsAWI1v/EfhJi8sMAXDzUxEaBGAxvXmPADqPSeNjCZvDKK6/86Ec/Wlxc9Hq94+Pjd911Vzwe7/7pyWTya1/72pkzZ+64447Vnrs7xvXbBO44KDBrZfctdIYwQXRLKclOw6lX6kO75LC1QwgGIYZhp+oiFaMQpOzgdYWnYBqy+CYYXaRXIwa3wlvRw+SDJBNUPRgKGbhgStKUYBYWrmHEOiBwbSudAUlowPFt4gEalC0fjB3b+HthqotHirLjfQ67lGWsQRlKUJS1W1bKZhshupJEzuLgmjmIppdTsuNoJ2DAPEQgsW8ulAhyciaPxUMGNwxA31aTTV44Bq9YrG8TePzxxz/1qU+9/PLLlUrFbrfH4/EHH3zwT//0T48dO9bVLDGM11577W//9m8/+tGP3nbbbbvL9ZHtX6L4eMIS4Lew1ggZhOGNcjZ2GIZRk8SkSIkdhwCGHc1OJkIqTt1BTuVH8DPIYksSneB4gZDBEPwyxhiGk2yY+X6adnSFDJyTGjJCpubKWjqMm0XkmrMaGqSgDGN7pyptoUtyPAiljbiO49qMY3d5Vtpkj3J0ecNGFvJQXa7IbmGzTDECJ6TE00Gf16Ki8nq4AMmdGRJ1uCA7XvYJnDAG+UOXQHFAv8ypbXnTEWcCo3DJmu1d0fSf/exnH//4x8+dO3f//fe/733vq9Vqn/70px999FGv1/sXf/EXkUhknedqmqZpWiqVeuSRR+bn53VdX2en2uGFwCmrESYsl2kLJrigB46tu4KLYrAxCJvWHTv0wzFwY0DNRTJONkzDxiV4qsXePROMzjGgE4LTcD96hKqbVJRshKZKEWZNtL4OWZiB1HYEpVGY2I5trwLnoAID+1i90YpXA5LrrFO4H4LoQbuDimx5t4MLAjAgJWVFvl+oMNWlG4Nusf8uaPEw9O74xrvb38sH4+CEuZ3J5pbgMpzYN9Gy+MrH4exhyV6Lpp0TENmO7gihnJE51FK524Rqtfqv//qvL7300m//9m9/9rOf9Xq9wJkzZ973vvc99thjv/Irv3Lvvfd2qt1PpVKPP/74//zP//zgBz945ZVX1n8j+y4Nox65N1iw4IYQxCG+bvmyD+IwAAFJkoTpZhz6MRw07RR9ZKIU/OQUXoEfwSJKhugkw6mW49Rd8GY0P9kQqRhVD7rCAlwxpfMrMAmz26ceIEQwt0V5tgmTUIBBiFt0f7/CB2Od85pOGD4IBTxd7uI2cEPM5NQm2rjrUIfK3jku7Wc4oQ/6ILCfOk23d1U/Dk6Y3pk2jzkIQs9+unoJKMECVA7FCjYOwe3bYtwwAvX9Yb2yeJ5GA3WHI8VqdgtPunjx4ksvvQR85CMfEUQfGB8ff8973vPJT37y6aefvuuuu5zOtXnS7OzsF7/4xcnJScMwIpFIJpPZa66vS5stCxY8cAKi63q+ilzpSQibsv7CwTQEHjSVQpBsiLKPmoPL8Cy8AXnss/TPMFTCB9fD3TCK4WIpRipO0w4KSbgkV2ehdHkRktuanhGCQoVtSnM2IQklqEHf4coIHiasw257IHoYv7IKTnBCSDZ561CTnXlpy0ldrmZhGIL4YZ+8bhiVZ/jbLlNThwlwLT/j3VvY4RhEJb050FXKnu0+OhYelwac3zvvjjYW7CSdKDvM9Xu28vrT09MTExNDQ0M33HDD1bvh8bz5zW/2+/3PPfdcvV7vxPWPHz/+93//99VqtdFofOlLX/riF7+4R1zfkFvgJExamR4L4IAh6Fn3KNYHoxCTlkZi1eiHMQwnqGgqiz1kIjTt1BSeh2da9ibes4znCGt44C0Y74AgDSdLcdJRNFuLNF+AmhycdVl6sb2MREiaeLa1mrMMF6AEI+AyLcpWpn8/wIBM51EUOqSp3BWMVqT8HfJEbkSq72WOcJeecF8aMa1mhxt26AUfXIal7aa/BZgA944VNIr5q8l12yen7To5KQdEISjrNssHNrjdietpk8J6r+614r79OM7bUHa6ZP3JTY84w1hcXJyfn7///vtV9eomoapqIpHo7e09e/Zss9mROgcCgdtuuw2o1+tPPfXUhlNzZ+aMBlUowBykreyOBfDBTaYFdE0E4YzJWUb44I5AFENFs5EPkIpT9lKD8/AUXIE6zjl6JzhWxw9DcDecpuEhFyIVo+6iprAE01CQ2ccyZGB2Z6TBRGFuaLs7txowCWkIgAd8soHSbjH+vUZ93XPLo3Z3FLBLZfQEZKUKe/2IbQQKDMDYPhZa3aHwJgg3wgxMbmtOVwiUOeG6HWAuGpQgBQtQlKcx/a2T5PX2LMH4ByAGadmw27YlOeKSJMLg8ka4BOU9TPgqoKLsu4yLruvFYrHZbPb29q4oyvd6vYFA4LXXXlun3XazYfh2fWpoSInuGhQgAyVLfscCAC4YWtceUpXybQFTVkBkB0MYCjUn6SiZKE07GXgBnm/pggSmGF6kR8MHt8NtGD1UvSwmyIcwVAowZbJ4bMIMzEFxJwenyPcs7UA+o933okilFHFubmHPFmxYXJfTHOVMh2ivD0BGGj6Uj8wFCcOxI0b0zcxiGJwwJTMs24U5Wq1Y24s5mDQVlwsV0RwEYAR6uyCTQqpyAJqSApVkN0tVehTu53m6QykJBeLggyVIyvNPVYZPNo4ydF1vNBqAz+dbwfWFo1a9XjcMY7tm5LWhKTUZSlCCOjRkRGvBgkAUhtYtWQ5KI6020XfCCPSBG0MhH2ApTtmLZmMCnoI3oIyyRHyC0TwhgxDcCXdjuCl7WOij6AelVY6/JOmFAdNweVeW3TgUYWLHXt+QqvlOOGENsj2CAYWNGrstx3gHJCACfZCVqdPDnQZSYBQ8RzvME/U8SZjfvkNOfQcIojBKX91FqkEWhjbPquzgM+nV1qR6VQ6KpiLSfTVD1Z2cC17JAeagCmFwgmFZbsktorFykzAMQ9f1LRjobivXb9OmIlyGHGiW3aaFDnDBIPR0SBsocFxqSqqy6jcGQxhhsFF3kI6SjVB3UFR4Dn7WSg66phiep7+GG3rgnRg3Yrgp+ljsoexDU0jDBGQlq9BgdreIvghXjkGhO5cZYUYRBC84wCbtbEXYXDUdgK6eZaIJ2Crj2ZvMDKQ36kQsWzdIljqEIQA90ooofXgZfwzCR352CCVHL/TAAsxC7Zpf07/u+fDWUOucnUxA4hq+vio7WAypW9WQmX5R+1DZH1PAvfM9RaoUKtVl3al21J25bTabx+MBqtXqivx9s9lsNBper3dPuT6QgSuQtazRLKwLYaHXSSxS+GmPmVYZYb42ACoGFALM91Fz01A4B9+DWahjWyI2wfECAQjAm+FejCBNOws9ZCLoNpowAVdMDeJzMA3F3Y1InXATzEshnRX1yqKs2SmVy0PrTkdRGqdJK4C0TA7F4TqL6O9hQgZSGw2qFNTBZV0ssb+BF7zQC2WYg5yU7Dw0vF8IDlqSWe1VLgB+GIU0zEMOGpu/3S5p0rTtef1KBybjguPb9Hbt5nUX+E2ZggoUIGeq8m/s+kSwr2tav+2DwUI7/FHVaDQaDAavXLmygusXi8VsNjs4OGju2d11rl+DC9bhi4UuMAKDnbdDoVChLl9YB0BFV8iGWOil4SIPv4AfQg5K+Obom2a4iRuG4Xa4Bc1ByUs6Sj6ErlCAeZiSDKwI8zCxUV1Z3dRN5dk+NXShrd4HOViCEqhSrkSc84rerw23E8dy+VHhY6rtMzvJfUK+q9LgSZE/yG7mbUeti5WwDmnot+7Nio0O/HASmpCHNGQPhTa/sFIOWRH4Kp7ngF6IQhayUJbl7OvYMKtS2jUAvRDbAbJoQL7DqPOvqw29LVPABz7olXq1JTkL2ldmd0asRcH3CPF4vLe399VXX61UKm1tTU3TZmZmFhcXb7/9dofDsV03eUtBsEX0LWyYg1nn9DMGQxCTPFWIVA5AD4ZKw0EmTCpG3cksPAcvQRElTXSSkSwRHQ+8Ce7C6EdzkA2zFKfuwlDIwCXIyZ2jChc3Ej8Wj7wCOWiCAX44vX3Ln3CPFvXKNcn1VVN/0hZe0GXliTtgHubW4vrHdobra10k4XQoWFx/XQoYgwiUIS+5Tvlg9jl4YBAGLPK0btoiDjFTNUtDWi+LVItIgYs/7eAAF3h3jHYb0Fgr0rBLH5jdmQXt866Y9KQrQR7yO69x4j7ajSV7irGxseuuu+6b3/zms88++8ADD4h/LJVKzz77bK1Wu/fee9sBQKPR0HVdVdWtsf8tLUgWybCwPkS3aM9a48sGx2DQdGjogRFIgAtDJR8gmaDqoaHyc3gaFqCGeoXRGQZruCEM74QbIUDTzlw/xQBNO4bSUnlrt1g1YRqS6y6UmtTkmTOldqqQ3AFyZqVPdhrCtm9Nx+LQjhEXtYud2ErxbgiR5vdBAprScbMABSgeBN4vktaD4LWmeRfToZ2wCErC3f5RTFPGHK7v3Ifph8Xl3cMKxKBvL5wxVOkhEIJeyftTkITqDtSg2qHP4vp7hoGBgbvuuuvJJ5/87Gc/+6Y3vWlgYAB44oknvvrVr545c+aOO+6w2VqH/o888sgzzzxz8803//mf/7nb7d7Cfd7SouaXwn8WLKxGBBJr1ZZ4YRQGZRuuAiE4DV4MBc3GUozFHnSFosKz8AOoY8sTvMDJHGFabrj3Y8TQVIp+FnqpudGhoTAHb5hSNVk424H2mVGFecisFQDEjqpe3kGEsEA+3+GOu3ZsM7OBeyONEeUIeGltI/ES5W1uCMp4W5OHyRlpIK3tm1YxYSPQC71yjFlx3Wbv+N5eNAV8cBqmoCyLOX0wtty1cE+iXxXsMtl/UtrCpGT0q23Hd+9t1c3uwYptWIIu2O323/3d37148eJjjz129913v+1tb8vlct/+9rej0ehHP/rRM2fOtHtzf/GLX3zrW9+q1+trumupqmqz2dYp7t8S1xdKKRbXt7AmxA7tXOvfxyEslxUH9MBIi+hX3KRiZCM0VSZl3U4F5yz90wxX8cIwvAXehO6j7CEXIhei4aCmkIFFSMkVpAGFzrTPvNY0ZMHAahQhCz3W7TwgaMBEZ8kj347t2Sq4uuD6busObZ7/mbcp0Yc/KJXLi5CHAtT2qKNXuFsEIAZRKy168MdbBMLyNCkDflMH7T6ZCzbTLChK3y5R2W9s9ZV74OTeidxX1tI5PXqIxWIPP/xwIBB44YUXnnnmGUVR7rvvvoceeug973mPuVzn7W9/u9/vv/766+12+2qif8stt3z4wx8+c+ZM+xxgO7i+MEdY2FZLPAuHAw4YW8voxAMnTBL7Dtm268RQKARIxin7aKi8Ak/CLJRxXuREkp4GvlZ1Pv00XaSiZMPURMWPVH2tS/pegEnIdCHnXJZaUmuWB2hS6MbK0h0INKWUW3P5zmeXkn87lLgSVbaZjeKBgHWHton3iPIG0Z5ehIIk/dXdIv0i8IhABPzgsJaIQzS6RFnRPhdLtUEIgjIyyUvev6k6N5FrO7anZ9dNq/Ozhb6+vocffnhiYmJhYUFRlLGxscHBwRWs/UMf+tD73/9+m83WruC/OiJstgceeOCd73yn0+ncbq4fgnG43EWNhIUjAhUSMAjhVZtfFI6biL4Q34iAHV1hKUYqRsOJpvAUPNuS4HO/wclFeg3ccA/cASHqDhZ6yIXRbS2/9EsmaXMD5mFaOvNtCLGmpzsspsetpP6BghtOwghUoQYVALzgB9dOimnYIQ6pdRMf4X2TIzxktMwJYalZXpbqLoWdIf2CYMUgBG5wHnXLz0O+lx2gyCQEfbLIbbGL8W+DBPRDcK813LyWB8VV+Hy+06dPnz59uiNhcblcrrWbZRVFcTqdq2OAa+b67eEShoswb7nkWoAEXLeqwFGFCFwHAVm1HIFTGH4MlbqTuT4KQZqwqPB9eBVq2NJELnKiSBDi8Ha4Bd111SRLhyoswLQkWAZosACvbWabt0tV+3loyJJuN9hBBa9cTy0clO3ZI4u8V2+KO7rjJsAOlyC7Ksi0QRROWfX6O3bx25rloqnXgKo0oChKOSZ980UOiiyVdkMAwhA2FWJZy4KFdSDaS/KwCDWpIxSEILjlQdA2DqH2FAjDiBTsF0pW7Qo3RWoZ+U0jWdnryWuX+6yFnYf9mm6VU9K43XcpsrCv4JfetytGyDAMg1dO7H4YAh+6Si5EKkbFS1XhZfhxy1TRMc3gNMO1lnz+O+A0DQfZMMkemg4akIRpyMvOHmFAmIWZzefzFHnIYOHQkL89edMoeOEiJOVJuqjt6evQu2Jhh269IoUL+6EuRTxL0nKhLtUVjQ7k3gFOcEkVwhD4LP8KC5vEAlySR4ttzIJdln6FILDd50Lt8e+T4sLCqVc3EWtrxba4/jXFlAPgk+KGlo3uEYQHTq11GBeBE6adcgDGwIEBmQiLPTSdVOFJeB7yUMZzhdF5+jVccBLehTFKzc1SjGwEzUYZZqR6OtCEFExDYZUlrQULuww3nIIA5MAJPukValV67BWHaNde69J2ug5VaEo1d2Hh1BZxF0TfDS55uGfBwmahw/Qqoo/csJKQklmA4R3m3+1TLwsWtmesCSMk0QA3CxmL8R8Z2GSNfmStGv1TcnwJAeNj4EBTSUdaOfo0PAUvQBVyhC5zLEXMwAm3wNshQcPBYoJcGF2hAhdgSSYqNJiEKatB3MK+gQMGoVdusVbKap+QfpuURhXpAEOmPA35AHVXdNwtHAUYG5U061CEy9CAU9aQs3CAuH47idIDcSjDAizJDIqVbT2scMJJ6TaymuiPm2r0R2EUw0HTRjJBOkZD5Qp8Dy5BDfs8vVc4XsUNPrgN3o7hpekgmSAbwVAowwVYlItpA2bgysF01rRw6GmlhX17g9p/WrfJwk5AhSE4t9HDhIVLAPosum/hAHF981YnJGCHTaYPFYuTHbot0wNxmcJcgRiMSqJvg34YBAd1J8k4mQiajdfgW7AAdZxXGJ1hSMMFvXA73IZup+Ih2UM+iKFQgLNSnMuAPEzC4kbpE8O0r1uwYMGCBQu7sDkm4ArUNnpkHeYgKPvZLFg4MFzfDMHc4rIrPAs5KO+R74mF7UUERiC41vAJwfUm66IhGAE3mspCD9kwuso5eBySUMQ/xdAcAzpeOA13wCiag4KfpQRlL7pCAS5JaVdDmmSlO/P7dkOS0N4WjUouq/rWggULFizsPJzQD1e6eGQW5mF0vzbOWrC4frcBrl02qCWgCiVImaQqLBxE+GAUYmulItxwwiQlHmpZdRiQipILoatcgG/DEpTwXeBEmpiOC26FeyFE004yQTZMw4mhkIELUJBJ+hxc6OxbZEhxfdF7J2Q3RL9dCAbWUmO0YMGCBQsWthEq9EKmC6MoDVIwYHF9Cwea65tJvwPskvSPwgIkoWIJ8x80ROH6DmeOPhiHmPxrGK4HB7pCOkIygabyBjwOs1DAd47rM0TAB++Gt6A7qTtZ7CUbxgBNoQCvS0ED0fA0B6l1P15a1vSbF9MqlMFrcX0LFixYsLDzhCcAb4IczEtr9hVKryo4oRcGwWVdMgtUKpWlpaVyuex0OkOhUCgU6uSAu4+5fnsCADbwgw+GIA1JyFlSKgcEtpY6/tq/GoCYLJXxwhj4MRQKflJxNAdT8C2YhRKec1yfIQpheAfGbeh28kEWe6i5MRRKMGXyaDOgDElY2Oon162jJAsWLFiwsFtsp61WUoSULGA2JNH3QQz8VnGpBYC5ubl/+Zd/+Y//+I/FxUWPx3Pbbbf9xm/8xj333BMMbluG0r6XM6Ef4pCW+VqrlH8/ww+9EO3w2wHol8uW4P1hUCh7WOyh5qIE34FpqOG8zPEMEQjDffBmdDvpCKk4dReaQhqmIGMaD0V4A9JdaLl2WjcN6wTJggULFizsLlQIQkDm9VfIvFqwAAsLC5/85Ce/8IUvDA8P33PPPdVq9Tvf+c4LL7zw8Y9//H3ve5/H4znIXL8NB/RAAJa6a123sFfogZEO40V4ZrXNQftgEGzosNBLxYum8GO4AE1s0wwu0gNuuAfejOEiFSOZQLNTU7gii7sEQa9BCuYgfW3irRbXt2DBggULewLLusFCJ25iGN/4xje+/OUvj4+P/8M//MONN97YbDa//vWv/9Vf/dU///M/33777TfccMOh4PpIAcchCMN5yO6YJL8CEXCBU7ZstqFBRXZzmq3ULQgEINZBkVoI77hMvP8kONEVFhMUA2gKP4efQhNlgd4pRrSWW9btGE4yYRZ70OwU4Zy8+4Ka5+E1qG7mwCcAGWiseoob4tZdtGDBggULFo4Y9Dp6BWOH6a6xldKUmZmZxx9/PJ1OP/LII+94xztEjf4HP/jBF1988Utf+tKPf/zjU6dO2e3b8Mn3R/u3IttZrpOEbyfeIg43dWGh0oQiJKEMGtShdLTri5wwCqG1MhN+uA4CJt4/Dk50yIRJxdEVJuFpyEOW0GWONXDCMfhlDCf5AAu9aDZqcMVE9KtwARY2acCswAjEIAlpKIAGCrhh3OL6FixYsGDBwtHD0lkuF1B22D/Pm9nCky5fvnzu3LlwOPzrv/7r7WbccDh83333PfbYY0899dQHPvCBQ8T121zND8fhDShu6yurkICx7vpg7BCGoJRpr8I0LBzhIhCHSS9/xf2KmWIAJ4yAHwOqbtJRNBtpeArmoIbzEmMVfNAL92P4qLhJJmg40RSmISmJfhmubJ7ot2+00HjthzRUwQZBiFirnQULFixYsHD0kO5n4oYd98o+8cIWnrSwsDA3N3fmzBmX66oek81m6+/vj8fjL730UrO5PdRzn8m6qhCFk/Aa1Lc1ioh2IKzrfBJVMt0T4IUrR1XLRekQI7kgbpo+EYiCgqaSjlD1gMJT8Do0UCYYyRIBP9wJo2g2luKUvRgK0zANGhiQks5Z2rV9YA8MgGEVSlqwYMGCBQtHGQk4sfN0173ZJxiGUSgU8vn86OiooixjKoFAIBqNTk9Pa5q2LR9u/wk+qRCHk+DYvtfUIL/VxLyQDBqGsaM6TWwd4mFzvtwN/eDAgHyQTBRd5Ty8AE1Ikpin38ABN8OtGE7SUXJhDJUFGUQ14TK8DJlrI/orQhSL6FuwYMGCBQsW9hk0TSsUCoZhhEKhFVzf6XS6XK5sNmsY29M5ui/t2pQWcfx/7d3LbxNZj6bRBQAAB5pJREFUFsfxbz0cv+IkxM6DJCQd0cOMuke00JAF6gUZIaRZsGMFy5aavwDxJ/AXILHKjv+ADSzZjTSjaNSagYEJBPIA8nIedvwox1WzKJenDJgJiQ2J8/sskDAmZa7L5tx7zz2Hl7DbojOye4fLua981KTp5Ih9ar5qwlhoDpCpddJ1IqwM41lswiOowC7JJc6UazVWf4Yo5S7WBnBNcjAfHINeh4WWbuaIiIiIHEme5/mhfCTy4dq2ZVmRSKT+hA6N9QlW9y14Ddlv/obA8j76XXeqT66O94Zq7cfhOzCpmrUM/Ar8vdYLy3rP8Da9YMHPMMCeVSu84/fB3QXAgTVVXBUREZETwTAM/zxuPp//IKavVCrlcjkWi32w3n+YOO4Ih5j9cK55/6avxk8BOrGleD6ZUTMeWtQfgzhAMU6uB2AlOHCRI7XMiIsF5+CPeLDdQy6FBzvBeVwXNmC98eeXoRQk8YuIiIh0EMuyksmkZVnZ7IdL2uVyuVAoZDIZ02xNlG4f6ZHwK/P8AC9h5XDR9mFCRueknsr17QWHXOtiUO/cHKmVs3QNtnuo2Djwb3gHHswz6RCFHvgzXoxinGyaqk3FYCHombULc6HsHQ+K8B/YhijEIRb04o3ry0FERESOPcMwMplMOp1++vSp6/4vwPU8L5vNrq6uXrhwoSUFNznS6/r1cD8Ov4c/QP9B5yYW9B1iXmMd9TlRe3kfLe3HQjdOb+0UtdNFMY5nsgO/QRVydG/4Wfz8CKfxDPIJinEwyIUW8peCoL8+tXgNq1CGHViBN/AKXumbQURERDrExMTE2bNn5+bmlpeX6w+WSqXZ2dmtra1Lly59nMrfobG+LwIj8AN8D5nGlrf7mS0MwOAhiqtGIX1shqr13M/G+t21iVAlwl4EYDM4xpytZV/5b14M16KYqG0Q7IQmEjuN84p8kxMazglucSAiIiKdZXJy8uLFi7Zt379/v1Ao+A/Oz88/fPgwk8lMT0+3KtY/PuvV/gL/GGRgB7KwDqX/97csGIXRA1Q+bTQIi43LzyfHHpQh2iTWT4CJBxWbig3wKih6tFkrydkPw2DimhSDLJx6g7licDy3Pq9YbzLO/hxgUF8OIiIicuylUqkbN248fvz4wYMHsVhsenp6d3d3Zmbm2bNnN2/ePH/+/MnI128W8ccgDeOwAWuwG+SUe6GnmdAN38EpsA5dZz0G/bB8UmP9YihBn1BlHj+7ycAzcLrwzFqsD5SIFfFX8TMwAFCK4kRr8b1f1MhvnhXeNPhMbdMSrELfF+7qEFzIhT2oQgUMSAT7PCrA3w5e8Kv3qY+woZEXERFhamrq7t27t2/fvnfv3szMjOu6pVLp2rVrd+7cGRgYaNVVjmceugE22JCEMdgDB0pQgjLY0A1xiLauKbIBI7AJDrjgBq+hnstuBY93nmrj0WQjdNfEIFpb1PfTc7KwBC5GlrRDF8ThHHTjGmz2g4EL74JBq8BaaND8Pyo0eRlm8EYfINYvwgvYDnYcTBiEUUjV5irSshC/EnwYi5CHPDihG8aGfkhBonF36EhNUXQ/iIjIV2Hb9vXr16emph49evT8+XPXdS9fvnzlypVUKtXKqxz7cTKhC7qgu80X6oUfIQ9lcMCEFFShDHuQgAK868Sc8i5IhH6bhD4wwYKh2rBvniLfTR4eQwm26V1itEIEzsMFXNjqY6entpD/Nlhofw9boUB/DRaavAa/L+8wJA80V1mAtdAj9UsPwgik9G3TCiXYhCzsQKn5ByELEeiGURg6MuG+Bw5sQRR6Fe6LiHQCwzBgHV61bum3SShqHqpD0Pj4+K1bt9o4o9CtsO9bBvqgL7SWbweBowcmVCAOLzruHx4NzaMMSEMqGI0RsMkn2UjjmPwNnkKJ6Gsm8qTgDFzBS5DvZm0A16AQHHvwIAfLoR2D3eZ9c234/qCnq11YgrdNYtNFqMDvGk8jyAGi/A1Ygdz+Oh9XYBOKUIWRbxru+0fDq+DAOmQhCmdgUF+NIiLH3tjY2C+/bCwtvWj3Es5PP00d5XGw6//luR5V9S3aJysYNUL5x5Ej0ParHTOcniBbCYjDIJhgwiR04Zi8G6Bs8qLKX6EIb5jYIO3RD3+BXkoRVvsp2uy5LMJGkDq/CDvBj63CSmNBnrB0UAfpS+9PD1ZgoUk7MP8Ja5CCsRNcZ+mQivAS1r98R6sECxD/dp8af3tnPmjZ5p/5KcMcGDCk1X0RkbbxqnhtDzpPnz7966/94er1bdKqgjltjPVt2zZPDT583v1bVXff4RTan0r0lfkpUvUimA68BKCn9mAuxW6SssG/4C1UsLdIJNmEfvgH3j8pJGuNch1YDLLzHXgTit3LkGvMFApLwvaBAi8HVoPzG5+xCZEDHQOQKmxA/qB1rgzIfrvWyHlYAyuYuof3dt43nksREZHWcp2+6JtU6k9tvYhlWYlEQoNteJ5XrVZnZ2efPHmi4RARERGRdhseHr569erQ0JCG4mvE+hoFEREREZHOoyRlERERERHF+iIiIiIiolhfREREREQU64uIiIiIiGJ9ERERERFRrC8iIiIiolhfREREREQU64uIiIiIyHHwX/t0N55bhaVXAAAAAElFTkSuQmCC;" vertex="1" parent="1">
          <mxGeometry x="81" y="61" width="997" height="316.65" as="geometry" />
        </mxCell>
        <mxCell id="ZQ0hPMz2IrMJyLbx8Uxn-4" value="" style="shape=image;verticalLabelPosition=bottom;labelBackgroundColor=default;verticalAlign=top;aspect=fixed;imageAspect=0;image=data:image/png,iVBORw0KGgoAAAANSUhEUgAAA/gAAAFFCAIAAADXctFCAAAAA3NCSVQICAjb4U/gAAAAEHRFWHRTb2Z0d2FyZQBTaHV0dGVyY4LQCQAAIABJREFUeNrsnXl0XGd5/z93nVWj1ZZi2U4ciO0kNEkT0rAlUJaUAKVNWAuFlLZwSuCQkJbSpC2/thBSoBSaQkuhCyRAWU6hBCgBzFKgBpqkQAh2AvESO7Yla5997vr74847vqPFlmzNaCQ9nzNHRx7PnRnd+973/T7P+yxaGIYIgiAIgiAIgrC20OUUCIIgCIIgCIIIfUEQBEEQBEEQROgLgiAIgiAIgiBCXxAEQRAEQRCEZcGUUyAIgiAIgiCsdoIg8DwvCIKWq2fTNM3VIaFF6AuCIAiCIAirnqNHj9776U/XjhzRWvxBfU972nOuu06EviAIgiAIgiC0g4MHDyb/9V8v27PHaPEHfXT/fhH6giAIgiAIgtAmgiDoCcNhaLXQ11sfHbRsX1WGhSAIgiAIgiCsPUToC4IgCIIgCIIIfUEQBEEQBEEQROgLgiAIgiAIgiBCXxAEQRAEQRCE5UGq7giCIAiCIAhCWwmCIAxDXdc17dR1/8MwjF4/9790Xdd1XYS+IAiCIAiCIKwkYRju27fvZz/72cTERKVS2bhx486dOx//+MenUqmTHFUoFL7zne8cPHhw7n9dcsklT37ykw3DEKEvCIIgCIIgCCtDEAR33333Bz7wgT179hQKBc/zurq6tm/f/rKXvezVr351d3f3QgceO3bsjjvu+O53vzv3v974xjdefvnlIvQFQRAEQRAEYWUIw3D37t1//ud//sgjj1x55ZXPfe5zc7ncPffc8+Uvf3nv3r2mab7uda9bSK8XCoWRkZH+/v5rr702kUjE/+tpT3vaQkeJ0BcEQRAEQRCEllMul//5n/95z549r3nNa9773vdG/vtXvepV//Iv/3LLLbe87W1ve+lLX9rf3z/vsfl8fmxs7KlPfeo73/nOrq6uxX+oCH1BEARBEARhLXAMHgKjxZ9SOa2j9u/f//Of/xz4wz/8w0aUTiKReNaznnXppZd++9vf3rt379Oe9rS5B4ZhOD09PTExcc4555jm0qS7CH1BEARBEARhLTA+QOqclhePd5Onc1Q+n/c8b+vWreedd178+Vwu19PTAxSLxXkP9Dzv2LFjruueffbZuq5PTU35vp/NZhOJxCkr9ojQFwRBEARBENYC2zdwqYmhtfZT7kuczlEXXnjhP/7jPwZBMMsrf/z48ZGREV3XN2/ePO+BjuMcOnRI07RqtfrWt7713nvv9Tyvr6/vBS94we/8zu9kMhkR+oIgCIIgCMIaJ6GRMVou9E9vx6C7u/vSSy+d9eShQ4c+/OEP33fffc94xjO2b9++kNA/cOBAGIb/7//9v40bN2YymSAIDhw48I1vfOOLX/zi+973vp07dy7k2pfOuIIgCIIgCILQWjRF9M98Pv/d7373rW9968c+9rGLLrroL/7iLyzLmvdA3/enpqZyudzzn//8T3ziE9/61re+9rWvvf/973/CE57wzW9+8+///u+npqYW+lDx6AuCIAiCIAhCm/A8b8+ePR//+Me/9KUvHTx48Oqrr77xxht/5Vd+ZSGvfDqdfu1rX/vyl7/86U9/+rnnnhv1wf2t3/qt3t7el73sZbt27frt3/7tpzzlKSL0BUEQBEEQBGHFCMPwU5/61B133PHggw8ODw+/733ve+5zn7t58+aT1MJPpVIvetGLwjA0DKNhDGia9uQnP/mJT3zi9773vcceeywIgsgAEKEvCIIgCIIgCO1mZmbmgx/84G233TY4OPjmN7/59a9//aZNm+LxPPOiadq8ZoBlWcPDw67rFovFMAznPVaEviAIgiAIgiC0Fsdx7rrrrve85z2XXHLJX/zFXzz96U+3bXsxBx4+fPinP/3pli1bdu7cGY/jD4KgWCyapplOpyUZVxAEQRAEQRBWhkcfffRzn/uc4zjvfOc7n/WsZy1S5QMHDx78/d///dtuu+3o0aPx5ycmJh544IEtW7YMDw/PG7eDePQFQRAEQRAEodXs2bPn4YcfHhgYyOfz99xzz9wXPOUpT4k6Z33mM5/5/Oc/v3Pnzje84Q0DAwPbtm0bGBj4yle+8ku/9Es33XRTVDh/ZmbmPe95z6FDh17+8pcvVJdThL4gCIIgCIIgtJYgCA4fPjw6OhoEwUte8pJ5X/PNb34zKp6zZ8+e//iP/7jyyitf85rXAENDQ3/6p3/6R3/0R+94xzv+67/+69JLL3Uc53/+538OHDhw1VVX3XzzzRs3bhShLwiCIAiCIAgrgO/7GzduvOaaa07ymsidD2zfvv15z3vehRdemEqlANM0X/jCF2qa9slPfvKhhx76/Oc/r+t6f3//q171qhtvvPH8888/yXtqC2XpCoIgCIIgCMJq4Tvf+Y51xx/8yszeVnfGvX3w12+56+4lHRKGYa1Wq9VqJ3lNJpMxTROoVqu1Ws00zVQq1Qi+931/bGxsz549MzMzuq5v2rTpggsuiMJ4ToJ49AVBEARBEAShhWialkwmk8nkYl487ysNwxgaGhoaGlrS50rVHUEQBEEQBEFYg4jQFwRBEARBEAQR+oIgCIIgCIIgiNAXBEEQBEEQBEGEviAIgiAIgiAIIvQFQRAEQRAEQRChLwiCIAiCIAgi9AVBEARBEARBWMVIwyxBEARBEARBaAdhGHqeV61WPc8Lw9AwjGQyadu2pp26na/neZVKJTpQ1/VUKnXKA0XoC4IgCIIgCEI7GB0d/c///M8vfvGLBw4cqFarW7Zsufrqq1/4whfu3LnTsqyTmAfHjh3btWvXZz/72f3791cqlY0bNz73uc+97rrrzj///JMcKKE7giAIgiAIgtByHnvssbe//e1vfvObH3zwwS1btuzcufPQoUNvf/vb3/jGN/7v//5vGIYLHXjkyJG3v/3tb3rTm37yk58MDw/v2LFjYmLi9ttvf/3rX//d7343CIKFDhSPviAIgiAIgiC0liAIPve5z33yk5+88MIL//Iv/3Lnzp26rj/88MMf+MAH7rnnnne84x1f+MIXbNuee6Drul//+tc/8YlPDA8Pv+td77rgggt0XT9y5Mj73//+L3zhC//0T/903nnnbdmyZbFCv1arjYyMOE5tef+8UK7w+kKTUyAIgiAIwvJimebAwEA2m503Nt0LqQUYLdYgp6dpDx069JWvfCWfz//xH//xc5/7XMMwgK1btyYSiYMHD+7atWv//v07d+6ce2A+n//MZz5TLpff/OY3X3PNNVGgzrZt2wYHB3/4wx9++9vffvjhhzdv3jzvCZlH6H/jG994z9/dbKQe05YvrqcKU1CCQEboYmw+dBczRA/RAjTQArQQLVLPGmH8ARj4Jp7efHY9zBqJGna4MgFaGmTBAhMMsEAHA3SxAYTOvfMI1c8QdDBluAprn1DDtfANfGP28/XpPKz/bDyi/40e0e/x1zR+0QNMr/7Mct6pOr5BoBNqWC6GL9dw/rPUdI2iC6qduLLx/z2xdDdfZT04cSlP+zpGnxLo9d8DjVA/MWwMH8NHX4I8zFbct1z9Gzf8wR+kUqm5//t/Lkdq6C2euadO62SMjIwcPXo0mUy+4AUviFQ+YBjG+eefv3379p/97Gf79u2bV+hXKpUHHnjgcY973KWXXtoIx9c07ayzzrriiis+97nPTU5OLvSh8wj9gwcPnnfZ6G/fXLLsZbN7KvAoPAL7YRICCEBXDwM00MEFR3z/EECNpIcRYATojUd0ZnRCnUDHj37RCC2cBM6sUe1i5tGnyBboqpLyMPz6mY4uShvUfy+kIAlJSEMCkmBDCjQwwVRaygILEpBQhoEILKENODAKk+Cp6ccFFzzwIAV9MAAbIAVxDeSDB76a4YLYUQb0gSUnV1hNQt+xqSZw7CatH0nAhsiL1JgRoAUAgUGo4et1DdeQg9FipQdoAaaH5S7/XB5quCaeRaiRqGKK0F9Y60eqOtCapD9KeQda/Uk0iK5giO7X3YzR7w0ZcoZCMNAJdXy9bqdF30QLSTiYrhI4i6L01f959L5jnufN+7+P28kTrJYL/YemTueo7u7uX//1X3ddN51Ox58vFouFQgHo7e2d98BUKnXttddu3rx506ZNTVc4CMbHx9Pp9Lw2z4JCH7As0l3YiWU7I1kYgAtgFMbUCtkQdA25V4VROAjHoLi+b0+b6hm+g4mXZKqfmSpJh4SH4WKFaEB0B7tYDnaNRIW0g+VhLbf6L0Ah7ihQlp0Z+0WLjYJI69uxhx47NgE90ANDkJIJvAMkcg3K4M2xUp0To5g+SM1J+negCD64EEINfKiBWzdyATIwBL0w19/gq0cAVZiGSciDG5tsBiDXPNHpzV+yAPvg53AU8hCAF/PlB3WbmgTkoA/6oQtMCKEMFaiqvzRUuj+a2Aw4C86Hx0FSBoqweuS+D5Um/26oZl8aTv1Zd+Icz1zTC3Q1k7cUuctOW3qf/ApqatVu3ReIPttasmcklTyJ9difZksGo8XOTGvmdI4677zzbr311llPuq67e/fuBx544KyzzprXnR8ZAH/9139tGEYi0STNv/Od7/z4xz/evn37pk2bFiqy2b5kXA3ScA6cHRtXWvO4CsGDGhRVnE8kARzlapuCKZiBAlRjw2TupDR3KDHfYNYWeB6lQHXw1JvEH6sCDUyCLGUoh8Tv6LrcjxS/j+5juFiNR6hOQ4DhYkYmQZWki9XYFgjnnLyw6eQtNK34SpCd5Fs3phitec2ITIJuGIYtsAG6IANW83XTFv4OMHtiC5VgTan4olnvcPI/6pTvz0mWwc6b92kWuzWoqhuuoG47F8pQUko3WPjP1yAD/TAIBpTVgWV1f4fzPaI3NCABWUhDl7rQDozDlJLUQcwH76vPjQaJDdnY2TYhCdH8WFFXPA+1k4YTBlCBCow2R50FsS8/L4fhQTgXroQtsQNlk2oFB/a8q4RckblTb3g6Rwmr/boLbcE0TdM8IbzDMHRd9+677/6rv/qrQqFw2223dXd3z3ugruvZbDZ+YKVS+da3vvVHf/RHYRj+5m/+5kIWAu2vuqOddFBpyvzvOumb+GqhjnRHZAl4Sj9asb8qgCnIgw9a7L8aH5QBGyy1797wJJuQUQ7nSAk6MANjMAFlpYAcJV3DOb8E8/3hxpxHQwJEv5SVV9NXaiJQS1M455e5a9cpBabWdER4wiuziKUyQPMxPKwALVL8jf0BB9vFckjUsB1sh0S01eejq0yDxYfmh6fSygV4DH6oBnAUERSlAaQgBWnInNTr7yqlGPmDj0EZLEhCN3RBd+xNbEgol4PZ/NDUhWpcc09pR0894r5hW11zU/3TVM+0lGC+IUnsu3lQgRJMwyiMKHFfUefqtMnDMXjwtI4tw2lsjkaXoHRax5581vGXcsKL8ADsgctgizJUbDWcGpdeaJGfMloQopm7ClVlFgZqps+qqzArVtCIRZU2HiKFBEFY1nkqDPP5/E9/+tN/+7d/+/jHP75hw4Y//dM//d3f/d1G4P5JKBQKP/7xj++6667PfvaziUTi5ptvvvnmmzOZTKcI/WXBgDSkYaBdnxgZHpvgfOVyDJS94Sgp1Nh2iGIavDk621Qh6gm11CdjvuhIpk9DKfZWrrJh4kIjiHkvUdsgkRXhqs2QMlTn+xpnYqEZhAaevfBbhvUvYzokXMxI/XuYHqaL5WP6GB6Ghxn9rmI546nGS11QIzFdWo4/MRK7s9RhPJHEVuOuYUto6lrVVORJGaZjnukwZoUZSk9YkIZu6IYMZCGjchis5mglY+ELGDTrTm2O/egoD3pVDQonJu4bf3Jk/5ZhDMahvBQ5KyxmUP0Qfqg2GVKQg15lT+YgCylw1VTcsP1N5YLQm/clwpjt3xgGDUUb+R+0WOJ7I1KuYa+axHJ11gpVZamWlL1agCJMQx5K6j6alWZtqJux4SzQVJqQrfaUEjHDrPEzXlcgfjKt5mWKmA+H+aIgomf82R6VE8+EsRs2UAZMGNvOCmP+pWCOtROPizCbfRb2nHg2QVhFxvzqLuwShuFDDz105513fupTnzp+/Pgzn/nM66+//nnPe14ulzuFDykIDhw4cOedd951113j4+OXXXbZK1/5yle84hWzIv7XgtBfWRqSympBbGBmAfXM4jz6kY+6HFv3CjADM2pno9LK+0Orb5U0GQMqICPKzIqy6+uPEM3DCGLJPtEvyhLQPUwPq2EbBCvgWgtiJ6wCM2fwVnHJPgGHYwagrbYOzGahry8su8Nmc68RaNaQd64aBY6KgJOSVyur+D0owwQcUNcrAWlIgqt0YVzoRxIzvuFjK7u+cd0jlV+JeQZqsWQYvXm6smOZ8ZGlGn0HHSwlHB31JoH6LD82UCNzd250pBczORpPOmqJiUvetBKdVkw0o76Dpm6BSMLGfe2R691TLvnIBxJZ5hMwqTagGi4O/1T3taNu6vypJnstlkTUKCAWP71z11Mt9nvjpp67d6cr/wxzLLcwNnLC2C0fl/XeiTDrptlg1vwQ/+Z2zNcQmZ0ZZW0ayqSx1Oujv73hWQqa55C4GemrS+bFps1oI8VTG+qJWCZMdDuYagzY6nPN5pMZjeQwdq6M5ZvY3Viika/i+ohZwkbM3hZWkEC5UstKzkzAj2Fo9f5J991331ve8pb77rvvggsuuOmmm573vOede+65p/TlB0Gwe/fu9773vbt27dq+ffub3vSm5zznOdu3bz9JT1wR+qvGrliStk1Bb0xh+7Egkkj6R26uaRVzHT3TCLWeG826TN8/MOqr0TwmSiPJK2yu7KVKAGhRySAPs0qySLZAV4WUi0V9K2DWB64uz0Skz0oy1NeZR2oxm1Fzs0TCBW+gJdyOcc0UT0oJYgVGac5I0pofC/kigvnmD22Obm58DW1Odo0We089ZsHGhb4bi22claHRisvEqdKKWMRFXOTstNQLeibfSm/eBqS5BlrDQmucBK/5i+mxLZGSMg7d2EDym3ef9DnZOFrMKNXUpzewmoV+Y68yqTb1bWWqRThz1hdrjsKxVTJ9UcUlOmrwaLHv2TBjLLUNkoIsJOfUkXNhRpmXUZBY47zZMbPEVt/EVadIi1m8OUjFis5Z893ynjrJ5djZjvsR3OYNHCP2tmbs7J1yMTKUPY8yLB31X430ySIUoByruzBLg0TnKqvMyITaSkos/NGh2hjPqz+wohyVhVgMnqdE/yhsXKW+/Pvvv/9Nb3rTz372s+uvv/6GG254/OMfb9v2Qnm08QN/9KMf3XLLLffff//LX/7yP/7jPz7nnHMSicQpDxShv/YtBD3mjpi3aJMfy68sqJ8Vdc85sV+8WNqAP18AQTCfMzxYrJBZwgoXgofuYZVJV0iVSddIVEkGsZ0BD9Nv2lWv9xyY81aSJdm+KS4q2hzVe4tX21aDIUS1iZj3SoXNhT9iLwu1JdwXs9tQnEp2RRkmRB0t4rZo6y3MZZd9jaAyb4XGgLsOh/1yO0+W61v5EqfXScyqNx0ljCVUIlleLcJLGkJazFTWFiH0A3VIIwMtbM49PD2M2O6cpUR/o8AaqrSKu4haHXF9sSorsU9OTr73ve+977773vWud914442LiciPyOfzd9xxx7333vvWt771lltuSSaTSxpbwrrGUPFCPQuIgkaeaSNnoJGKEKgbrhEjHL/zHChBHgqQX9j8Pz0bxiKwqKWoRVH1AUSxQFGZoCqpIpkyaQdbbyreG8yZ2AwP08WOcgm8eliRVPGPznNU7jjqTBMY+DGNHtVYrutdbWGDTgOdwMSzcCxcC9fG0Qlipbb1AF3V4q4/5jiNNT/WUCLS69HVjN5/8ZO+iR/9LVr95ymXPt3DbMSV+WpzKVCrZojmY7qYPqaDXSURSvqmIAhLw5tjfh9ZPsN+ZRGT8gQ/+clP7r///oGBgeuuu25iYmLuC3p6emzbBn7+858/8sgjfX19F198cSqVGh0d/dKXvrR9+/ZnPOMZ+Xw+n2+KOdQ0LZfLzaq8KUJ/PkUSoAUEerPdG6IrFdHoMnFGi7hSK4aKTKfRKk5DC+tla4yAQMcz8Cw8A88kMAgaX4Az/hqL9gbopxWi2Mgpq6oYobyS++XmchhOc52iILa7uXh00OtTiZek1kVpgPFIkCl9X796c1xtmo8eywQwXKwaiWiLwMH2sPx62oARrpcyKUGKajfTXRRsHAvXINAIDNV8RQn9eoMc6lL7JFcnMPFMXF21Zpm7Fi1yOM8KJWk/KuxAi/Wei4wBy8dwsIpkp+ktko22mGReFQRBEIAwDA8ePHjkyBHbtm+88cZ5X3P77bdfcMEFwJe+9KW///u/v+KKK/72b/82lUo99NBDk5OTtm3ffvvtc3tjJRKJt7zlLZdffrkI/SZ918BySJdJl0lW0QN8A9/ENfFMLBfbaequ3RR8EKtV6Zt15+dcovRSvdExMF5uJtZKHCV34h3oopZ2kRkQSS1ivat9A8/EN+otAj0DoieteqvpeZR726ymWKxfrnlzwJ9TKiJeM8JX8UIFlUswBZNQXKL618DEN0/tSAgNgjnZw5rqAFm/SlG7sQqpGolGV4FoE0AjNPGih4Vr4oX11gSmgxVd8IaJF9keZ9yYTFvyKF/E6zOUupnJUEpTTlFJ4Jh42lKiYs7EnmzFi1v5bWelxNeHUAi9TA8x6mJWSE3TM0lfkWyz4hdnvyAIwrrD87yJiYlKpVIul+++++55X/OWt7wl+iWfzx85cuT48eNRA+ADBw4AIyMjIyMjc49Kp9OvfvWrF/rcdSP0w1gDbw/LIVkjUSVVxXIxOjXWS1/6tltA3eRw7BMP16qHX4R6U4Ry2yTHGW4O+FCAI7APjsKMakzqt+qrhvoidhsDCNA1QmMRqjpqRBCZeA6JCkllLVi+sv5CNBUfYnJij2LWhxqxGPGwIcSb+wCdiIPXY+E3Br6JZ8x5Wwunj6k0ZWN1Rj12DtHgSeAkcLKUNzARss/BqpAqkp2iNwona5SXFd3fzjUgnpURz/eInuyAdJ0QQl39jG8/quIE+tzkEI0wtl05e98ynCerRMabIKwMhmG86lWvuuaaa07ymnPOOSf65fWvf/2LX/zidDo9NDQEvPKVr3zWs5614NKjaVu2bFl/Qj+KKlClHE2PRI10hUQVy0P312wBYR30ADMgoUq5hBBo+AauhR95ng08E9eqB0RHqjCKwq5vBYT1jYtOWBSizKBe6IULoQaTcBQeg1EVDlRbvgSApZ3qRdthqhGBD34Ct4vi7BUeaI6HmTfwPdouiHYbIoMkLlNikeuRUNA4sSckK/zKjN4EbgK3h/wwR13MCukS6TLpKsmoYmxQD4Wq15xtPKKKtMrA0xeY5OpZCjq+rq5+RKxdndboWxeyVgdCGJ0ES22vGXhaLLfbqE97fnTegph1beKhYirju21zE6+jMxmcKBasBxh6fVqtW9HRx0XXa86x9QvR0Oixe1wz8RJULVwTP4pzA3TCKJWo0b/cw4zePzLjjfomdN2Ab3yBhl/AV0kmUZfDWTWOPQxObC2DGnggE4YgLLdm0PWhoaFIuJ+SwcHBwcHBxj8HBgYGBk6zd9SqFfpqNgqpu+qjbkyRAqpPYD5mFFvtY3oY3jrtDqKBEWJ42LFUn0AtjEEsC9I38PUT7q/GAhIFCEV5ApGaWKklQIMkbIJNcDHkYUaV+zoGIzAGpVVYMb4REKKful2xZDWt4jvRxrPJd5MPwUcn5qmNlFwYk4PRk9QtwHlmr0g7aoSGSi/Wm0SerkyIpkxilYAe5aVYjupyrRFaeAa+HstR1gmib9j4RL8+p+oNczRKnp7lPIlszuBEY+y6vA7Q56v+EWoEJp6Na1OzcWal08yS4JGijTLsAYPAwLNxrHr4XBR66SsPd10xN0R/o9xT9ItS23G9WzeqwxNiXYsL/cb1ahb69WyW5mP1+JJ1UqHvWniNFPP5Fr0TloN6k8bW7MlC7BoHNuyTqFGJX089agwzYjZMo6WJEQ2DaIdQRTPWc+KjFHkPC2VkRq+MBraLHeuUcvpt2rTmbHtJdl+/QhkvRbWLQsCEJvvPa0no6z52DS2ISb0qqQq2c8IFES072pwHMh8seMNAgBHMXg9mrb0ndpHVet7IYXCteiEV36jbV1pQjxGJHmGLExEt6If+WA3eChQhD6NwHI7DpBSoFzpV9JsnRN5pGm9zK9Wf/JUNjRgXrA17oHGjx8rdos2eGeK7DXoksiM9PafeKI0iqkFd9eqxNJXZL7brRZm8yOcwt+zS3DfXTnzJE99cW9zJX7jx4HIZ1X4rxow2z9dewoEnaWbS/M+mNibEwoHiZkbDXgrQGyVutdmmpu6jeViNIgc1klUSLrZfH4GNwll1I8HGSVJNUEtSteoZ/MGst42iHONllKOm7Co/qp4HpzYxdGJlu5SdWX9bZUMuNHDqO0VqwTTmtUN0fND8NdhzejE0SqXVjb2wfq6i7coz1AGhUd+g8/uZ7GMiTdnCnW7euRJWrdAPMXyyBTaOkaie+u4RQb8sC0nTP5udy+FS7ntfxzOpJagmqSZxbFW0JV51RVu2r61BKtYs7MKY+p+Gsvo7auDBZMz378RyfDXVB9KVobDahquuWsuEJx1ZWqzNabznatSe1Juv+UMQa84UNjeR6rQb9pSvVEvjbMEXLv0Nl2pjtOKPEloy7ccNwzPeHA0XfL4Rpqg1bLa5dXWXQ0dEe/8os9bwMSA01HaQsmdo7KdFKVJavVZYtFEWKLvFiAozRCaEjRtFWxkEyqDVGhYO4GA7JFysGnaNRMPEjQIOGqF0cZ9kdELipqyutonUXNcIs/Wjrxe9OKqdoKoh10PUGjszUaDXrJMT7dlHNSR0gqg4dRQe5mIF6I2z1PjoJNUkVVWnIYwVRG7KgWn8aVF4m4vpYbkqxkIDlTnmW3hafUvwRJhZ9NEpKtFnRQFpesz7oMt9uwaEvhaQrNA3Sc9052bKrvP14CQYAUaA7ZGuwgxNGkS6AAAgAElEQVQBKjk4Qc3GsYETuwShii9upAufyVI/y4hIQ3peUwQqMAFjMK0kTyT4KjCmgoKKKxH6L6D0t9X8u606TNqq92OjH4yt2lS66lLOO4iippFZ6IIsZMFWy4avNoVmdYRwVN/L6M2rqpWEo+zGxj+9pfezWXW39mnbGIKsGs3Ph3pb7pXYB0WCdcXcOGGsB3xjS81Xuw1qk0QP0CLdHInvua39tKaufx1LIINfhP7CGtEjWSVVpmeaVFUWibWADrqPVSFTqWcGN1aARgqhpyKCfNU6oJbAs/BbsxeqQwYysHW++amqintOwARMxXS/OPsXubpH/Q8b3eQjJ3q06xKpak01SEwpQe/GlHoOulQrN2Kd6G31u9WcLaiDEWuWqC183U8ymrKLWKd91Ve2Ifpd1Zi+BlUoqcYRUzEbUhAEmRUbuyV6R/SxEkTor4gi9Bk6RraI6aMHovLX5mRnNLaFwQhOFNysP63Vw3t8oy73KykKOVyrTb5BXe0DDDY3/a1BHqZhXIn+PBShKhO2urIp2ABb4CzogTQn6kfqsZgZGi0jlA2gKxOrETZjxZ5fgpug9et09JUS85kBkZnhKXOlDBPwMOwTxS8IgiCI0Nd8BsbomRGJv36VItSLogKmRwIyZZjCH6GSpNhFMYtr4xttagKgQ0KpuhA2xeKzI2EXBXtEuj+iAGMwpYI9PNUjLB7/3egXtiosBEOFs9uQgTTkIAfdysVugw5Z9Ywe87Vr62n0GmpKTQLQC8PwBHBgDPbBwzAOlebQIEEQBEFYB0I/IJenb2p2HRhhnev++jAN6CrTVcYbo5KimKGUpZokMNv9fWYpVxu6YOOcF8eVfQgVJf1rygCoQAXK6peaekQHrjiWEvS9StP3wUboiQXHC4sZMAakYCtshafCcXgUHoVRlSYuil8QBEFY+0I/U2LDGNY6jIBubPZHXr5GrIMlkmq+8RrQVSJTxpmhlGamm3KGwOi472k0h5FkYcOcyx5p+rjcL0FNBXk3WgREEeG11n9nHbqgB4ZgEPqgD3rBbnFIzPrBhs0wDJfBOIzCETgMx0XxC4IgCGtb6J91bP2l3jowAdNQUhEeYcxvbIAFSchAQv3TUFmHhvp9XaKHJGskamSLlNPMdFPoannZ/uWlEbCeVCVBiUX1uDEffwCOyg0YgQk1WKIRVF2uGxCeBMMqOCeJ9KRp4aVPKsV/IRRgRv2cgEkV3hOqGj5hLMnYVCNEEARBWPUy0HE+/OEPDw8PX3vttYt5falUuvfee7///e9Xq9WhoaErrrjioosuMk1zdQh921kfqiIq7V5QzZycRYRpzwpGbxQUNCABOeiBjCooqMVeEw8n1+Y81oRgsl3sGbrz1Czy3RQzOAl8k2B1qtTIcDNUNHxzk8664ItnrDowCROxmG8PClBWBYIaVSDD+e78FGRhALbADkhL1/uVUPxJGIiV52+U9GkkchBzAhjqNY0AMAdKqk5UEYoqEsyP5YE0WgHIpkHnDwkWfZni07nRPLXH3yec73HyRSaYs2rN+ikIwjLowTD8wQ9+8P73v/9Xf/VXTyn0gyD42c9+dtttt33ta1/TNM00TcdxdF3/nd/5nb/8y7/MZrOrQOgH+jqoXRLCJOyH/FL+2Hkn5iiOuwxTcEiVHoz3AdLV8h55BQ2VNWmpUAxT7RJYq1jfNfJ3Uw7JMTaM49iU0pQyVJO4Fr65iqWrNuf3WZsWGeiFxy0wanz1cNRYiL9bQtWkl7CcTrjQ8Wttn8FbNcIAK1BQZkAUDBYFiflqy6ga2zJqGAMi41p6cXXVESKaoS01EzceiZiBF7f0GrZ9oJZtG5KqQK0JWUjFbueoO4SrrnVjVES/BLHN48YXs2LmQa15REWvd2OpR15sIDmqzJTXbE9Ktp0gnETil8vlRx999CMf+cihQ4d8/9TbtKOjo7feeuuuXbue/OQnv+hFL9qwYcPDDz989913f/jDHx4cHLzpppts2+54ob8eHIlFeATyLbAfaosO4tZUzI+tFpYM5CCjwjVW9YKqQnp6putNeSspKimqSYJ1lu0Qr2WZlml13dDoV9ANQ/EJNmb1+yoVpAxlJf48qEIRZlTKeLw12HqgkYCeUl0gDBU4V1MnwVO/+8rwjpwnkRCPmkJEdbqSqjuEGesmYak9nEbfNzPWF6LxynCOVm4Y6pH0TyhNr5+uoR4ubjpsVAYLm6PIAjVmHLWt1LAbPeWGcmOBiE5z/TFPbTo5yn7wF4hJa7Sy1uesTn7zJqcgrBamp6c/97nP/fSnP/3xj398//33u+6iklPvueeer371q1ddddXf/M3fXHTRRbque5531VVXXX/99Z/85Cef85zn/PIv/3KnC/1wzYebO/BYrArjip1oNQ07MWdOtCGQggz0QdfqdvNGpfrTVVJVuvO4Jo5NKUOhi2pKYlOE9YiuhGZEFwzEpoQwpt4aWs1TGreonqxCRfWOcGMlpNxYqaj2qy4L+iCtQphcZepkILrdqzAMCagoA8aETEw4GtADPdClfOSN9g5hTKHG7SVPLZ+GiqcKY+55I+Zc15o1a4cEFWqLftnil4KGGRAP8olHjjWMBF894yvF78aMBy9msurNZzWOF7scjrJLvdiA9FSFg7Iarq7sWa0PijUmNIwW32ne6c50ExMTH/rQhx566CHXdRfjy4/4whe+YNv285///Cc84Qm6rgOmaT71qU99wQte8PGPf/wHP/jBKhD6ntmWwiIrRQAjcKwjPQ+BWv1mQINHIQ390A9p5TVanbE9GhgBukPCIVtiwziVJAVVjD9qyyW6f70QdZ9XP6PH/C/UZv888Qbaacmljr9NGoFhVmz/J2y2BJgvzjuIxWw0XuPOmcsDlTkQqheU1TN5JcUa+UpacyhRo/SArZy7Z6nJKXr0QbeKVYzknaHEejxmRot983nznvRFX9JwrQ2B5ZtvT+emnH1K5za31hb3DnNzCeIWrBPbtppS3Q+rakshVBZC0LyH0FBIcWPPi8UpBc0NUkKxJTqAe6vsc9FbfHNOne6V3rJly7//+787jgN89KMf/eAHP7iYo/bs2dPX17dt27Z46q1pmk984hM/+MEP/uIXv6jVaolEoqOFvmNDae0qjGk4vBqKZUT+qzzk4VFIQjd0qcAeO6b7V9Xyg+rD1VUiW8LXqaTI5yincezVHccvnHJI6z6mj+liuVgupofl1f8Z79oRaIRavSWzbxDo9V+iVs2R6I8egUaoE+j1nO9Aq7840AnXUK0irS1aNlAe2ZLa79ShDAUoQBW6oRf6IKe0V2KlYwxltuicMaYtxwhslDsLYk27Z6VFBc2tEiOboaRSX0pqQ6moqiQ34t88kf5t51efwq88HqPFgQm3f/Y0D7Rt+3GPq+fWbdy4MXLPn5JUKpXP5yuVyqznC4UCcPTo0ampqaGhoY4W+q69dgedA/ugvNq+dqBieI8pR19aZfQ28nqt2A7r6lla6sX4S9QS9SD+SppqYt3F8a9VZa+FmB6WU1f2iRq2g+1geujh6V/hE55CjZC6ARD99E1cE9fCM/FMXAvXxrVky+jU6Go6ycKgnA5hJUZgtHxZSzwwN9+aGW1nlVUJrBlVGfkYlMCV032qa6HN94wxJ+yttP5m1osvvvjTn/70gw8+WCqVMplM9OTMzMxXv/rVSO7PtQE6TujX1qrQd2E/TK/+v2JGxfZosd10Q+WU2ZCCNGTBXh26X4dUjWSN7jyuRTVBMUu+C88Wcbb6xL3hY7okqySr2A62i+Fj+Oj+GYn7WSZi/Wfcs1efv9RzyrvvGTj2CUvSM9dv1wtBWD86NaGqXhMLVCvBNOShANMwBiMws6J7/NG63VixIyPHn88UaVRVIravHy3yKRUjh7KUIh96I9GiGtvNiPLaDdU9Jhn7XEMpUWvO2mvGIqnirYPuX74eMquFl770pZ/61Kc+/elPX3DBBddee20ymRwbG/vABz7w3//934u53B2BYy+2DsBqwofHYGRNKaoTMY+zRJCm7sUMdEMOcuoG7WC/Zj2Ov0aiRq7AhjGKWQo5Kkk8c01FYqyN4aeF6AGGh+ljOdgOyWrdc28ETcH3WtsHEipCzPSxIV1RsUA6rkU1SS1Bzcaz8EwC40Qs0Ap8XUEQWj8naEr698YWzygFeVIlCTQKFjkqZ8CJ1SmaK38TkFadDS213Z6IleXVVXHVqpLpVrMoj5LRrVhjRC22ws+75sf/Ipob9syaA+PvE855Kxbo6KOdamqd9ftjcGidDaerrrrq5ptv/tCHPvSGN7zh3e9+dzabPX78+PT09JOe9KRdu3YlEgnLsjpd6PvGmhP6AYzC4VhBijWtwE6ELkZzWDQhdUM/dEFa2eadOiNHKi3hkpiibwrXJJ8jn6MauWNFh620vjc97BqZErk8toMedLSLvDGiCDECbI9MRd0oGoGOayrpn8C18aLEAEOifQRhzYp+Yi3vu0+uiFTOACpwpYFEmK5PcrncLbfcsn379s9//vOHDx8ul8vnnnvui1/84lwut2vXrq6urlQq1elCn8iztWaSViKV/+iaLiV0SmpwHMYgDT2QjRWp7uwwBg1sj/5JumcoZimnqSWoJXEtmWLbqu8Nrx5hn6iRrJKqYrmr+wpoMa9/qlbX/Z6JY+NYuBa+gWvhWbgWnlHPA25SCoIgrHUMaWUozKG7u/v666//jd/4jUOHDum6PjQ0NDAw8A//8A+apm3YsOEkzXE7RehrIfpaUvlHYf/6VvkxuVYvSWCoXo4pyEIWMqpmXqdqMsunZ4ZcoR5yXchSyFFLiuRqsb73SZXJlEhVsF1MD91fmyHuke63XWz3RJS/b+BHgf4mvlrtQw1XGQOujWfWa/4IgiAIa56RkZFjx46dddZZQ0ND/f39jefvvffeXC537rnnroLOuIRrYs0KwYFDcEQS7OfgK8WvxWoUd0GP8vR3ZEB/FMRvBNgumTL9kxSzTPVSTYnSaskdZDsMHSNbQo9i7tfNn34iyt+r56jNjnDVTjw8A8+kmqSapJzGsyTiXxAEYY0QBEGlUgnD0LbtSMHv2rXr5ptvvv766//sz/4sl8tpmhaG4Z49e771rW9t3br18ssv1zSt04W+vtp7WEfh6WU4AiPSkvtU5pCvMvwrcDxynkOX6sub7oBa2fPpsEYQf8805TST/RSz+BIyuYwnOaRniu68nNF55LoWS4uzPKjRVQIINFyLWoJKgmoKJ1Gv8inh/oIgCKuRY8eO3XbbbceOHXv1q1997bXXAk984hNN0/z0pz+9Y8eO5z3vebZtP/roo29/+9unpqZe/epXX3TRRSd5NxH6Z6zvG71eoqq5ZWmPcVrS34EJmABL9ciJWtJ3ZKCiEZItkayR72K6l1JGFNXykC7RPyHncomTZ0jCIeGQK9RFfzVRd/bXEjgJ2XoSzmBmDjGCpsIrJzrXhhDrHh09o8Ut0niPOU3yTARhsVQqld27d+/bt++qq66Kntm6desb3/jG9773vbfeeuvXv/71dDr9k5/8ZO/evc9//vNvuOGGhXridpbQt51Vcvp9cKCmGrhXVDN3ZzU0vl0VuDAOU5CCbtgAPUvvZdJ6NLA8eqfIlJnsZboHz5aLd2bmk8fG41hyHy2T6PdMXJNagkIXhS58S06PsGgCbJdsgWQV262XrAUCrWmwhTGhHz3DLKFPvYd0qBHq9ZAzJyoya6j/EkNUWK9cdNFFr3nNay699NJZz3d3d7/4xS8eGxtruOpTqdTv//7vd3V13XXXXd/4xjfCMNy0adONN974e7/3e8PDwyf/lM4Q+iHdMx3t0iCAKkzDBORV1+ygucassLwGVdRM/DhkYRt0d2JdMR0SNQaPky0yOkglLSvW6d9ofRNkynIiltMQNT1SVXIFHJt8FzM5nKQ4+IWFFzuwHHJ5ugokaxh+fbNdO/H/px54c94y9s9YnkmgEer4OoFe33qqJvBNQmUe+AahXj9q/ncXhFXOVVdddcUVV8wtgd/f33/TTTcFQdBw1UeldV772tded911U1NTYRh2d3f39/en0+lTfkpHCH3LIVPqUK8GVRiHsZVuZLduFx4XpiAPG2BYNeHqMEVlBOSK2C7HhijkZDU6rdMYkqqccBwKyzU4ASMgVSVVZWCcSorpHgo5qRUrNM20eoBdo6vAwASWtygRv/gRGL/N5zUXukpNs36j7GwtQTVZrzflG/gmnomvSxSQsEZIJBLzRt3ouj63XKamaclkcnh4+JQu/E4U+j1THVlbM4ohOQZTkly70vgwAnkYgiHoSMd5ssZZxwCKXXVHlLAEpaFTSZEriNZvIUZItky6TKHAZB+lrHj3BQhJVumZpitPsrbyw0FT4f6GS8IlVySEIGozZ1FNUU3gJHBsHFsGsCCsBqGve03WfEcQwDQcgSmphd9JlOEgTMNZsKETA/cTDmeNMOoz0yvLz5IpZQh0dNk3a/WUC7kCyRrFDPluClkQu3Td2n4emSIbxklVOreVjQZGiOFj+aSqqrysRc2mmqSUoZokkOpngtCxQj9dxnY65g4NVVPbg1CS4dF5BDAJBZiBcyDZcUX3EzU2TOAkJF5/yVRSeAZmJwv9MPaT5iAEbb7fO7gZnO3Q55ArUMww0U8lLeU41xMhuk+2SN8kqQqmv2qufL3HnIftkaoQ5usJvuU0pSzlVL2nRIffgIKwnoR+SKaE6XXM+ajCYXhMwvE7GxcegxnYrpJ0O2kdSlUYGOfYJjxTVpqlTAYGxSzJyU6V+B7UVBXdAnjgqYnCBAsMMCEBGUhAAkwwwejQTnBElaNmyOUpdjHeTyUtsRBrWdxHtTINj0yZ/nGS1dW9lxMX/ekq/ZMEWt3HX8ziRA2kxdMviNBf2Y+3XFLVztgxDKAEB+C4FNJZJRRgD2yFQbA7aDbXIJenlGGyXy7SEi9pFwOdJvSjjs7RJtL0Ao0ynPkGgQVJSEESkpCAJKSh88w/I6Q7T6rMVA+lLJW0tIFbgyo/USNbIFUhWSVZ69xAnTOZeI2QTIV0hb5JagkqKcppqimJ5hdE6K8cdo1EtQP8HCUYhQmYkSGxqqjAfqjAOZDoLOW0YZxiFicpF2kp1zNNNUGyExJjAijDNMxAEcqwpI3HqAecA3kAdOXsT0NWPZKdFRxveWwYp2eGUoaJPirSBm5N6HstIFmlq0C2RKqCHqz9q6qBGWBWSFfoma4r/nyOcobAkDEhiNBv7xxkO1juikr8AB6FEahIaZ3VSRTG48FOFSDRGdgO/RMc2yRqaQl4JqMbGD6KsYJyJIrS+QVMqUZ4Z+77DJTuL8CYCulJQxf0QbY5s3yF/vIotijhYk+TKTHZx2QfvrmSX0k4zQEMhkeySleRdAnLxfLQwnV3GSPFb1RIVejOU00w2UuxS0a1IEK/XRg+6fIKubRC8GEGDsCUDINVTgBHwYdtkOkUL6kGPTMUuih2yYqyhLOW78HyGDy+Qq7HEKrwczjeyuEaif4yjMMBsKBXKf6kCuvXVlLxJ1yGRumZYWyAfI7AlKG5OiS+5ZKbIVcguapSbNtgweoelke2hGtS6GK6h2pKQtQEEfqtFvreyvXJcuAoPAZVGQNrheNQhXOgv1PSc02P3ikqKXxLLs+itYrOdC+JGr3Tba+pH0IZDsBYez/XheNwHCwV1ZNS8f0plcu7EvIoVWX4KMkqYxuVE1ToVIlveGSL9E6RLa3B+PtlHNW2R/8U3XlmcpQzOBauhWsRShC/0HaCIPjRj36UzWZ37NixWPXqOI8++ujo6Kiu64ODg1u3bp3bWLeDhH66TMJZIZX/CIyBK8NsTS11zMAvwIehjpiyNciUyJTId8sSsgQ8i/ENJGpky+394BochNGVS8eP+kBPNefyRhE+XZBagVFkBAxMoIcc34Bny9js0KkvXaJvkmwRy5OZZlGYPn1T9Mzgmbixkvy1BKHE8Qvt4ujRo29729suueSS2267bTGvP3z48J133vnNb36zIfSvueaa1772tV1dXR0q9LtnVmJKqsAjK7qWCy2lDD8HD4Y7IobH8uidopwWkbREyZ1gdJD0gTZew6iBxkhn5OrEc3l1Vb6zGwagGxJtVfxaSO8kWsDxQVwZxp0mWF36J+iZwnKl79kSBzYYAYaD7ZApEeh4Rr3hbi1BLUnNxkmIj0Zo2ZoTBF/72td++MMfDg4OLub1IyMjf/3Xf33XXXeZpnnZZZfNzMzs3r37//7v/8rl8p/8yZ+YptlxQt+q0VVo78IZwjQ8IqV11joO/AIqsLXdkmjetSRXIF9gqk8WjKWduHKG8QE2jLfrtPlwrCMz8hsx/SU4CiZ0wRD0QkJF87d4DOshfVOYHqNDVJMykjvjFgnonmZwFNutXybhtEc4YAToAbZ7oldmCLUEpQyFLmpJPFNqdArLgOu6R48ePXr06De/+c1/+qd/mpiYWMxR1Wr1zjvv/Nd//dcrr7zy7/7u73bu3Ol53pe+9KU3vOENH/3oR5/0pCc9+9nP7jih3zPd3vvFh1E4DAUZZusAHw6DB+esTMDDrFWkd4rp3li/RmExtrnGVG+9JmCbzpyzGs6LB1MwDRnYCL3Q1fLa/NF75wqYHkeGqaZE7qw8lkP/BAkJQF3ucR7/Z6pGqkbfFNUExSzlNLUkji1tpDsax6VcxWhxCFZwul6ho0eP3nDDDbt37y4UCr6/2OasY2Njd9111+Dg4J/8yZ/s2LFD0zTLsl74whfu3r37y1/+8iOPPPLMZz5T1/UOEvq6R1exjZ9XgSNwZJUs5MLy3IVwDFzYBitd9yZVQffxZWd9iauuk2C8n6ERbK8tA2YVzQ8hFKEEI9ADfdDX8rZxGqQrbDrG6CAlqbK/0vRMk6rIaWiLYglJV0lV8QxqSUpp8jkqKSRYqjP534Psm0Fv8dWZPN27L5PJ/Nqv/drll18OfP/73//2t7+9mKMefPDBhx566KUvfemFF17YEPSGYdxwww1XX3312WeffZJjV0bopyrYTluWiagZ1n4YV83qhXWl9cegAmfDxpUsxWOEpCoUpfbOUm9fnXw3yWo9H7S11FZh3k5UJigq09kD50K25Vo/U2JohGNDlEXrrxymQ/+E6Mw2ex6wfMwS6TLdMxSzTPRTk0i2zqPvYjY/oeVC/+GR0/16fX2ve93rwjAE7rjjjt27dy/mqB/96EdBEOzYsaO/vz8Mw1KppGlaKpXatm3btm3bTjFdrMji1FXEbIOLzlNlqosy8tetVIQC7IUCnN1yl+dJyJYo5uR6LN1Y0xnfQK7Q+na55dV8mhw4DtNwHmxobSSPBukyWw4zOshMD6GIzfYrTp/BUUxxXa2Q3NdCEg6JSXqmmckx1UctKSX5O4hcHxs2tzx0xzzdygS6rieTyfqbmKamLWrc7N27N5vNptPpz372sx/60IceeeQRYMeOHa94xSte8pKXdHd3d5bQN12S1Rb750KowFE4JI58QYXsB7ANEivzFdIlCGUlOJ111bPId7Ve6K+BxtgOPAR52Nra1JSoo9bwUUKNfLdo/XZjO6TLchpWWO4DZkD/NN15Cl3MdFPK4JsyyQstYWJiIgiCT33qU0ePHt24ceMTnvCESqWyZ8+em2666fDhwzfeeGNfX18HCX3bxWppLGwUvRp1vQlkeAhKxj0GAZwLyRX4fMvFcqU64Wky3dP66J1usFd/Go8PRyGEc1tu0xoBQyMAMz0ibtqKa1PKtN70FRaHGdAzQ7ZEIctUL6WMxO4Ly0+hUCgWi3v37n3lK1/5mte8ZvPmzeVyeffu3W9729s+8pGP7Nix4+Uvf3nHJOOGWA6208L3pwT7YEJUvjBnbBxTWj/d7g/XQJfNpdMlSoDramkj7SRshMdW/8mK6oTmYFPL9bftsnEMz6SUFa3fRq+FwfGNpMukpbN7Z6BFLVOmyZQpZJnsk8pUwjJjGAZw5ZVX3nzzzVHVHWDbtm2PPPLI7bff/vWvf/3qq68eGBiY99h2G556QKZ1DboDmIIfiS9/+ZRxCAH44Kpi3jWoQgUqKhGwBHkoQQWqUIMaOOCBD4F6n45YIeGYqrzZZvWl4yRkSJ3uSNQY24DX0ulKh8EVi+xafq3/CLS+JIsGySqbjqnINKFdeBZHhqkk5Kx3lty3HfonOfcAw4+RLqL7cl8Iy8Pw8LBhGE9/+tO3b9/eCOu3bfu6664Lw3D//v1jY2MLHdtuj77hk6y2xtANYBIeBnFynOFp9MAFFzxwlMSvKeHuKd1PTMEHoIEJtipuY0ICEmCph6aa++jqYUDUf6TxaA8j0AcDbfW4VJISynxGS2glzVQv/ZMtcxNokIYcjK2JM+bAITiv5cWmNEhVGRzl8FY8qSvV3jvi2CbOOtayJVU4rdsBMH36p+ieYaqX6R6qKZn8hTPlvPPO0zTNMIxZybuJRALQdf0kSb3tFfohpkeyFUI8gAnYt8pLZ6wUIThQhgqUoApVJfE95ZJfDO58TkQtpumNmMSPHqb6mYQ0pGKmQqs1UBST3S5q4s4/M3yDqV7SFdLllskaCzJrRegDo7AB+tvxUdkS/eMc30hoyFBtn6gsZTi+gYFx0hXR+h2HGdA/QabEdC/TPWIGC2fEZZddFobh4cOHC4VCLneihN/evXuB/v7+rq6uzhD6kC5hLHtQTQjT8IiU0TytU1eFURiDqvLlh8v9Ef5Jax9pytkfbQikoFv1+2ydF2QKRmBr+860xO2cuaypppjqJVFrWWFBHTJgqQ2r1Y4LRyDbjngkDfqmqCYlMbe987dOvptqitwMfZPYrpz7zkKHVBV7lEyR0UEJ3BcWS6lU+sEPflAsFi+44ILzzjsPuPjii88999x77rnnmmuu+bVf+7UoZH98fPwf//EfU6nUJZdcslCA/goI/Z7pFozzCuxtiy+/EbMeqCCWeJSLv4Ci9ZTYbQjo6HLwNvUAACAASURBVB0M5b2OvNoZSIKpoln0U80I0XeoQhmKUANLvVVaeccbpb7CmOaOgnNqUIIJmG6BuD+9sxptCMzAKBiQg0HohXQLfPwhHII+yLbLnkrK3LUMcnKql2yBnnzL5GoPZGFqrZjx45CDLe3oFmd6bBjDtaSRVru1fi3B2Aame+iZpmeahNP67nLCUiYVMyBXIFllol+59uUGEU7KyMjIrbfeun///re97W2R0B8cHLzxxhtvvfXWP/iDP3j961//pCc9aWRk5GMf+9j3v//9pz/96S996Utt2+4IoW94LWjZ7cAvWqbyw5hDupGHWoQCVFRYyzJuUMRjWpKxtVmf49sOVTqsu8AXsFQYuhWLrfegCBUVcN+xi0EIHkzCJCRhM2xsgdyvwTi0RZS4Bo4U1lwmWXN8I9kiZouy7dMwBPm10n/DhyPQDa13tEfB+hvGOGbiJETKtFdLargJxjYy3cPAON15LPHud9glSrgMjZIt1qP2HYtAemytewYGBs4///zh4eHZCs6yNm/eHIZhoxNWIpF42cteNj09feedd77jHe9wXVfTtJ6enquvvvqd73zn9u3bT+aFaeeflKgtdyyGD4/BxHJ/0cjnHdWTKUMNXBW53lLnd6Ac28AZVhJ0VUCOpvzlq5Qq7IMxGIQhWMZ+41H29iCkWv5HVNKEMqEv14hIMdnHwHjLArs2wlGYWSvnqwxHINcOp74GXUXccY6dJcH6KyMn3QSjQ5Qz9EyRLaKHoiQ7CD0kVyRTopqkkqKcppKilhS5v3559rOfvWPHjv7+2alUGzZs+PM///NKpXL22WfHrYIbb7zxiiuueOCBB0ZHR1Op1HnnnfeMZzxjrp2wkkLfXPaahjMwsqy+Nw8KMAYzsRqRq3cbdG3UGA1hBkowCY+H7uV75wJML6vxsADFVVtlPISaOk9eLF860Q77aEEm+0hVWlZW34aNa0joA8dhM/S0Scr0TlNLMLFBFvEVmvUNZropp8jlGRgn4cop6SyMkEyFdIXuGVyLmW4KXdSkLNu6ZHh4eF6ZHoXdz30+m80++9nPfsYznuE4jq7rtm0v1CRrxYT+cvbJigTIkTP2fIfKfz8D4zAJteZ4eqFD8GAcSnA+9C9Tnq4D49DX2mxFT6ecXk1nOoAqTMFheAhGVJxaqDJHDEjA4+CJMASJdjiLY2g4CaZ7SFVaFsBzFjy6+rvkNvDhMOTa1DfFCNg4hmNTyImrcoXQcG0mBih0MXyEbEmuQwdeIiwf0ydZY8M4VZtyhnwOx8Y3CTW5d4SFhbtpmuYS1Ht7hf4ytuyO8syOn9k7RP77KRiDgvTYWg1UYA88HgaXafBOQAHsFs6qldSqyb4KIA8H4Cew/6SZL0WYgAfgXLgIHg9d7ZT7GsUuSgVy+dacV0tp/TXDOIzBxjaNQ9NjaJTAoCSJuSsoJMFJcHwj9mPi1+/cq6SF6D7ZCpkKA+PUkszkKHZRS+BLEL+wLBNyWz9sGWNsojbvwRkcnofjcFxK7682oqh94Kzl8FC6MAa9LVSptQR+x+/JRtnd++DHS2k6V4U9sA+2wyVwfhs7E7gWUz2ky1itaHKswQAcW0NOfQ+OQBe0ZXMp6pjbO0ktIeXDV1hIVlLku+mfkFI8q0H0Q6pKskrPNOUMlWQ9ml/SdoVVI/S9Zfy0GTi9EnsBFOAQ5KEsXvzVSQUOqsqbZ86EqnbaGgHtRtUVOhgf9sMP4VGYWfo9UYMH4QhMwxXQpjqiGsUuymm68y15czLQC6Nr6K6ZhuOwtU0BPBrkChS7mJbK+itKYDDdQ7ZISnrGrx7Fn3RIOHTreCaVJGMbqKTlPhLWldAP4fAS9UhUJbMAR2EMHInCX+UU4Sg8bjnmvgqUlzXHN77Kap3r0YwaIj8GP4CfQ/kM7okQJuFrUIRfhfa0hQkMxjbQVWiNq9KGIZhZ9O5G5xPtgvZCu0LnDZ+Nxylm8KS27IrKxkqKfI5ETZz6q0zuGwGGg+2QLjPdy2QfriXh+8KSaWtIgbtciie/xJoYkRd/L/wfPAY1UflrgsPLJ8ImWvUdPRPX7NB5eRK+Cv8GP4LSctwTNfgW/CdMtOsOK6eZ6mnNZ2nQDwNra00tnlnE49JPYbLG4HE02Thdac042YcvBU9XreK3PTaMcfZBNo6SKq/7GyrA9MTY6VShvzwe/RCOw+IDc10Ygb1wdClHCZ2PC0eXSVGOt0r9+OayRqwt17eCQ/Bf8L0WOKwfgG+dbmDdaTDV17IUCAPOam1FphVgpN1ZSd0zdOXFt7LSk6UprTxWvdxP1dg4xubH6JvAWp9RCSGWQ/8EA+PiPlgCqzB0pwYzix7iHjwGh9bQ/vusWz962NCrzokBJjiq1Zeu6gv5a6XZZ9zkG4NNy1HRvQJFyLVAUhv4HSb0q/AT+AEcaY1148EDsBGe3IbcXA3Xopoi26Ka+jkYgoNryzw+Ajvb94GGT98UlTSuBPCsHHqAJrbWmljzo12ybJGJfopd6yuMx3IYGqUrT1ISTjpW6NcShGc4LEOVRLvIFx+HA6rX7Fq6103og81gqX/aSuhrsW64Qex3L9b8q6baBQSx1r+eeiZcPa6CMkzA8BlPdh5MQAsmzVDrIEda1At4FzzYYsu3Anvhl6CvLe6DUoZMiyqF67AVRtaWp+A4bIFM+6arTIncDBMDElu8Yhi+nIM1tP775Aqky0z2MTGAb6hVZm3fXwE90+TyGGvIlx+GYa1Wi1pfLfL1vu97nheGoa7rpmnquq5pWgcJ/cDAsc6soG8k9GuLe+UMPLT6VX7UoEgHHQxIQg9sgK7lC7wKlb+/pnrQVsAFp+Pbh7kwDUNnPJCjAvItqL0TagSdMflGVUnvbmE+QhOjUIbe1i89oU4lhW8sa/XeODY8HvasoQpdDhyDc9sXuWkE9E1RzlBJidZfGUxPPPprTe5bPhvH6JlhJkehCyeBa7Y5HLudiphUhZ6ZNaXygWKx+O53v3vLli2ve93rTvniWq22b9++733ve3v37i2Xy/39/RdffPHll1++bdu2k2v9dkcVOPaZCX1nce78yB74+SpX+SakoQeyYIIJFqSVF3+ZXQRgQgJysR2ACsxAWdWlqXSk1ilBFbJn/D7RLkd62WenlffoRzbvffD9JSaxn+FlycPw/2fvzaMkOctzz1/sGbln1l7V1at609It0NLaGglJCISFwSPAGBiuGBsz+MC1AR/mHsZc44vmnmMGD2PuNXDNGTDGC5eRbCNhENdIGhBa0dZCQkLqbnVXL7VXZuWesc4fkVGdtWdVV1ZlVsdz8tSpyoqMiPwi4vue7/2e93nXq1epqsjlpo2oSUit1wxpfW6ICehdi6emYYQqJLJUQoFSfGOgBER/k9J9zaBrglSGUoRChFKEioYrbrYZteAS34yKnSeeeOLb3/72rbfeuizRN03zJz/5yZ//+Z8//fTToVAoGo3m83nTNG+++eYvfOELBw8ebCGiX9GInY+a1oBGPl6G1yHbthc/Av0Q9l/yunceEkigQQJsMKEKBb98QamV0pqLUFoLymJAuQlEvwV62wl4EF6C8joe1IEx2Lcuw42hYKiEy007lgY9kNtEIsASTEB4/eJ/AiSzTHVgbLLk5jaBFBhRbGq6r9jEc0QLVFXKOoUohSi2vHnovlolmd1UkxfLsl588cW//uu/Hh1tqFzL5OTkF77whRdeeOF973vfHXfckUgkRkdHv/GNb/z4xz9OJpNf/vKXOzo6WoXoF6N0Tq32arlgNsBWLN8sv+0CGCLo0At9EPLHYGGjuxAv2B/yExMtX+GThSwYvqx/o2CuEf3yiL67xg3uCrgbt5bqwCT8I5zZiEzsdasf4EhUQjg5JLdpD2YnTMDYZhlkbMhCz1oksjd+P1ikJxnpC9Q7G8GTzCCiv/npvuSgV9ArJHKYMsUo0zHK4bqKjW336LkAikHPKGrDA73r4jqtIppdkLJ/61vf+tnPfvbSSy+dOXPGMBoqwP7II488/fTT73jHOz772c/u3LlTEATbtvfu3Xv77bc//vjjzz333K233toaRF+gomOoaMZqL3luOcLi+qWU2kvIJUMM+qG7CcqctepFBBB90p+AQbCgCBlf4WM0lj7RstSn1ASZ/sYVN3HgNfj+BrFTBdaP0QkYKo7YzIxDDfr9me3mgPfMhtbv/hQglWE6QTlCgHVmS2o1IPoXCt0HZBvZRq+SnqQaIhejFKaqYSptpepxkWzi03SNoxkrOOvjQ2RUhCYXjiis1qc4l8s9+OCDQ0NDoVAomUyOj4838qnHHntM07Qbbrhh165dniJfluUrrrhi27ZtQ0NDSy8LrHdE35YohldL9G2YaGAyMLq+GoXzCrNAGKIQg24ItVuPokASEuBABfIwue7aHmHt5AcVsNY+H3ejkIVHYXyDjj4IiXUcUCxvAGvqskUaOuHsZmEEBkyvS7p0/Xhj0znJGQ1HJsC6QbJQggJDFyRE0CuEKjgiFY1ClFKYio6ptAHdD1VITZHKrtho4ec5xscRmryWvmu1JKe/v//LX/5ytVoF/vZv//brX/96I586dOhQJBK57rrr6vNuDcOoVquqqkYikdYi+mUdJ7sqbmY0UIan0vIjsQJR0CHi/xKCttbSeZr+CIShA8qQhykYXxdNs7J2d3EVrE1SIMmGV+H4BomqVLi4KWUJFu8bFJxmS6Qk2AaT7bxsNQcTsGUdih3M6iqiBWJ5ppOBgGcdn0cj0Ohf0PBUPZEyehlLoapR1imFKYWx1p17CDaqgWrgijgCjlh7zeSzCS6STahCxyThMuLKx7DQZcSvbnpEX3x2lR/UNG3fvn0zpF+SGjrRO++8813vepei1CSxtm1PTU19//vfHxoaOnjw4IEDB1qI6ANlHUNDq6787jKXE+S4MNxKa+tCncm9l1brVbYK1TlmCud9iJnvvlZbns/JeLQ7Ct0wCOMw4mvfm4Tw2q2EVNd4IWIDl8oz8OTGmb/3wd717VxMBVtc8wyLeYjAIBzbLDUpc1BcV6IPyBbJaUpe/ayA668LFLNp5rMB2goiqCaKSaSII2LKlMLk4pTCdYUd1+qprOskBRfZIlwkUkSroJqITu1Arv/TqSP6oovoINlBD1H3FCvKDMv/4he/+Oijj54+ffrkyZNbt2793Oc+t23btlYi+gKlCBMd9I6u/CraDWwwsrGzZp++e2TXc+XT1y5gP6OSl/zJQwzkOiP8CpShCg6IfkavABroIPlbem1l+GfrgFFXPdcBe3b9rFVMb0RIQhK2wzichQKsedVuARJrZ5VjrD3RtzYiE9eFx+HUBj0HGhyA3nVmcSKVEOFy85/xPpjeOEXUmt8op2B9g+sCxHM4AqO9gQPPOkE1goJZAWYP0S7ijI4/gymTi5OPUQlhySvR8bs1aj7/JVkoJlrVfxmbzQJ/A/HKK6/88pe/NAyjWCz29/dHIhHHcZZYGZA35C7LptDLpDMr/OCyXdX6p8p5HpQaKKCDDgqo/u9rQvJEn9OHQK3bubZQ2q7rM3jbX0kQ/J0s+7g6dfV0PQuaClR8g/lyAysqC89DoR+6YAqmYBoKa6elViCxdqr6tbYPcgVsZQOesCl4duP6oD64bCNitZX1SXFRoQ/ym6VW7lRTXGWX5RnJaQSX0V6qWhDXb/p0TnSCTNwASz2PqkXHFKksZZ1imEoIU8VQsKU60u8iOAggOog2koNkIdlINpKF7L1pIzm1KYT3r+DhbgY+9alP3XXXXZlM5pFHHvnmN7/5h3/4h1/5yleuueaaViL64EiMdxErrMAvqSFkm5wDKvlU3qtd5antPUGO4gfa1wSif6wkRHxmr/oB+KUfWXlVV1WYffKhuspZ3szBWysoQh6KKxffK9ANHVCCaZ/0n/+szHP6X7sRsVYGeK06JwF7IyL6L0JhgzogHW6B1CbuYkVIQzec3hS1ch0orTfRx4/rCzDaTSUol9tsou8GDRygAQrgEC0SKWJLmDKmUnvZUk1II9mIDpIz60/BCW6w9call17q/XLzzTePjY1997vf/f73v3/w4EFd11uI6AOGxkQHvSMriXpHQFoyGGw3RzsrQBzS0OHH6WfUKeJ5hO3r3So1n9Ar/oxC8V/SMqOgW7c/Fqepbt02K2P/nkwoUlcx1yueNQW5lejvvUlIHKLQA2WYgGEoncdVi661EfjaSneE5meIzn+y4KUN0pDLcBvs2SDatn4xSxkGYXod6ww3kwVuVFKTCLEcos1wX8D1m9nOLmIgmQiwkmHfc+cMVWujmCuAWxP8EDypGwHbtp999llN03bt2lVvsBOLxd761rd+5zvfOXnyZC6Xazmij0AmjWaQyjScVa1BakmHTY8Tn/947/HvCMQgAgmILUnohdnUv/5PpU5mo4IGct0MQfSZ9ErG5Zlnr5auLuAI5x5ChHMiudqWgJ/pUmvqefNvb3tvhVdYcHY+30d/AByo+pWzcmCA2YAsR/Q1SAnYDjkYhQxUVsI5FOiEvWvd69hrXDNr/Svjvg6TG/FAa/AmuGrz2JMu+byHYS8820olos9narhRHBRiRZQhhvvIx9avTO+FxdtcxECgH2BV/VwtgBLovjYalmV51XC/9rWv3XLLLbNGXk0DRFEUxUU70I10M7YlxrsQbRK5xri+2BjRP59hR4M4xCAKqdl+FGJdeLueqc+Idmb0PLK/sez/6zzOygFXxBaxJWwZW8IWsbxlNRVTwZJxxHPc3QXRRbIR7Rq/d/35AH4+u+AiOLM5vINsoZi1l2whWygWor3k4Cv6sqJeMKEA076VR7kxYYMEKUhCBTIwASWf8buLfyQBfdDbhPt3rTX66xzRt+AoFNf9WZbgYrh6Q0tBrHfYMg7b4XibC3jcjbcpCxkMnOFsP/n4RpaR3sxEP4joBwjQXuEXwxgZGbEsK51OJ5NJTdMOHjz45JNPvvjii4cPH1bVGjetVCoPPfSQLMv9/f3RaLQVib5Xz3KsB1cg2Yizvmexoi9eDyu+nLZnMZKi+hYxnrf9TA6r4KtWYhCuU+fXx+PrQ/jLUXbqQ7wCjoAjYfsmsh4vnNnA+9NQMRUcCVvCknAkn7UvfkT7fPzrHSQHyUa2kE0Ug1CVUAWtiuwseWlUSEMKDChBHjINp0cLfj2BLj8ZoAA5yPuJxTP8OwQD0AOR5sT/1jo1cJ0j+lk4tRFR5p1wGJIb2jNuAJvphzyMtjnRb4FFCcWidwTBJZcIuP4aQ7bWOhcuQIAATcbY2Njdd989PDx811133XnnncCHPvShhx566O///u8HBwcPHz4cDocnJyf/6Z/+6d577x0YGLjxxhtDoVBLEn1AoKox3EdVo2t8SSrp0cEY9MDQIlG0BCRW4nwXgn5Igwaqb4Ip+NKUBER81c1Moq2AC5ZUk83YIq7oB26FOsLhYnnRdwlHqm3vUfma4s0j1f7Ha1ay/v5nvq9LbYP1k8V5qwcyhgYuuLUkesVELxMpopdRzMU5tuDbECWgB0owAWNQauhmOJfi3AEWmGD6Rp8WOL7Ev0m3bWiNI9LrHNF3YWQjaOd2uBPSG6vddJHN9e67UGE7VNpcrN8Cug4BNIOeUSyZYjRQAa/lc6FWCVWChggQoJ1QqVSeeuqpY8eO3Xzzzd47b3vb2973vvd973vf+8QnPjE4OBiNRicnJ0+cOGHb9sc//vEbb7yxvmJuixF9QMBWGO+iqtE7ulwhLQkGobgIm5fgEnh2yQK6HpuMQA/0+GVQZ/T0MeiDNK5a47umjCXXwuqG6ofY5ZqbiltnyegsFN+fkdO4dWys/veZb+vMPkfBf1Oo24nts98K5CALBSjBpB83t8CqMweasdFX56WtinUFeVXfZ1+pSyIQ/POotYNKKcJkJ4KLbBAuEy4RqqCaNZnQ3MnIjBA/CTthCs5CDqqN1faaUUkt+N8mIVy3mLMWcASMdaxGVIFfQ34dn90QvBFugfhGc7NQhUh5A/ouYrAfXm5bri+2ikfSDNc/pWIG/vprdXkdYvnAWzNAgBbF4cOH//RP/3T//v1z3k+n05/4xCcymcz111/vvdPR0fGVr3zl8OHD//zP/3zy5MnJyUld12+77bbf+73fu/XWW5c+itwqX1ckF8eS6Jwknl9csu+F2wd9yjj/vyrsh6OQm61fEf14rVfHqtP3t/GmBzFIQAduEkehqlLWKYcp6VRUyhJFgQJU6spSWb7tpOFHxAwI+QoU2Z9QeOzHrqtSZdWdl1XH7+t/l31Zireo7mmFTN/cMgvTUFqLSJzok2oVYpCGHl8zH4ekX8O3nl67AmaI6RDTSQQH1SBcJlSuVcRQjLpgv1DXwl2Q9vNuJxv26lln8qjX3RVrAUvGWi8ffRem4dj6svzr4E0Q3fDewyVaQLY2YrLhcf2L4KX2dNZXobNVzkWASIlUhrHegACs0bhqEykECyQBArQorr766quvvnr+++l0+nd/93dndY+CkE6nP/rRj37wgx+cnJysVCrRaLSzs3NGr98ORB8QKUUZVqlqpDKoSyhHU9APry8yVsRhH+Sh5HPnmZi2Z2Qp1sXbo7i9WCncEIJCKUkuRkWnrDEmMiYwAuN+lacyGAgWooloI8wUmfWcZAVcGUvBVvwSE/XBeMf/xa0j9GslKnbB8ZNsXXARhJoGZxnliONPPwwowDC8BAqEIQ4d0OWvfKTmy9cFXImqTjWEkEQ20Qz0Uk3eI8+vlOHl3cagC7K+O6fTQrcf4TV+ICqhdZ2rnFkyU33NW+t6uKEVWD4oBpHChmYcpmAXHGtDrp/yVzVbhuunM0ylsVQCrMFsvIIWCPQDBNhEiEQi9Q6bjUBurW8gYGqMd1MK0z1GuLwITRJhK5hwdiGmKEIUIrP/5ZN7x2WyyLFJXhnneJExi2mLqoPjICo4SRIDJPux9jK8A3cH5Yg4TSRPpEikQshE8Sq+ubNl6i4CuBK2ihGiGqao1AQ+toDrIljzmtqbGMjYAq6F5PpiGQnbU/J7TF3CkTFFn9CbyAaqgVpFK6MbqBayV6LOQfTovoMo4kjYMpaKoWFoVMKUNKoytmeh6aUPiAsVdDJ9i/BTvphHhwR0wxYYgPQc83oBV8DUMFWKEbIp1CrRAqkMyvwgqwxpSEIfTMJQY/L9dUAYUmvMy8v6un6Dk+s1bxLhWrhprWsYrHqaq5eJlDY0bClADyhwErJt5UbX3XKCeMUklWG8JxjQ1+DRSGWCcH6AABc65BY8J0ckH6es0zlBYhrVXKirUmAPdMJJyC2kYvFLvTouFZNMgV+OiM+O6i9MxIbNVNeW3Tt3XbRjx84rBwbCkUginpAVuVqt5nK5ycmJoaGTR39wLHv6tVH7zPROd+qaWOVS3d2WIt6NHEWIQNiX4Rh1phWewaQn5zGFmhjH9V8zwf2VddXe5EHFUDANtBLhmTnDiqrR+Zm9jmewKdZShW0ZK0RFwdSoRiiGKamYUm2OYZv+txqHY/4aRQS2w27YAnEI+eKiGuNXMRWKUca7iBRJZYiUZssqBD+NYAt0wxkYg/KGun+I0A3xtR1kKa1jwVEDXl6XA6XgFnjjIgkU609lJIvENNKGZ5SK0AkJGIGTbRLaj2+0U9Ji91iGYpRSOMjKPT+WP0U8HzREgAAB0W9BCACWykgf0wm6x4gWkNyFeHwXxGDEL9E6u+KS6zJV4shZnh/TX6lsq6QO7L/m8g+/8Y2XXHJJX1+fJC1T2KdYLJ48efLIkSPPvfD8s//2q1/1q2P7tthvOMCuPSg6AohO7VU7Z8v3hpyCKbdmLVmGqp+p69SFXF3fBtOsmw/MKPkd/6dj4Vo4pZrkx9typmxV2JciyXX1uqy6nVf9RrFcLMD2Jfc2ou0L0vMkZs7K4/06pTClCMUwZY2qiiFhz0xTcvACvABh6IXtMAB9kJqRuHuLJzL5BMUokQKJacIl1PkKfg12wABM+hopYyMCohEYWGNWUdGorqMo4hXINP+53AI3wIE1zmU4L0QLxHMtQAi9M1BhK8ThdZhqbYt9GQZacQQQQDVIZqhoODIBVsfy9RKdE4GDfoAAAWjtflSgHGa4j2SW5PQihjwh2OZzbC9Z1QKJTJ4nn+eHv4w5/dfuuPbm91916MCBA8lkconiYXO5XyRy8cUXX3zxxe9+97tPnz79i1/84tEjz/34p/e+1r3FefOd7NqPKiFZyCaSg+xrZyQLpRfZ9gvKWXXVVuc47thQ9f0jqQlzzhF9q47um76Q3qPvXsKBV7ZX90tzibOJvuWz/JLfNBUoQBFKfsaBVbfzWotbKAWUAjGvTleIasjPTI5SiFDUMET/W5TgOByHCPTCIFwEW6G+nr0j1ei+XiKeI56bt0TjOXL2QydkIQOT617zactaG2vCZMf6xSPL8HSTD6HCpXADDLRS7VvRoXNiXhRgw5GAPXAWhhfyDGgRdEJnixajFSFWIFemEFhtrqr3UUw6J9CMoPECBAhAywdMBAyNiS5ycVIZ0hkkZ6EQ0Iz/eheWxZHX+Oq/SCWuvPNjn7zyqkO9vb2api1hMro0FEXZsWPHtm3bbrvttg++9tp///793/3yF89c/mbu+CCJjnNJsIJzrsasViVcQrYQHSQb0altI9Zv2ThpnPMS/HK7QsN7cHxOb/rGP1adV2fBW4WAScj4LFtwkEvIJSKegkjBVKlGKXQykWZKxp45fBGOwUk4Al2wDy6fLYRxJIpRyjrZJKkpUtMLXUcVuvxM62mYgunmSyAE6ILuNd5rVaUYWb+n5Ndwqpn774DDcBnnln5aBKkpwuVW7LUIw3ZIw0mYbL0zDMNAa6Xhzu0MDJJZyjp2ENRf6d3ni3bEwFUzQIAAbUD0AQFHoqIzEiKbJJUhVkA2a71YPdV1XIYn+fb92iMv7X3v+z/xW//Tu+PxeOMh/KUhimIymbzyyisPHjz4kRMnxu5VJAAAIABJREFUvvK1r//L3b8/ctNHnMveRCqMJpzznzdcShGyqQU6YK+Ylsf7vQmAbNXmAwLn/sXswuWiXZsh4Nf/tKWaq79Xc8srlusItc3q9yzZ52YaouYb8zBb4V8/iyjDJAzDEIz5YpqqjWAjVwjlSIzQp2DEyXUzliTrafoFsCADGTgKP4fDsBtSM970Ao5MWaKik0mTniJWQJkf3ffKk0WhDyzIwThk/aURe+2EPV7S9iB0rfFz4EIujqmuUzAyD89DoTk71+Eg3AgdrRZadQmV6Zhs1ZildyenIQ6n4EwrqfYlGFj71PM1b79klqkUpSgBVgCH9CRd4623zBUgQICA6C/b8bsC5QjlMKEy0QJqFcVCtms6ebPEM0f4zo96EoO/8+X/+tE9e/asFcWfdRaCoKrq3j17vvSf/4+3P/TQ//3fvvnIL16qXn4nW7eREomDCiEBhQVGURecVasefNmPR9NdobGIvovgIHmCIgvFRK3W2L/XcJLfguf2pEAcdsB1UIUMnIYTcBrGvBwIB6mKPo4+TleYUhfjaaYiFDWqYm2sYQrugxRcBhfDlpnooX8dz+hESqQniRbnOaALPh3x0jA66xYeclD01UamL1NaBYkIQS/0QxPyZU2ZYmT9auJmYKo5bLAbroVDraTVOXebGnSPoRmt3muhwHZIwBmYbqxgXLPRtfYZKc2A6JLIUQ7jigRo6HZziOXoHQ1YfoAAAdqR6NeNnZUwFR3cGoOVbCrTPPSA8NTPL735bR9/72//TiwWa/ZZ6Lr+G7/xGzt37vyv3/j2d3/2xalL/h2DVxKS0SAKUb9MruhL6CU/Vi35DKC+aq7XL4uz/zWXMgi17euZ/0yC7gzzF+v3IOBKWBKW4muFfe2Q5CDZyCaKiWLUpgFzS15p0Au9cADG4Di8DqfrHATFEtGTREboi5NLMdXNWIjqzDebgp/Br+ASuBQG6pM4RYpRKiGieeI5YgUkexHuIfhFduPQ6y0w+I5HJT8NoVpXOniJamveWkECUpBuikDZhUqIir5+RMpei9Jpc6DCxXAtbG9Jli84xHNE26USkAhpiPrlrL2K1hvlMdUBO1spmXpJJLMYKpnUeURILhy4RPP0jgYJuAECBGh3ol/He20RW8ao8L3vCcefvOFjH/uPN9xwWNPWT3m6b9++P/0Pn9r5D9/90n//P0f4DNsOYUDep/j15HuG9Cv+2O/9y64j+pL/Lxlkf2IwR6xi+/ze8iX3tt8gM4cQ/aQFFTTQQPUtMAXfo99T7KPXqL/oZxKHKuhl9DKaURdpV31nnYOQgZPwCxibKUhWJTSOliE1Tlcvo92MKZgzdH8cfg4vw364ZrYIxJaZTlKMMl0iNUWssJyudKbCMX472H4jeH9604ByXXtKYPs2Rar/U2oWEXdEClHMdSRS7lrHiCPwZjgIidbM1XRRq6QWTNdp5f5Kg05IQRVKMAkTUFnfAH8HXNSUVaxmjU8W3aMIDpOdQVx/mYciUqRndBHLigABArQkHMd57rnn4vH47t27NzPR9win4Q9/XonWis9j436eZAgiPj2WfJ7muuQzfPPPVWfst/787ru3b9+xrGnmGg/fgtDV1fXxj310S3/v5778+deMP2bnm5CUWUaaq6MFM7+4i/O7Zfcg1M0BFNBB98ve6n4jigKCV54LTIWKznQSwUW00cvEp4mUUUxEB0GCBMRhEK6Ao/AEDEPJW1OwkDOkp0meYksvI/2cVbAEXE++PwrjcATeBJdBbKaImYClkItTiBKe8d03G6CYM7eCOrtN3AbapGmc21CZTq6rLsJau+iwCtvhrbClrn50CyKRRa+0IaER/Dl8GNKww3fAykMRqnWT9pkAAf6Szcza3aoP3QG7IdJOPjYCyDbd49gSmVSLegS1AkIV+obb86EIEOACxvHjxz/ykY8cOnToa1/72uYk+g5kYQhOwCmYgopvMFkPLzaqwVaIgQYJ6IFuqE7xT19Rhan3/MWX/rKjo2NjhiJB0DTtt9/73u7u7o//6V/+yrG46Gak84vouo2x+WX3MPNxL+w9U4NWBA28wl9hiM1UvRIQwBVq6QR5lXwc2ax5lYdLKBaCx6+jcDnsgyF4Ck7CtDe5cZAKxI8Sm6Czj+E0UzoVwb/iGbgfjsDVsAvOjd0CjkQhTiGKXiaVIVxCNWuFkBodvZpP5ZdFLoaprvdzdP5BYRH64I3wRmhxS0PRITnd5oRmZo6qQcpflPEW6FzfLJc6ol/yrXErUPWL8rkNH0uGFOxup1j+fK5vKhRigdvmApAs+s62pP1UgAABFuNorpvL5f7xH//x2LFjl19+eVOPtWFEvwAvwUtwoo5/LgjT//mrujej0Jdj+B/kzql3fu5/v3ujWH49bnzTm77wR9n/7WvfPaqE2X4t4lo7uTh1bMDwU1Ht2WRtxlJ/JtStzFHt+9yw7OtbBNAhAhFfvz5LXy5gqWTT5ONE86QyRIt18pqQXyH3OLwMr8D0zAezpPLEUmR6GO1iXPHP1YETMArb4SBcPId+iJQjVHS0CnoFrUK4TKiyuIK/lWBLTKXbr8dR4QBcA1vaQcwXy7V8Du4qyKzgq+xYKNQR8ucDXsGQCuR90l/19T/1z7gLEoRA9xdDO1raTHNZaAa9o5wVKUUCrj93op+aIlIMGiJAgPZApVJ56aWXXn755eeee+6ee+7J5XLNPuIGDOs2vAqPw8nzKIuUtzj2I6H/F4f/10/+h61bt7bCxRNF8W1vvW1kdOwL3/1/RlJbSW07L1pv+wE8Y6a4ra9nsutW8+dE9cS69ACxLgNYBR2SEPGr6NYfqwQlmPDlPT3QAeHZC+Wemr6sk5gmlSFk1JGUMFzi8/afwmsz2n0bZYKuHIlJOrYyFCc/c+QyvAyn4GU4BDtn34uuWEu5Fh1kE61KLE8sP6/YVktN0GEqtd7hfG/SG1ltWVzPaPEquGR23YOWhWy2sKXmOkwGvKz0GHT6qeeWX0lP9JNSvKBAfZ6PuBnIsV6mf5iRniCuP/vxL5KeCtojQIC2wfDw8Gc/+9kjR45ks9lqdT1KKq4r0XehAE/Bo5Bfid7ArUUuambyritUf22rf3vJZ/74cwcPHGyGjeYqhyJdv+tDHxwdHfmLh79YvP0vkEMrax3LL4A7ASNQnu3J00h72UuyBNEvqpuCVF3Sw0zarCcJyMMJiPqMX61T03vVyzIpklnSU6gmglv7F1HYDQPwEvwcRmcUxwbaCH3TJAc43cvIjC0PUIAX4DXYDTdCLyizlxMcCUPE0CjEGDeJFkhmzwX4W2d4c6EQYWoj3OZ74SBM+is0jTBGz0J1NxyEXtDbRPws2nSNBRKFusdZmdcz1Gf1CJvtS+tlusYxVapawPVrWemd40EF3AABZuHMA6HXH4s1e1S7YWSVGaGpVOoDH/jAHXfcATz88MM//OEPNw/Rd2AUHoQjK6T4BmoFrYw+TdxGMVCMcaJ3j9/9nk/feOONrcPyAUEQwuHwJ//w37/yyse/9/R3uOrfIamNfs8pOAkFqJ5fIu9i+5/x6inBGMjQAZ0Qh/DsG8HzrvFK5XoB/l5/VuDZ4FsqE13kY6SnSOTqql4JEIGrYCc8Ds/XK3nKhI+ye5zubZxIka235SnBETgKV8PF0DNPPQS4AqZGRiWbQi+RzBIpoVX9icZGs/yqyngXhroBR5fhGpiAJxugSgnYBvtgD8TbiiwJDolpktNBvc+FrusSf26uLxopEcthdOJe8NxWcEhm28dkNkCA9cL0LTtGr0g12xna+L9WWcwvmUx+6EMfqu3EMH7yk59sEqLvwil4AF5r+CMWUp5ontg0iTzxMiHHs4kxHb499N6e33zf+97XUiy//ip+/j/+yaN3febMwOUMXtUoy3+ladVNF2nfmg9OFDr90lHzR4wynIQsDELPbPZd1RntpRghPTVbuC9AJ9wOg/AEvF630CBMk3yZ/d2M9TKSICfVzWmK8FN4EXbBxbDTd9GcM9S7AqVorW5aLI9eRq805tLTvEmsSCZFcePUwzq8GU7B2UU2CEEPbIGLYFc75mS6aBU6JlAsAlzIEF0S0+QSGNqF3hSqSTIbGBEFCDAPikBIRGryeNw+M+z1IPounIEfw7GGty8RPs3AJJ0VNHuOqPyZ3K4nw//+8x8PhUIt26x79+75xG/f+tnv/73TsYvwcumZJTh+Hizf9eP0hu/jofhu+sveiA7koADTsA06FtJwuJClVm+rZ05Sr0QuQUUnkaVjEqW+wq0Ml0E3PA7P+p8HMNHOMpAl1cPIVoaUOr2RA+MwAa/CRXAIBhdRlbgi5TAVHdlCraKXSeQIVTbAW92F6TiZFO6G1vTpgLfCv8L47BUzCS6Fy6AXktCmkgfBoXsMvRKMYAHQKygGhnqhq3di+U2XlR4gQIB2JPoey78PTjQgSHHBQjrF4BkGqoTcuTJskayu/dPEJ978vzS1uMAa8BJBeO9vveOhp/7z/3j9EfbfgSgt9Z0n6hQuyzaQ69vtTUIBBD9b1/T53YxXt1dKtsu3zBcXn4M6MAk56IOdoC4S2n8NLOidU21KwFCZ6KISoneEUH29Fgn64DdgB/ygPi/DRSwSOcGODKldHIuTF3HqLUOm4Gk4CgfgakjO0e77R3YFTBVToRQhk0atEikSLdRE/N4ag9DMe9sRyCUY7sdugcqd+6AfhuAlyEEaumAr9IPW1hbkDp0TJHKBRCEAgOgSLVCMXtit4JLIBE9EgAABWoDoZ+AeON3AljbiNPFTDI7NjRsDIsRw9vFs/JZi52++/R3rWf52dUR/27ZtH3n3W1/41iMj264j2rXE1ya/eBLtHDqe86XzuSU/MlOMYBJOQMQvPJZmKdWaCUNQhosXFM1ABV6DMmwBfR7jzicwFfqHCRfrSKUAIXgjdMNP4LW60L7gIGVIHyE6wNlehiMUxdlfdwr+P3gaLoPLYWCxgLSAK2CLlGXKESa6UAwiRcJFQlUUC8lGXOvkXRcMhckOpjpwWoDle87sXpb1wc3E6mwSWbomAk4T4BwSOcZ6LmiZvlZBrwY3QoAAARoYRpu6dwN+2hjLdxDG6XqFfQux/BhcAe+k/Jb4v7166+5LtmzZ0gYtK4rXXHPNoVRWGHlhmTZqRJBgwTD8Co5BprGJwQwhLcBZ+BWcqlfQLAJvblBd/DSG4OgitQ8qOmf6ySax599XA/AOuB7mBOIEE+0k215m/wi95kITkQI8AffAg3C6kURlAVMjm+bsAENbOb2Fs32Md5GPYsqsSSanA4UIw32twvI3K7wE3O6xWt20AAFqNLeKdiHTXJdYHiHISg8QIMDGEn0HfgkvNLbxBB1H2VVcoCjndvgteDtcxnBu95GTt73lLYqitEXj9vX1vfX6K5K/vncZBt9IfmEWTpxH3QFvRnESphq4bGdhZHFC7dknnVrQO0mgGmKkl8n0PK4vQAfcBL8537HdRZwm9Rq7X2N3nqi70GxlHB6Be+FRyDZo3CRiqRSjZFOM9XBmgFNbONvHZIpCeKHJSGPzpqrCeBdnB8glApbfXDYTn6Z7rKWLJwTYmBkgJLMX7tdXqySmg7sgQIAADaFZ0h0XTsLPIN/AlgUiv2ZfhdBslq/AG+AWSHkTEvVff/6Wg1fs3bu3XRpXkqQ77rjjr77x7UxxgkjnwhvZDRB9Lyp//vbhTp2qZwmYvppIXPx8MlCCyEJDsKXUltW7x+cRtDAchCjcDyNz6LqBdpaBDKmtDPUyImML8+ZEp2EMnoGr4TKI0JggR6i5c5oqxSiCi+CiGLUiXJqB6IBv0zk/TuYKOCKWRFmnFKYQw1BxA7eLJnUc3hzNJp6jbxjZDlh+gAWQmCYXpxS+wFJyXSSLrnH0cvBcBAgQYEOJfgWegzMNDOtFIi+zfx7Lj8Cb4dpzddvL1dgPH3vnn31RluU2at/BwcHbbzn80gv3cu1HF97CK2zZCEc//4VaDToa2EyE2HK3RgWyizhyemWuRnuIFImU5m0gwW54n++2Wj/LEVyEEtFX2DdTSVeaR/cNOA2n4XG4HnZBak568HKM32tIW6YSZqIL0Ua2kC0UE8VCNpDcc/enpVAOUdaxlIDcN5fBiDaqgWKimCRygUF4gKWgGvSdZbiPUuSC4fpehayJwFUzQIAAG030XZiEow1saaAOMZifW7pHg+vhqhrLd8GSeOLELkJveMMb2q6J3/Oe9/zFXf/Jveou5PNIII6A1oDCfnGCSwQGG3NQ12HZIvMm5KBniTtIYLSHgTOEjIXOph/eDj+DZxdKOBDH6S4Q62W4l5EIpQXPZRi+D1vhEtgL3asa7l0RW8RWCBLbNpLiO+gl4jnieWQT0Q0ofoDlu7Rwme5xhuULo1CuS7hI9xixYAIcIECAViD6r8L4cps5CBN0jtHjzE3BvBZuqHFSF0o6E508cN/N197Q4mY7C+LgwYM9cn5k6gTdexcer5YNzgiQhl44taqiuRr0QVfDpVC1eRmzC6IAlSW2FChFGO+iZwzVXOgr9cHbQIJfLMT1hTLhIbZlSG3hdA9j4kIrGiYcgzPwAlwMl0AnBLL59kKoQnqSaAHVCOKUAVbG9aN5euHUII68ub6bW5sACy6iW7MRS0yjVwKWHyDA5kE6nd6zZ09vb2/7EX0TnmhAaVImdJKtJnMya3vgxnORZ1NmpJe8zpHnb/7j32/HC6mq6g1XXnbP2ecXJvpSY8xUhu1gwHDDY6D3qR7og2jD6hYJOqCRbGdrOfMfVyCbQrLpHkNecIKSgLdBGn66YKKxjZwlVSSaIbWdkzplFvoSFTgBZ+FpuBgOQbqxcmEBNpLHgGySypKaQjXrCisHCNAwRIjn6RtmsgNDw1miWkiL3fznumoX0UayffWg/5JsJBvRQXRr2wQrXQECbDLceeedb3nLW3Rdbz+iP9KAuQswRk+R2Dya+aZzOZ62yNk+ijHOHOsyS5decnGbXstbrn3jPf/wLAffgzAvZBmCyCJulXOIuwp7QYUpqILlR/eFupdXJ0uHMEQgOcfwfjmKr8N26G1gpJShn7lXb/5JuwKFKB1TyIslIkThTdAJD8LZhaaHgol6hi1Zkts42cW4ukjysgFjMAa/gOthH3QslkQQYENZjuCimEQKpCcJBxHKAOcHAToypLKUQ+RjFKIYGpbEGhfOOE9m7yK6CA6Sg+jU8oIUE62KXkY1kOxgOStAgAsO8Xg8Ho83+yhNIfqNBJ0dhFG65709CDtrWhYXphPk4wCjp/cP9IZCoTa9lvv37JIKD9tGCW2e0sXTyUw0lmurwEVQgRwUoewvCHilcEXQIQLqyn1TI9ANvQ2o8z10QG9jR/FG3aXq1ctwKejwMBxdRJwkFIm9yt48sUFOhSkvcY5F+Dd4BnbDHti1oDlQgPUnZA6qgVYhVKnlaQdR/ABrBdElUiZcpmOKYphClEqIaghbWl+679ZsuwSnFpKfCdXLFoqFYtSi9aLTQjORAAECbGI0heifaWCbIuHiXH23CHsgWfvLkskma0Yn42e3dabaxT5/Lr8RhI6OjpTGRGlqAaLvWdwojXnveNuHIQyOT4nF84tdqdAL3ZBo+HbQYNs5P6TlpnQiVY1weblvdRHE4GfwzGKSIAvlNIMlIls41cGktPjcyEsHn4KX4SK4EraBGjzu6w8XyUaroBnoJfQKqoFkBRQnQHM6W1AsEjliBUyFikYpTClMJYTTDMY/o7rxnLvMWmxecGtvis45BY4QCG8CBAiwOYi+CScb2CxH3JkbEI7DwLlTKunnzBQy47v7e9uU6AO6rg+kQhPFCVJbF/h3CvSGiX49Nz6ftV4J4pCGDoiC3Ngo6E1Lts+vebXk4DudIJVdfjN64CbIwyuLLXC4iJN0FIls4dQWzshYwlKjMNPwHByDi+Ba2BJo99eF3AOiTahMPE+kiGIiukiBI36A9aL7koNURasSK2CLmArFCFUNS8aWsGQcsfaadVO6s3YypxMSndpLM1CrqAaqgWwhObXSHIKvpz+3hwABAgTYfES/QcP3/AL67g7oO9c9er0y4LpkJ3ov2ipJ7eqnEgqFelORI9VFqoeFYBDyq3LUWenV9hT8aegBveGpggA6JKEXkiv3tSmFsSQUu4HDdMNvgAHHF7+PhAr6UXZP0rmLozHyEo6w5A2ZhafhebgcroE+llQSBVgtvxdcZItQmXiOWAElqGgboBUYv4NqESnP4vOOgC1hKjgiwoy/zeweWHDm7q2WGhu0bIAAAS5koq/BYAMyfWMBJUUUEnU9sYQrADg2hhEJh0WxXbOVRFEMKSLW4l7t3TAMk80Z61QIgQ4JSEF4JfF7GSIQh26Ircq6UrRJTyHbDX+gB94MueUMWoUMqZe4tJ8zPYyFF/Har4cFT8MJuAouh3TA9deO4ks2oTLhEtEi4RKSEzRKgNaeALhIFqoVNEaAAAECor9y7ISnlueQzkK8Uqoj+v6qqmVhmeFwWBDalZhJkhRSJKzFRxUFdoPbmF1RgxdW86dOEQhBCJTG7HS8jF4dNNAg7Mf+V9z8LqEKyUwDup05o/AeeBv8ADJLb1lGP8GODKkBzvQw1sgJTsBD8DrcCDuaVxr6QqL40TzxHHq5PVwyva7FpZYN6YLr/enOVVE74IhYMqaKqeAItbhvrbdy0Ko1VVIwYwwQIECAABcQ0d/ewDbqwpp0t0YnBRDt2p+Og2O3r0C/RgsEAXfJOGcc9sBxmFiVhkcEBXSIQ9SvpCv75F5Y/nqQgDTEQfPNfISVpvm6s37vmiCZRauuPA1NhEvAgX+FpScJgo08RUeBWJ7YFk6HqLLcKVfh1zAK++GQ7x4UcDVWeJ1Fm3iOVIZQBdluD+9yRyCTIpvEpWZ0WBNq+wpszyNFdLAlX9It44i4wkzf5N95LpKNYqCXCVVqcm0v/3LVCG7CAAECBAjQBkQ/Ab0wsuQ20gJk1gSjZuYiUDMhs2UUBUXN5XKu67ZpUN91XQsRSV1mkE/AQajCGExAFSRwfBMa0Sek3sqHAhrovjJHA6VhaY03K1AhAjFIQLSxIllL8T4HyUatEi6hl9Eq6Mb53ZkHQYcfLeKvP6vtDLQT7BijezsnlvDarz/jDDwGz8IlcBi6G1vwCCi+6CCbRIp0TaBV26PFvCh+NsFEJ9XQml1mS6EaohA/dxjJQrYIVdCqyH6Kwozjiui7rzjzRIheAdTaljM5nW5gTxQgQIAAAVqP6HteiUsTfX2BGlFZmICB2l9atUb0ZQVNL5crjuO0qUzfsqx8qUpEbajtdNgKW8AC0SMp/kxArPtlFRRArqulFYfYqhz3Z0iN4CDbyOY5d2i9TLi8dgJtz24V+BeYaGB7oUT0VfbmiG9laGmv/RlU4BkYgqtgD/Q0nL9wwcFBNdFLhEtEioQq7VTfx5aYTDPZidXUdUEBW8FWqOqLPDFeuqdbSz6aM833nNdrRo0WsoVooxooJooVFEYNECBAgM0D13Wr1Wq5XBZFMRKJyPIybNw0zYmJpYhQJBKJRqMLkuQmEv3HF7NDByDJtIA7e+SagtFzRD9URTEwVBAIRyfyBcdp1xQ/0zSnSybJcOOMoSaeWRNofuQ+5uv1Vx+7dpGsWjlHrYJqoljIpu8w14xbaQ/cBPc2ZuaEhXKGLWX0LZzuZFJs7FPj8G/wS9gLB6F77dq+/XsjBIdQhVieSAm93H4umS5MdDDZib2xCRkCroAtLn33Up09MZBsFBPZrBVdUk0Uz9XRr7gUIECAAAHajuU/8sgj999//+nTpyVJ2rNnzx133HHgwIEl6P6pU6c++clPLrHPd77zne9///sXLCzbrKEvDcklXWR0yjql0qyaWSUYAaNW2kiyiRQpRXAFEh0nRl83TVNV27LqUaVSGZ0usyuxnqyCEMSgE6K+Xn/5kjEugo3oIro1Yu1xDe+nd0VClVli5KZzDREOwMvwUsPETpyks0SkzNAAZ2UaMvwx4RSMwAuwG66GPi70ovSCTaRIeopQpY2zTkthJjs2muWvdmJgif4qhL8gIDqIdVF/2UI1UUwUA8lGCth/gAABArQ27r///k9/+tOnTp0SBMF1XUmSHnjggbvvvvumm25aTLeSzWbvu+++Jfa5Z88e216Y7TRl9BMgDD1LEn0Buhg/SWQ2VXwFLq+56QuQzJJNYoToGTj53POW1ZZeaK7r5vOFU1MlIp1r39Ci/5JABdV32gmDVkdUhYX4cK04u4FmoBho1VpGoeAuL79ZVzahw62QgbONN00Z/VX25IhfxLEQlQbP14QxGIOn4WK4EboazmfePPzeQa0Sz5HMEqpuxAVfOxgKw71tyPIX4f22iA24VBd5oFWjliHgPcpiXQmnc4WcZpIB3Da+sgECBAjQjnjsscc+/elPT0xM/NEf/dGHP/xhURS/9KUvfec73/nsZz/7rW99a9++fQsmo+7du/fRRx+d//7U1NTnP//56enp22+/Xdf19SP6HjXrhZeX1Fv0MTJBZ3FW5axh+BX01KQTIYOeUc4O0NX36tmRarXaptf16PHXTb2bUHIN9iX7da9Cfg5uaHYy7lLjtlsTAqsmWplImXARzWj5oV6APjgEP2aB1I4lPiWM0G+ibuNEimyDMh4PVXgOzsCl0OVXIIiBtqmJkeCgGsSnSWXa4b5YDp7HTkXfdNdMWPhNW6SsUI6ce9ZFF6E+wZfaLzOFXWcYv+DWkgEC3h8gQIAATUK1Wr3vvvtOnz793ve+90/+5E+i0SjwZ3/2Z5lM5t57733ooYf27NmzYHHYSCRy3XXXzR3jHOev/uqvTp48+alPferQoUOLrQY0i+ir0A8RKCy+TZhSLyPHibjnIs8uPAmXQU/tjXiOss6W7UMlY3hkpLu7ux0v7aNPH6FrD+Jqhd8ihCAKUd9mx+P3UoPiEhfZRK+gVtAMFBPVQDPawPN81o15JsqEAAAgAElEQVR6GYzBk7CyhZ1JOqqo2znRzbi0QuPSMXjIz3FIQwd0QxpikITQ+SQztxpcFIPENPE84VJb3RqLfiEqIabjOBdmvoWAKy2uWouBg+T40wC3xv71MqqB5NQMgjy9nuhc6Bq2AAECtBOerTBcaHq3lelaxYfOnj37zDPPVKvVD3/4wx7LB7q6ut7xjnc88MADP/rRj37/939/QaK/IF588cWvfvWrhw4d+sAHPhCJRJbgT00aZeiB9JJEX8TpYnySjiypuiBVBn4CvwVhANGlY4pqrzF40eNP/eLggQPteNf97KkjXHrbKvl9EjogAirIK7J8d1BMwiWiBUIVFKs2aNOmAc4Y3Ozb5KzsZiwQO8puG2mAs6v46lWowhQc8ydZCoQgDJ2wF3bXTGHbGJEi3aOEy5snxdMRyMWohIJBb9HuZU5mcCVEIVbzBfKSdEQXyUKyayn3XojA+z2wAAoQIECLovcW9nTSbJPG555bxYdOnTp15swZVVWvuuqqmTclSdqxY8eWLVueeuop2260bFShUPjqV786OTn59a9/fXBwcIktm6hd7YReOLW4ekeAKMW9vPoKe6dJ1tHPF8CB2yGNIKIa9I/wlit/8IP7PvLhuxqf67QIhoaGfnU2z20HGyX3MkShE9KzS9IuOq76NvaCW0vTC5WJlNArtbV5Fvu4CyZUYBImoeJvNyPzCvsePfWTDBuKkIVxKEAU+iEGuu/tLzUnzC1AHN4JGTi+0s9WCP2avS5iH8MS9uo4iuuT/hkchaegA/bDPuiCeBvF+F0EF9UgNUU60352OkvDUJlKE8SiV/SEOdLsBZB5fbcn65dNVINQmXAFtYrsp+sHRkABAgTYePQPsG83UpN7/9Arq/jQxMTE1NTUrl27wuFZNozJZDKdTr/88ssjIyPbt29fdj+WZd1777333Xff+9///sOHDy9dY6qJRF+By+A1yCzD3fIXcfQlLq2c45c2vAgu3AJ9CCKawVsGnv76sRMnTuzatau9brl77rnH3nEjoeUsd1QIQwI6INHIlZmxsTdRzFr+nWYgm8jO4kzVAhPKUIQcnIbX4RQLFyoWQPHTArxUANn/YHn27MQryZuGQeiCJMT8KlxrOPQLoMK2lRN9QHCQj3KRgTrAaQ1jTU7LBdvP330c+uFNsAfaIo4sWSRypKYIlzcbP3NhKo2lEuB8H7g5DSsAmBqmRjHGpIvo1KL+kRLhIqGqL/0PWi9AgAAb1XMJ0JL1VSuVSqVSSSQSc6h5OBz2tDfZbHb5Ac51jx8//nd/93fhcPhjH/vYsgWmmutGcRG8AR5abrMk2R0cP8Yu4xxBsuElKMGbYTeIdCfyNxz48Y9//Ad/8AdtdLtNT0/fd9/9XPVfltpIg25IQQTCy8Yg3ZpDTrhEqFIz1pacxVXVHrnPwziMQQZKkIcc5KG4ZL60C4Y/B8gtNeWgCEU/lzrkk/5O/2cnJGquqecLsWbKxGpU5BbKEFtN5O2cWCuuPwMDTkAGDsEVkG5lhZSLVqVrjHhu8VlhO8OUmU4SYB3GU28RwISKTiaJ5kX6S+gVQpXNkOwRIECAAGuFarVqGMZ8Pb0gCB5fLxaLyw9wpvnggw8+8cQTn/nMZ7Zt27bs9s0l+gpcDy/C2HLcrZcRF+F1dlZncf2jMA3XwRsgUv7NGx/4y/t+53d+J5VKtctFfeaZZ44bSbr3L/rNu6Ef4g1UZBVtIkXiOUJlFK9y5tKjaBUm4RU4DVNQhDIY0FRm50IZyjAKom8PpEMH9EAfdEPneZB+AbbB/uUsnZbi+mcZcBH38GuJtach0/BTeA0ugSuYZSnVKtzMIZqna5xIadOGXYsRLJkA6036ZcoyZZ1cArVKzyixQhDaDxAgQACfc8uyJEmmaS62wWIWmfXI5/N/8zd/09XVddNNN2na8hmCTR8M4/Cb8M9LeuoDEs4AZ2WsE2wvEq3z4RmHH8ATcIN78Zbne8SHH374Xe96lyi2gfY2n8//4/fuGdn3PyPJi1LW7Ut7YrqIDmqV5DTxaVRzEe9rFxwwwYACnIZjcAqmwVyS2buAiCPWbeNl2TkI1KrdrnqkdqACFcj6wX7P8D8J22AX9EPY9/9vMMtYgDS8AyT4FY0Vw5oDG/kMAxLWTo7LTZj2VOF1GILn4N0w0DpCcRetSscEyexmrqzkQC4eDCgbyfhtmbLEaC/yGfRywPUDzB5yWGgQW2gb19/O+8UVzr0z645zz0UxxKA6RIAWhq7ruq7P1+dUKpVSqQSk0+lld/Lkk08+88wzH/3oRw8cOCA0oFBqOtEX4CJ4O/xwufpZAm4vo3FyQ2ydpKOC7tN9G0bhX4h2nr5x/F9++q833HBD6/tsOo7z2GOPPXysbB26cuEt0rB9ySsg2ujlWuEixVqkPzShAFk4C8MwDBNLms27Ao6IK2MqWAqGRjVMKUTFs550EGwkG8nX/itVQgaqiWIjnTfvd8CCURiFpyAKMeiHnTAAXY251wjQBXeAAC+sdrARTzMoYw9wRl1rDY8/nWAYfgx3QM+GDzwukkW0QNc44com70mr2mb0zm9Dul8OM9bNwJlFeq8AFxK5t0VsqfZyxFpJB2GRjV0BS/bHKgFHxBGxJSwZR8LxGL8A+PZQzjmLWK9AhFc0WrIDe6gArYV0Op1MJk+ePGkYhqqekzZks9mpqalwOLwsubVt+xvf+EY6nT506FAikWjkoOuxvC3DfpiGnyxX7kiACOXdvNbFxDidk3SWmRmxbaRR9wrjwX975qlfPHX7225vcfud6enp+//HwyeilxPtWeDfKgzWyoIt3NcpBqksySxadRHDnDwMwSk464vvFwtOOwqWRkWnHKKqUlUxVaoqhkZVwZRwhIWJuWAjVVErhKpoZfQqWolIFc2tnYRgI1vLq44WQwEKMAy/hC7YCYO+a2VqidYBoANuhxycWC0Rl06ytYq6jSGdcjMGAweOwiPwVohtIPN00UukM8Snke1N3o26UIxgBrqd1kAujlqlZ2z5WtsBNtMz6Ag4EqaMJWPJmAqGiqVgyZhyHdF3F45FuSKOUAvhr7jfdJBsFBPVRDGRTWQLxfvpU/8AATYKfX19PT09R48ePXbs2P79NVG34zhnzpwZHh6+7LLLZHmZ0WtoaOjJJ5/cunXrFVdc0TgJXw+ocBVo8ADklz8np4PJBNO9jIzTNUKfgVqL7g9oZ2/Ifu2fv3ndtdc1ssCxYT2d6z7xxBP/71On7et/F1lbYELTwyxD0TkdVTJLOoO+oKu5BcPwMhyHCSgsUkDKlbB0ykmyUYphiiqGgiVh+QGR5SHiilgKVpSSCw6iF+m36sRGJkqBSJZklqSJulo2a8AZGPE9OiMwCBfDVtDAgNA8/UsFJNi5aqIPgoU6TH8ZfS+vRlZQc3cFsOB5CMHbl5u4NAsO6Sk6JtutQtqqv65AWb9Qi2S1IASyKaIF4oWgLTY/TIlClGIEU8GWscVaAN6RVkXZVwcRW8RWqFBzEBYdRG/0slENQhWiBbQq/z97bx4d2Vme+/72WLVrLlWVhlar2z15HjCeGvBNjMEkFwIOxmHwNTgkAQzkBAI4ZwVWcMJal3sMnMQEjmN8HSBkwTLzYfA1xCZgx2YwNm3TNtjG7Z41lVTzXHu4f+zaanW31F0q1bAl7WfV0lKra9j17W94vvd73ueVPMbvoe/YsmXL2Wef/fOf//xrX/varbfeav+xVCr9/Oc/z2az11xzzUIIu1wul8tlRVEikcjiuPaDDz5YKpV27dq1a9cudxF9QINLYSs8CHsdz/blVwcU9Bj5CIUtHKrja6BW0aqyVr5We/DhR776ra++8+3vdG1QP5/Pf/x//dvstutI7ljC4ykG4ye3vQWg1hlOE80fT/Etx9lmPzwKh6F+vDy9JbWXMFRqcXJxsmGKKk3xuHPO1azXSJgSpkrzhIseIrOZo3XULPEjbK6iGcgdiXwMp8BaFibhcQiBD+qwCy6DYYf374eHYKozjf7xHynPk3wCbQfPJ5lf7nBjNajDI3AZjPY3qiZYaFWSaSLFVrLFRoAdDvRO61209RKp+05ZOtHDmh5x0JSp+ilEKYVbkptjy8ag95mWgCE664RFJYhgMWuiNAmVWsUkZa8EhId+IRAIvOUtb/nxj3/8+c9//uyzz375y18OfOc73/niF794wQUXXH/99QsJqP/yL//yz//8z1dcccXtt98+Pj7e2ks3m/fff79lWZdddtli5Y9biD4gwSi8FsZhD0xC8/Tk0pJo+Be5vJshofTfhM/+7f+46NyLdu/e7cKs3Eql8tk7/uXh0gRXvg7hpMvzwxYInTQJiibhAsm5k1zNDZiHffArOHiSPscSMX3UgpSj5GPkQxRV2pXECk56rODEmw3QV0Kf7fNVEUOmGqA6zGyO+ByJEuEyAb1zH30TGpBx/vkL2As74Rw4AHvpZgBeqBB8hnPGmRzniEat6zO+Dgf6S/QlnViuFcj3FjAPg9166YrXDOsTukg+ynyCuh/L/QYZwrFYQF2mrjGfRGkQKhHN46uj6BsoJuJhMH1QEH7v937vlltu+fu///t3vetd5557rmmaTzzxxI4dOz7ykY+cc845C8m1jUajWCxWKhXTPMb6pqenp6amotHoxRdf3P6HDkDKGoCXwA7YC79ZeVRWxIqca1XfeORT/+u2Twz/z507d7rqLhqGce+9997xvV/yittR/EvsdbZA8iT2K+kk08SzqCdw9Bzshafh0Ek1rSyFRpR8lHyUQpiiQlM45Z0OOAVs/eADFXzO77LTFXTHYz8LWcgtU0lruVlURR8mnWC+hj9LLEc8S6xGV1IjK/Br+C3odN8WU2jiO8SWMoGtHIyR7/pcfxh294lYodZJpYnm16dHvoc1SPa9JliHt7ShkBkik8BYuykxAk0fWZVCBK1KoEKohFb1VD0eeghZlt/+9reHQqEHH3zw0KFDzWbzpptuuvbaa1/+8pcvDtK/8pWvHBoaGhsbi8WOFYXx+/3vete7yuXyRRdd5Gqib9PdMUjAefACTEIGclCDxlJhfhFEpwqpjcTrzGef+dGdd93x32/521Qq5ZL7Z5rmY489dvvnvzpzwTuJb1misbcu5bao1hmeIVo4PmGtCS/Az2Df8WVoActPNUU6yVyQikpdXEaZ44chGIVhSEAMfKA41W4lkBZF9BembwMaUIUKZOEg7FvhfkzCDFIJUEkxVyaQZWiW1PGuqR2j2cPbh5RmuIa2k98lyHSX6x8FvQ/jzSRcJDVHsOzFpTy4AqJJsOw1w3pj+eUAcymKobUQyG+D7hsKJZlyiFwMrUosR6jsZZB76BVUVX3zm9/8h3/4h/l83jCMoaGheDx+gj7l8ssvv/zyy094YSqVetOb3rTircUgvypsghEwwAQDmlCBBtShDk2wQIMwyGBADcp2RDfE3F+Uf3bb//uFLw69++b3hcODL0xkWdZTTz394f/n078IXWNu//0TdzZBOAOSx7N8wSBQIZUmtLiujAk5+C/Yc3zlWktGD1MYZXqIrI+6eLygXAAZVEjCNtgKwxBeROjbUc0LTnQ/AEMwDudAHWbhBdgHM1BtL6gugI+GSiNKfjOHc8QPs7lAxOjcpacfU36R8PPsEnk2Tq6LV1mCuZ6qdyyUJkPzDGWRdY/le3ALtAohT6C/jmAKZGPMDtNU11cyjIAl0PDR8FEMo1WJZ4kUkYzWcubBQxchSVIikUgkEn34LHnQI+uYaMRGvP1XbuWCD5Y+//Hb4l9N/F833BQIBAbL8g8cOPC3H//0f7KbF78VRVugugRhFBIneMRbqA2G5olnURbHymvwAvwIDi48U8DyUY+SG2V6iMzJNZ78kIAUbIXtMNKl+yo4In4FQrAdXg7z8Bz8DuahDJXTRfqdRIvmCLNDZGZJHWaiQtA4ZZ2wgXP9few4k99FKHTrEhsw3TOiLxpoFUZnCFQ2+oLUhcRzD13dfw5lEL12WEcsPxNnatO6COQvt2KBKVMOUw4RLBPPECqjND2u72GtYm3bTU9s58a/LH3zn/6+Vm2+5S03JJPJwcx9prlnz55Pfvbu+6rncflNqAEAFRIwAlFQj1/6lAbBMrE8oeKiNdCEOdgDj0F24cl+qknmEszHyCnowvE3zw66n+GcFvQ6wiLBMKTgxTAHGTgKB5ww/2lj/Ar6OFMRCmlSswyXCFsu5QBCjvh+zjiLZzXq3ekkdOmNTiJSaoNYlngWX9Ob0LCEHhgneegUat3T7awrll8Ik05tmL20QDlI1U+oRCxHpOh58HvwiH6fVnJEA0VHq6BV2Rpj15tmP/vl//ufZ2f+8r+9r/8Vc21d/kc//j//U7rSuuLt+ENEIAkRCJ9EveUm8cwxT69j/2XAM/AQHFkghDLNFLOjTEcpyMdTfAUm4EWwCRIQ5HR82UIwkUwkvUWGjl2/iCFirSS8LkAAtsAWOAdyjrDnV9DOmh6iHKCaYH6GkSNMGC7thMIcKRn9LJ5VMLoy0mI9GAuBMsOzBCuInpzUbhIR0wsguwaBiid0Xi8jCyraelTsnG61M2UKUaoByjniObSaF9r34BH93swxgoVWIZ51qlsbrarXgsV5m/nvb53953s+/ZG/feGDt9y6a9eu/vjrW5ZVq9Xuve8Hf//pzz+z6XXGxW9mOMQEREC2RfEWgGAhGvhrhIuEi/gaixy8DKjDNDwKv4GKLT2QaQ6RGedohOJiiq9AHM6G82AENEd5f9xkTKtEiNTE18BfR6236gLKBoLpUPWFVwit4uR2/cKKRiWILjsns6eb0nxOjP8seBHcBwfbck01IxRDlIfI7GdbgaiJ68zPLcQZRv3UdvDC6q/MB2Pd3u7GcozMeor84xtG8OS0LhpC4eLS1U89rDnUfEyPUtM25PgSaKpkkhSixHIMZVA9JY8Hj+h3camQddQ60TxD2WWDQ9s2cevby1/4yj0ffs/et7//4y992ctOTmHuLprN5oEDB750z9f/8f49lZd/kIv/D+ISYZCt1v5DMpCbqA2CZcIllIYTdbegDmWowgvwFBy2E48FTI1qgsw4R4OUFq5egggMw4VwAQSWpH0mso6s46sRLKNVUZudFAGxQJcoBSmFqWo0VYzTBfuFlrEmW+Bt8Bj8EmZOMvxfku4nyIQpHWXTNGNlArhMyWMizTKSIh09fUHn08A+4+nOptckWCExR7jUl6Nky6nYZh67c7iVT5uCF9F3C/w1/HWPD60HmAJTY1RCG3vfKtL0kR6mGGZsikDFc+H04BH9bvCscJFYjkBl+Q10EwpQIlbmvedztvX012+/+acPXf/a6958ySWX+Hy+7o92y8pkMvf94Idf/tGDP5aS9ff9D87Yjmqi1FAbKM1W/Fxt4qujNJ34vQUNyMJROAIzkIO5BT7so5YkPcpMlILk/NE2JtoG22ECgifF7wULtY6/hlZFq+GrIzdXRZYFUAziBaIFGj5KQQoRKkHMNgLutqTnpTAOj8Ke03F9HGeerRyMkTvC5gyJJqqr+mAVLctQhOIq+Uq3yj2IBol54tleVsKyaX3Nsb5qQgN0p6SCBFqbirFBLMaeRt9NRF/28kbWBWo+SmGvGVqLVi3A0c0k5ojlvQNVDx7RXwXFVxutKL66JKGxoAYZyEIeamCiwh+exY7E1H2/u+vTtz6087L/88/+/C+2bdvWxdB+tVp96KGHvvq/v/vDojX9sj8yL72cpB//LP4aahO52dLHCBZCHRpQgYpjrmgXDJi3JTrOpGEGqMTJJklHKSwUvQrCdjgbtkCCk8ivhdIkUG6p/dXG8YL/rhBK8Nfx1QmXKAXJJKi2d2grw3ZIQRQehXaM9SSsIXIBqvNkjjBeJOKeJF0TqY5qIQirqPoThQu7wb/VBsk08VzPdM8Lu9EMlKEBhvOwjrthzEACRk/efQ6a6Ivr1w9kbdEhE38V2fBaYj2gFPLa4Dg0VGZHqGqk0t6xlQeP6K+UZ4CvxvAsgcry9agtSMMLUD2RgggCu5JMxOpXpZ+857Fn3/mf37nmdW+59o/fMLFli6ZpoigulBdewUVZVrPZLBaLP3/00bu++PmfVzLZG69rXn45yRC+NKKBaCDUoISQh3nIwBzkoApNp0iAbutzREwJw0c1SCVEMUwpRFmhKWFIoMIwXABnQhx8Cyp8C0A0UetEigQq+GpIRovw9W6WEcDXQG0QLpKNkxmiqXLajxQgDK+A7fBjONBesS0f9TGmYmSnGJtkUwOf5Q6BiIFkIoqdpuRK8PL2fWOXGReiSahIKo1W655cx3J+2mqyAsxBAeonMfuTWsQ+RmMWJmAUFNeECLyIvkuWliZ+L21xXcDyiP5Si5whk4/RVNl60NvQeuhoZFmWZVmAIAgdUNOFdzjty11D9C0EC6WJVmFsGvUUB74mTMNzy6R8GghlNIOLfFx4ae2FzG+//L2P3vKFT41euPuq17357PMuSKVSQ0NDgUDg1Am7NrkvFArz8/OHDh/6yWP/9b8f/cHv5FzztVfyx9cS9sNz0IA8zMIcZAXyArqAJWBJmCKmiCm0XEAMCUPCkNHj5KLkNGqiw6RE8EEMdsBFMHHCXbGzFBoEykQKBKpt8DzLqXC7OPXWclinuGKBtQCqznCaUIn5BKUQunJ6ru+Ds2Ez/BQeacOQRwABK0h1Jy9sYnKKsXkSZUL6oAtsmYjWKi7gQrhoNSIXC1+dZJpYvkuB/IXqx3WoQcFh7fqK24UyPANF2OUKrm+BLqOvbdPg9UL0DRRPt7MuUFc3mNNO+xOOSDlEOsXwrOcu5WFlBD2TyTz77LOzs7OyLI+NjW3fvj0Wi62I7huGsXfv3kOHDr3kJS9JpVJrgOgrDWJZwmW06imNAi3IL2PsYkIFZmCyVVNXgB0CHx5iKlx4fPI/fnHbT34Wm1C2nR3detbI5h1jY2OpVCoUCgWDQZ/PJ0lSrVYzDKNYLM7Pz8/MzKTnZp47+psDtWcPGc9ltzVqf53ynZ+UYkcM4SsmAjQdUtH0U/dR81GXMWxar6ArNGR0CVNCF1t03xQcUxAZNAhBzKl1dQaMgLSIqdsrZaBMoEKwcsqCHZajr6gvKizccETVYmsL1NpSqOADP/gWHxm0RfeDVfyTFMJkhii3J9EOwdUQgJ/BTNv9IUBtO/vHmJ4jMctwnpiJNLAxuczBUjsIw/kQWsVn25WwwqXufJNW5D4PeSg71adXiaOgwJYTSsIN4k4JNBW8+kxugGh6lq/rBFUNXfKaYVlkhlDrxHOey76HdrF///7bbrvtvvvum5ubE0Vx06ZNb3jDG97xjnds27atTa5vWdYzzzxzyy23/PrXv/7GN77heqJv4a8xMt2ehUgDji4VHDYhDYcgf6JMRIYJ2BzmVaHGVH3f0QP7Dh/4/w7JwcPhSFmO53XNkjVTUAVZaJjNUMDwKRUrmBei2dhoJbK7NnIG2ji1pFxWpuqkbRVHExkQsBR0CV2loaBLGBKWHTFf+CmD36kv6wcFIpCACIQgACEIguLocyQDtY5Ww1fD10BpojaWCRXYYXsdypCHkpM0aWdPnkJ6YV+ZCiqEIAGxFYRjJZNYHn+N9DD5aFt6aBmugIQj42lz9RcgQHUzRxJk5khMMTagAluWQlNacbi79RW2wLZOY2GCSbhAao5ApRsUvwjzkIMiNLrB7xfjCEiwFQZKCEyRuo91AMvR/AnONLLmYBfu8LAO0PBhekR/eRgS80nUBqGyd+zh4fSYm5u79dZbv/rVr5533nlvectbFEX5xje+8dnPfrZYLH70ox9tsxjU/Pz83Xff/cgjjyiKYut/3Er0LWSdeKZtCxG7dOzsSRzFgiw8B5VTskaBHX52gCFYNUp1pdRITTYiGCq6iakijyJvRtYQNGoJqqM0QlQlmgI19JKl25WhpgVyTlGruFP9NgaSw58lUECmpThZ8KMXnWVbsRAXhR1bPvt1wgWCZZQmklMi4GSP/Ba5L0IOcg6z11mBgNz2SWxCGXIwDRokYdhJrGzDXcdfZ2QaCwrtcX0FzoQE/BD2ts317V1JgMoE1STzU4xOMl5vxY37M6NaYQojzIgd8eIheBmEOxoaokEiQ2IOZTWuDpazPZ6Go1CDHmlJdTjiFAsYXEDdEKlqa4nNLwzHknPEUnZqTi+ELDSYgDNgnGMGtO7nE6LlRfTXA0yBhrJhSuF2uKml5mcuhdpcxjvEg4eFad+yvve97913330XXXTR3XffvWPHDkEQrrnmmptvvvlLX/rS6173umuuuea0Qf1ms3nvvfd+6UtfqlarinL6MO3giL5FJM/IzEoy1htwaCmmYsKB5Vn+Aj92PkaCIATtRVWFzTAMfijDERgBGQpYNRp+an6aSuvRUNGVlgSnKQIojlH9CUVhLBAtp3wVx3Ym9u+2yb5kIOv46gQqp7TNsZw8XltOnXEist3iGk3HovQIbIVNtONvKYCvyeajTBlkh9ri+hIMw5shDo+158az8FkCVpDKTl4YZ/Iwm+dIVgn0vsaWOUTmTJ4Lt1Xw90SE4Y2wo4NVw0SrMDK7armO6ThTHYBq70d0HfZDGMID46F1H3X/WiBPzjncHByF/TANteWf/ywAITgLXgxbwf3fUrA8JcN6gC6fPiPLAwLFEBUNteG1hQuQzvLCFFKPY071TpKQ0un0d7/73Uwm88lPfvKiiy6y/7h79+4/+7M/+/CHP/zNb37z6quvluXTMPMnnnjiox/96NatWzVNKxZPX+RnMERfMAmUGZvGt6JRkV6GHlYgszxFzkENdKdarQw+0MDW8jbgBZhyxPIxqMBRiCBE8IXx+VqaesuPrra4flOmqQDHXPIFEwEEqxX5sEAynKj8osC8aIKFaCEaSOYyhkKmo7PXnaTJEhShTEf6kbbRgH1Qg63QXlhUMhmdxhTJx9r1NFTgGhiCn46SoucAACAASURBVCxz004NjdpO9o0wkyY1R7JEyOqNWETAHGL+TJ4L0YluJgyvhO0r33fJOtE8iXl89dV9AZviT0N2JQcoq0QVZjs7wugOSiG3MxITcnAAnoEDUFjJmC7B4/AcXAEvH3xChIeNQvSbXnZ7OxApB4kWvFLQLsDeAofSiD0m+vlOCNnk5OTk5KQsy6961asW/ujz+c4///yRkZH/+q//Mgzj1ER/ZmbmYx/7mCzLf/mXf/lv//ZvTzzxhBuJvmASzZFKr3Dva6vzl8TUMlTGgoMw5SiS7ZtuC2s0R54eAgWqUIU5CMEQJKEC8+Bz5PMSgoYSQYmA5ijxRZsRrgKW41xuy2/qUIEq1I63MO+bdZcJR8GE7e3GDCWT4TSGTLHtOK4PLgEF/hPSnUynVpRiiHKKdI7YHMk8UaOrzjwCZpL0Dl4IdsTyNXgpvHjlL/TVGZ4hXEJaTVUEA/JwCHLLOFP1FFOwhYEUPbNwe00fE/bDQ3BwJSdaJ6AID4EEL1uySLZLYCF4up11gaYd0ffQzlY8jDGD6FltDhw7drPjUqQeZ5ZMHengRdPT07Ozs6Ojo2NjY4v/Pjw8PDo6unfv3lKpdIpKr5VK5c477/zpT3/6oQ996Oqrr/73f//3dj6030RfMIlnGZ49pYfMkmv4zDLiHGt5tjh5vNTHcH42oAwZmAI/xGAIIo7WPw9HwQchR7auOtm1sy3pvSA75wOK04SCY2hjm1pKYDoHCJbzTAn0Vm0vdKg6huULtuXmIk/MAZKRafC3m1gp0DJ/bCrU/Cvg+i+CEbgfnutoIyNhRiiGKY0wWyYwzegsw/qxnOKV8uSFIIwVpDzC9BjTGrUO2LYM58PlThJ2+/u9cJGRGbSOrcftTWMZDsP8KYUgPUUNpmFiAJH1huzqTFwLfg33QWbVidANeAjKcBVE3XqG4cU11wE8v9qVDUyVqoZS8lpi0JAkZKXnRL+z3WCpVC6XJyYmTijkGo1G4/F4o9FIp9OJRGJpdmaa99133xe/+MXdu3fffPPNzWa7kTy5z9OGWieZPqVN/tJRBZhdhg8ayx9+Hz4lhTQdG0rbr9MPm2AENDCg5jD+BS/MOESdEwCFnuvDV0TvOInfrubajJZ4iURb7yNAqMzwLJObVhD7sf0Y3wZ74adwdOXRZ1u776fupz5Edif7MgzNkSgRaqLqyEZbJQMsEVOh6acaI5dkLkJB7mizJUAEXgGXrchT3kJpkMgwNI9sdtoHdKjAEUgPIop/Ao44SS/9RSHq3pRBE34L3+je/qsKj0AWXgMpT0Hdh2mWjdjKloAue91rBWtALka45DWYh+Wn7mq1VqvFYrGT9iaSrdjJZDLLsfzHH3/8E5/4hM/n+9SnPhWPx2dnZ11J9CFUWqEu355kM8sfdXfrmKwGL0AaRiABQYfKL05XtT0ygxCFIPhBcn722mnEckL+gvOwE/oqjgGQ5Xj6SGA5eQhqp3e4Bocg3K4QWIBInrqP2eF2xfoLdP9i2AyPwVOQ7jTYKYCPxhjTI8zUUYuEKwQqBJqodVQD2XTSIkxEHGtUH3U/1QCVCIUIRZVGxxO0DNvgZXD+Cm9roEIqTbjYUeai3SWKMAszg4vin7wtL/Wb6JsCRRfrdubgwW7fHwueBg3+ZMCmpssOyTVJ6E3nZNVwzlftXCkBAuCDjUR8LQHDC+evBJUghuQVyvWwLAzDMIxT9Y/lBPqZTOaOO+44fPjwbbfdtnPnzpXyk/5BMohnVz5J6pBd3mdGX54bhleuhLVzXmchAVGILljc22wCKlCBOVAcGq05DvkSRBfxmwU3TeF0gaIFBr9Q2cr22FlwxLdPLWzvHdFx7qxDEarOgYa1aA+Ak4egQQySHbGuDBxZgWuMCMk56iq5+IrL7g7DK+FMeBqeguwq+piIpVHXqFtgIBpIdnTfbPl6iw7RN2V0Hw0fdRl9lQu3nXXwUhheyataNvlpAtVOmUMNDkMGyoNWfA08TOKn4XMpA6vBY3CkN2/+JFwE57iN5VtrTalsW1TZ0s3mIq6/mOhri5K7gq7cXfWC6HsO+iuicRI1H6GK1xIeloaqqqqqlkonclNd120pTjAYXPKF3/rWt7773e++/vWvf8lLXmI77eRyOV3XLcsqFouZTMbv92uatqQ1Z1+JfmIOrYOgVhVypySYy2ELTHU04xegBAr4Ieoo+H3HE/SFurM5jilEFlflXCiXpYHsxP4VaDh25gZUwHQODUTnbjQd1b7pBPIXP3A+y1qqnsDi/Y/tqDgPwOaOgluTMLaCjD/RZDiNLlOKrLz3ww4Yh/PhF7B31QoUAWRMGdPXYy1LFK6CF0NgJTxT0hmaJ5FZYbLK4l5qV4gruI/iCwPgQG4u3pmG33bPEfcENOHHMLGa6ss9YYjIOmsDFlRgEuYXxU2WRAPyIMFRCMImSK5zuu8R/Q5arO4RfQ/LIxwOh0Khubm5E/5eKpUKhYIgCMlkcskXPvTQQ7lc7oEHHvj1r39ts/lGo7Fv375KpXLLLbeEw+Ebbrjhne98p6ZpgyT6UpNofuWcxoIqp/Ixl5efasOwCSY7DfAsKPgPgQzjjoL/ZFNhcxG97s/K1L7Mw7ZZHFmRbHzRwjYHW1ZA8Hx1UnM0fDTUFYdX7ZDZdtgOvwc/gX0uDlX7YBguhEtWaBwvmARLjMwQqLa+9Yp7ZgkOw7Rbm6bvRN8QqARcWrzTgEMdBRzax0H4IbzGTeb6ouVuQ3HTOSCtwDTMrmQoGY5L2zwkYMe6je5bYIo0VDysoGeJVANYWU+m72FpbNq0aWRk5Fe/+tXc3NwCp7csK51Oz8zMbN++/WT5vo3h4eEzzzwTWDDO13XdMAzLssrlsmVZtVptuRK5/SP6oRJKBzzYDrecgtcqEFm+WtZmKEJx1Vevw0GYhgSMQ2xN9Sxbyh/taDksHFdrrB2OFywTy5JOYXW0+NkfNQ5vgOdhL+yDvJuaU4VNcAGcD/EVZWdYyE2ieYbTHY0Fe+s1Dwe70aXXEdFv1clyq27n+d7vJX4DZ8BFAy51vqgLWCt3XOhfd4FZyEIJqqvYLVswB1WYcOSR647c1RVXO1m5Ew0VU0Ty7GU9LIWtW7fu2LFjz549991331vf+tZWn2k0nnrqqcnJyT/90z+VHLMgXdd1XRdFUVEUQRA+/OEPv//971/8VvPz8+9973v37t37qU996oorrgiHw36/f5BEXzAJlZE6UG2anL4saRymlyEcIdgK+7pUGbQOk1CGFw3GKbxD2HkFkY7WoSo0VlabR7SIZykHKa8iOdKO7p8P2+AF+A3sg9yqfQlXT/G3wDlwJoysNAHbQquQnCNc7GgNsKAER2GmZyqQLhL9PhpvW9BQ3Rt3LMILvf+UPPwKtkPcNURfdiHRt8NG9glLt1IIyvA8zME2F3uddvzlQiszV/CAgC7RUNDqXlt4WAJDQ0NXXXXVf/zHf9x9991XXnnltm3bgGefffbrX/96IBB47Wtfu2C7ef/9999///07duy44YYb4vH4yZIev9/v8/lEURwZGdmy5VTSiz4RfbWOv9apFvm0sv6h5f9LgmGow/7u6WqKMA9ja6dn6aughnbNgRUGddQmo9PsC67WjMjeqZ0P22EOnoYnVpeq2zEU2AWXwGaIni7FeokvYhDPkpzHV+9oFNjFIg5AcS0k3fY3om8J1PzuVRL/to1IRVewH2Yh5g6qKZju0+ibkIEDkO/2INJhDnydBlNcjGIEDyvuDgp1n0f0PSwNURSvv/76e++994EHHnj3u9/9R3/0R8CXv/zlPXv23HDDDbt3717Ipv3lL3955513Xnnlla973evi8VXFcPpC9C20Kr7OvOXaIQ0ajC4T1Le5vl2q83nHiXL1C8YRiK2ds1p1FerdOpRPuZVa5qYFqozMMDvShYCQCCEIwhb4fdgLR6EAeShAHZq9ifRLEIAknA3nQ8LpiSsq9CY3CRdJzuGvr/C1C52tDkfg0Nrx1VF67za7eFmVKYVcOhJ1eLxfn9WAn8EOd6h3Okwx783qgwlVOAAzvRxEAdYZaj5qfjx0MCNVAkQ6c0z2sAGQTCbvuuuuD33oQw8//PDjjz8OhMPh97znPR/4wAdSqdQC0R8bG7v44ot37ty5nOGmoijnnHOOKIqRSGTwRF800aqdFgMS2iCpIkxAYXmlvghjoMJByHVjri/CJGx1jST21IisItRkdn7GPZSlqlHo0nG24AT4X+JcVxUOwyRMwRxkHROjVW58AxBzyoXZmcFaR/RC1gkVieYJlTvV6hgwD4ddIFpaKdHvF8uzoCm7l44cdVyv+oPnYB5G3BBbaLiD6Nv2aNNwtMcHK3ZFxXUUzrcgF/NKZXW4VpWD1FUvqO9hmQ4iCGNjY3fddddjjz22f/9+QRDOPPPMF73oRYHAcdGCG2+88U/+5E8kSTrh7wuIRqOf+MQnDMNY7gl9JfqS0ZGr5gJH959+XBGBUTi4PCsVIAF+mIapVZeuMaAIzbVA9EWIrlh7s+jmdfgdBZB1hjLU/DT8PflaQTgbznKMhdIw69zezCm3J6JTtEB06g2EIAxRiEHC8VPVOlOgWEg6oRKRAuHSKiqn2B757imDtQKW19dPqwQw3ToMn+meFLwdNOAJ+AN3EH1XwIRJONj7ctF2bcF1RIvrqqfb6Rw1jaqGv+5tlDwsy/VDodBVV1111VVXLRs90LQlvTKPMRlRDIXa8lXuE9FXO97a2lmZwukimhKMwvwp/VkECMIZkIQ0TK+CQg3B1lWw5z6zrsQqpBRi531EgGCFUJlML5dAu4OMwyanzlgZZmAWGiA5fH1BTiI6hYwVp1KCAjKooDpP6/xiTSJF4hkCVWS90/exIAsv9EBM3B/0d1yUgy5thirs7/sNfAZe4YL4g+KSTFwdpnvP8u1I0zqyobSgEPGMNVfRgCK5OJGiVyLXgyvQ+xXBQjQ6NRO0EYQwFE431YbgTHjqlAY7AsgQhQhshQzMQMkpQGue7iNs1rsZtqw8H3Mw20Yne3Q1HWQV071oEs9SCnViq9/Bd7XJehhGjy8vdvIzT/HPDnq47TESKhHLEawgWJ2+pwE1OAqTvWcnPWR5/eXTmkub4eggEsdLkIXUwNcVl2Tizq28OHpnO9vwOgznm57fzmpGYohiiHjeawkPG4Hor1KvaQdsY1A8XVBfgCHYBs+0QdltVjgKI1CDEuShDA2H9FuLWsh++CDkbBLWxAwowCicsbqrFVfF2wQIVAgVyST6+r3pz7JrIZj464SKRIpo1VVkX9mF4WYd/1YPbe6MRJpujTtOD+JOWm44BHJJWVxzeYeG7iIIofVD9C2oBKj5PYH+ateh+QTRgpeS62FjEH1ffdXXGIfZ9pQ2m6AKR9s2lLQ3EhokHRvKBujOaik4Cg/llCV43cnyh2Hnqq9ZWm2AVoDkPMWIewlZZxxCaRKoolUIlfDXVrGZsvMF004Rn3VQZqWPw6QPJ0WrubH9X+LV1R3gdQVaBV/DBa2fO905cLd6+9AakXG2B12mEHGvX+0aQt1P1U+w6rWEhw1A9EOrPzyNQ6g9oi/CNlBh/wrN4xc4fXDt31UBUrCzM7+YExbtLmhPfXXiGWZH137DWogGWpVIgUAFtYlkrEKoA5iQg0OQW8tanZPHYL/QVNzbDH6Qu+To2z5iA+ecJkMZRHPA45QsPN+92imngAIj6yqcXwpSCnvh/G4MBZFSyCP6HjYA0beJURcuMwXZNjwsbBX+BBhwoC8TvdsgwWZnt7PKyVqEeBd4mwDxLMUI1TVnNW0BiCaSgb9KpECwjKK3eIywmre1i3QegakN2Uu7BN3Ftlf+QSTFDg+WoVmES4RLgx6zGXiuL+p8YGQVVUrch6bC9Kinzu9STxQohUjOd2Sv7MHDGiL6gUo3AnwCjMARKLb3ZLtIVh0Ob7D7GYBNsK1LUVUJ4t25LkUnXKCqrZ1AkYWkozbx1QiWCZbxdcsa3Jbjp2GyX1ykz+jjLXYzI/EPQus32ILdkkEkP+hqWU042K+RpcD4+gl+GyLTIzTXkQxp4DNhU6WiEfbSrjyse6LftSl1An6zkudvgzJkNsadFCEBEzDUPe1EoGvlHgWLYBm1QcP1q4io468RqKDV8NdQ60jdklrbUfx5mG/veGqNoo9yGsvFRD/cd8dFP0wMdG8cKBMqDZr31iDXrw3t+PopiGtbanre+V3edcpUNUJlTwnlYR0TfYtgpXvvloRwe0H9hXXvbDgA0+six/G0u5oRp+ZAFxu8S+8mQKBKqEjGndmTFqKBv06gQrCEr97S53TzSptONa/yetfqeBFBh+j3U9OhwSsHaqzprzI8izrwVJO5fm2hI4M+QOkq6j4ycS8Ht/uRiKqGLq/OYdzDOoVpmvV6XVEUSZIEQejgtaIoqqp62tf2lugLZlcrpyiwFZ5tO23RNtc/GyJw8JT++msXdj2srY6RcxeZqQxdTZ8VTWI5SmHXOKVYYJdtrhApECqh6AjW6pJrl/oIDKjCPphf7xvOhT7Zt4nSxYGyAFwIh/tCO8PwCrhsUKWyLOQmE4ddUAq02i+5pgKbIbBOdDumQD5KOejl4HadA1H3eUTfw4mo1Wo/+clP/vVf//W5557z+XyXXHLJTTfddNFFF/n9/jYZ/5EjR/7hH/5hYmLib/7mbwKB0xws9vbkWzIRuugwJ0ISNq9E+mp76WyBCyHpgoqR3aVTI3AenAvRVRZ0XQqbuhyabRXKLbqi8QSz5QW0+TBbD5LM4G8gmYjdZfk1SMPvYA+kNwbLl/o6ytys0Rfg4r6YeIXhlXAF+AbE0ySd0WkXsHzbgKHRl1ubgtQaKajSzkTlJxdbJ1/HbWioNBU8M30Px7pEo/GFL3zhjW984/33329ZlmEYX/nKV970pjd99atfrdfb8mkzDOPxxx+/7777pqamTPP0xGKtMV8FNkER5lY4L0fhXJiBqTZqb7kcMgzBMKR6Fj3VYLj7874AiXnyMYxB9TsLWcdfI1giWCZQ7Vk1kxrMwywU+sI8XLX/7CPds9wdgAzDhfBwLz9Cg5fDpf2uR7wo/GIwlCFSGDTLty015/vyWRpsGlyL9wC5KHVPcdejYIREQ/GawcMx/OIXv/jHf/xHn8/3vve971WvepXf7//Wt7716U9/+o477ti9e/dZZ521XFDfNM1qtTo3N/f444/ffvvtU1NT7XPGHkKXaMrdLp6iwWbIr9B33C6MZeeqTsHRNWtbHodxiHdbjn8Ckr2q9eivk0wzM9rv2KNgEigTKeCvoTZRml2V6JxAOMpwCNIbjOLbCPX109wvKb4EnoZsb/b7W2E3nNf3rN/FwypcYCjjAgPBJsy0V2tl9T18hwvKknUPDYVs3BPt9G6Q0FSwhK6qGzysWTSbzW9+85sHDx5885vf/Fd/9VeRSAQYGRl5/vnnv/a1r/3whz/ctWuXJC29sE1OTn7mM595+OGHjxw5cvjwCkSKPY6silQChCpdHjYkYAc8t3IthARhCMIoHIE5aKwFQYVtGBqETTACSrfl+CfATjKTe/VVhjLUfeT6sLQ4LvhqneQc4SKS0cuWs6AJR+EI1Nmgh7XDff003fVHkqNwNfwAuuiwZ6fPvATO6dV+vK3eLpok5kilkUwXhPMLMN/jQSfBKJzR4yBL31tuLjG4I9aNAUv0pDv9xTNPMZVH7LEWrZDv4EX79+9/8skndV2/+eabbZYPpFKp1772tffee+/3v//9d7/73csR/Wazmc1m6/V6KpUSRfHAgQPuIPpQCpGa6/asKMI41OHQyjPdbNIchTBUYRbmoAwN9zEzO8HAD3FIQqwvSis747mX8SrZIDlHQ6XSi9wvCywkE1lH1lHrBCqESz02A7HAgBwc3DB2rksiANH+cSBrLUT0FXgxlODBboSbFUjCxfDSwZZpslDrpNIMZd3BeC0o9bgKcQA2w/j6SvSCukoh6oXzPawvpEPMDSGIPR88K8eRI0eOHj0aDocvueSSY5RWFCcmJsbHx3/5y1/W63VVXfqdt23bdtdddwG2rP9tb3ubW4h+JUDNh9b1KViAzVCD6U4JughB2AZjkIcclKAC9UEbnNv8PgwhCEMUAn1MkxrtuUWfAFqN5BzTMo0u5g9aKE20Cr46vjpqA7WBrPf28KNFMiowBTNQYUNjqN+WO9ZaSB/0weUwD79a3fFhAs6HCwfONi0CZYbTLrDMX4C+EtvlDhCBbZBcb+mqFuSja+BYbB20MwJeVL+PK9EZBC9B7HEc6MD9Hbwol8sVCoUzzjjD5zsuLSYajcbj8aeffjqdTofD4e5eac+HuCmRSbBpsttLggA+2AYWzKxuCPnBB0moQwNqUHLiQzXQwejxEBUcch+CIAScnypI/Y21hGBLP+p5ChApIlrMDFPthkWdYBDLEc2j1ZCMnqXYLokmPAvZjWGqc+q5JNZXBmrIbk/GPTaJw9UwCZMdvVyCnXA1jA1cNmIRyTM8i7/mJtJrQKE376zAMIxDZB2GvesqpfDa2C2vbXgHJh4WBl29Xq/Xo9ETVROaptkumfl8vusf2o9luRAhVCRS7AHXD8BZIMLU6ri4recJgAZRSIEJFpigQwPqUIWaE/Jf+F8RFIeR27/Yj4V2NRedD1gn7Rlk8IEEovMmomOU2f+pwa66pfXp00SLcBFfjcwQ2SEnqtT+t3b093KTUIlYDq3W7RJX7VyDDs/2y+vD5Yj1W7dTDqylYGQK3gTfhYNtF0yTwAdjcCmc5ZTKGCQsfDXGjyIbLqMutR6USREhClud7eu642oWlINU/R4N7Utbe/Bgz1W1Wr1ePyGcDwiCIIoiUK12v+RT79dJgabCfKLldtJ9rq/CWWCtQsNz8s5bOmVU26b4NtcX14tkU4YzINXXSV8AX5PRGUJFMgmqGrqC2U5BAAulQbBMtECwjDwQqZWdevsCzHpzFyRgFwT694GmSDG8lgp5CrAJ3gpPwW/gKBRPOgQSnBklBEOwDc6DYZcYOVooDTZNohjua9x897iUAH4IwTAMrzdF/nGzl0IhgunpdvoyWXnw0KJasizL8sls3jRN2xFf07ofbe3LKBeoBMlHSc73xmFKgm3QgExfts7C6XYCaw4ibIKxwXwpAcIVtBo1P5UAVY2aRkNd+kBZMFv5tZEi4WJ/JTonQIfDML3hFTtABHb121iz6u+O6KvPXT0Eu+FCeB72wxzkQIegk5IThCCMwCZwVaFSWSc1R9CdWSjV7t0hu+kj6zOKvxjlAOUQHvoAQ1ozIkMPvUYgENA0rVA4UWtYq9Vs9p9IJNYm0QdTIhsnXOxBVi6Ohsfm+kWvI60cCTijy3VwV9wRTUIVghV0mYZCVaOhYsgYEoaELoNFoEqgjFZDbbSMMgcG2yz/8JqtxtB1lh/u62eaApUADXWttlkALoCznWwgE/zOQ3FlDEE0iGWJ5Qa6tT71ErB6+GEMNg/Wz6h/IygzhCnhoT9E34MHG/F4PBqNHjp06AQBT6FQyOVy8Xh8DRN9oO6nEEFL92yij8J2eKbHJmvrDzE4c8Asf/FtVHQUnUAVUwABS3AsC0A0+67CP81queE7TxR2QazfmyxbdbCmkwht1eEQDLn/Wi2CJVJpJMOtV7hKIiVDCsYhvG61OieMoFKIctBb/PpF9GUvou+hhYmJic2bN+/bt++3v/3ti170ohaVMM0DBw4cPHjw0ksvVZTuSzX7uFQK5GO9VNaIMAznuOzA2+WIwFn9S8BdEQ2SbDt8A8VosX/JPSxfANmN7dZXajUK50Dfa2qaIukkFY+m9BHxHIrh4mk10mmoQoIYnAfnQnyjsPyGwuzIerMKdTN0yUvH9dDC1q1bL7vsMlVV77jjjnK5VUdxenr6O9/5Tq1Wu+666xaqZU1OTj7++OPPPvtso9FYO0Qfav7OKgysBEk4B5LrS0Pfu9VxxwBLa65xKH3NPXUXAnAGnN1vxY5NU3JRMkNep+3jrtYkUHb3JSZhB6x076fBBJwLwxuI9TYUZoep+b1+3T8Ysudh6qEFVVX/+I//eNu2bd/73vfuvPPOJ5544umnn/7c5z73gx/84LLLLnvlK18pOgV977nnnuuvv/6jH/1oOr1aJUy/IxilMP6eehEKEAMVDsGkJ65YHjHYATEvrtMppA0Z0RcgDltgaDB76XKAuZTXafsKXw1Fd/1gHAUf7GvPUN8Hw5CE6IaI4i9Al8gMkY95vLO/4QmRuoqv4bWEB4BLL7307/7u797//vd//OMfv+eeexRFefrppycmJj7wgQ+cccYZgtAKYpVKpZmZmWw2a7vxnABRFBVFWQj/u4voF0Mk5nscjLNzc+0Az/ODLnPrToTgXAh4YdFVE/0NVe9QhDNgHHwD6Dm25CCdou7zOl9f2z1cXAvzhAQJ8MEzUFxUisRmtLYhsgIRiEMctL6XIxw0TIFMnPmE5/Y4iAhFkEjJawYPAIqivOENbxgZGfn2t7+9d+9e0zTf+973vv71r7/wwgsXp+fecMMNV1xxxdDQUCqVOpnlX3XVVd/97nc3b97s95/+eK6/RF+g4aMpo+o9/yBUmIAAPA8lr2LFopYJw9key+9GS0YhAvmN8WVtuc6mQbFNdIm5JMWw12/7y591YoW100vDcDHoTicRHKJvOER/o9rGm5CJMz3qnYYNBoUIozPe1OWhBVVVr7766quvvvoUz9m5c+fOnTuXnuoEYXx8fHx8vM2P6/egN0TqfVMHCjAEZ0HCm92cuz3skhqb6wJh2Npv//hBcD0YhnNhbGCXYEikU2SHvIHcbwQqyGvLQ1YGP/jA5xQptwuQaxuX5Rsi+Sizw97wGRiaau8TFD14cAnRN8X+dncRYrALxjc8tbXLiu2CqDfdd28nmYJd69p4W1nUbQY0gnSR2RSZhGf7PQD4Gm71zvfQBixoyqSTTI+i0nQMeQAAIABJREFUK157DO5GCFQCXjN4GAz6HeIwJRo+rH5yBgGCsAM02L9RKxz5YTuMemZEPdhJJuAseK575TndAxXOHqSHla3YSXssf4DxAb035cw99Hjg2CiFmE1RDWCK3inugIl+OUg8590EDxuA6CPQUNElFKOvH4oCWyAML0B+I7nxSDAE2yDiTfQ9610pkGAflNZL8rfoVKCLD6zbWFBXmRkhH/O6rgcPKxg4hkglwHyCojftu2aZKIUphtdIarsHj+ivEg2VpopSHcBIIw7nwiRMbowCuhqMw9iGKOo+YK4/BCqkIQOlNX5w5IMx2DTIjG0LKhrpFIWox1Q8eFjZwMnGKUTQFW/suAhNhbkESgN/3bstHtY90Veoq2jVQfR12zxkGwThKOTWrxuPCEnY5CUi97FrhSEEI5CHechAYw1+iyhMQHKQmYu6RD5CJkFV85iKBw9t8XtToO6jGKEQ8QaOS2fXcoi5JGNTyF6FHw/rm+ibEjU/ZgFpUCRbghGIwhQcWYNs7LQIwLhTQcab7vtMlIMQgCRU4CjMgr5GLt4+/xkGbWCbQwuqGukkpRCG7PXewUMyPI3+GmD5pRCZOFWNpoLlyfFde6dEcjEUndEZrzE66ed1lZofU6QUwvI6uZuJPgLlIIaMNEB5gwgabIcxeB6y64Lui05EebOTPemNhEHRfRUUiMIOSMMMlKHpyhMkwdHqTIA6mG5j2Xm3CvNDzC/k3Xq9d+Bdw0D2Cg66mPfoMhWN+QSl8KLh7MHNd01iNoVoEM8iGxvudllgSFhC66FLNBV0BSxEsxVTWPjFcAwYTBFDah1V2UWd55Ie0Xc50Yean6aC0hxoL7c/OwDnwjzMQn7NGqcIEIEEjHqVsNx0UwA/TMAoZCALFShD3R2M31ayRWETxAYpx28olELk4pSDXu91ESQD0fBuiEspfjFEPko5iCl7TbKmIDI7Qs1PYp5AdaOML3uerwQoh2goGBKGhCFjSN6cv06JvilT0QhUXNMGwxCHAsxAek1lUooQhiSkIOjJ8d0KBYYhCQ0oQwnyUITagBi/BEFIQRyCoAzSI78YIRelEvRmfPcRfRPJExO7CYZA3U8p2CJMhkfx1yZMiVyMuo/kHNH8el63bYvkpko5QClMRfM0mQCWZaXT6YceeujQoUOKopx77rm7d+8OBoOn7zmmmc1mH3nkkcOHD1cqlWQy+dKXvnTnzp2SJLmO6APFMMl517S6rbVIQARGYBLm1oJPYhDGIQl+zyDf9RBAAg00GIIm1KEKZSg6Yf4+qPlViMMwhAfcbUyBYojMEJWAN/W7eJX2BPrugC5RCpKLU/Ojy54v/tqHSDXA1CYKEUIlAhXU5vrZV9ser1WNfJSqhiF7nfY4HDx48D3vec+ePXvK5bIoikNDQ69+9as/+MEPbtu27dQs/0c/+tHtt9/+5JNPlkolwzB8Pt/4+Pif//mfv/3tbw+Hw64j+qVQ393026FiCiRgCLKwD4ruc9wXQQbV0eIrzpV7WFNTPD5QIbyITulQhXnIQRWaYKyOZokgggSKI9GJQggWAueD6Da2RrMcYC5JJejoLL0O7Eo0FXQvZjxQtmQKNFSKYbJD1FUQvMGyjiCgy+Rj5GNgIetoVQJVfDVkHVlHtBAshEX6dWEVfWm5PwrLPUcAjuXiC6d8Z0vAFNFlqn7KQWp+Gj70ga41rsXRo0f/4i/+4uGHH969e/erX/1qv9//xS9+8e67787n85/85CdHRkYEYYn2sizrZz/72V//9V/v37//6quvfs1rXuP3+x999NFvfvObH/nIR3K53C233KJpmruIPiJVDaXkuoHX+pmAAByFOai4ILovgx8CEHbomuoNnjU/yx/3iwQ+iIEBFchDASrQBHNRz7TAdB4CiIv+S3DIvd1bfKCB3xHnDPp4uJU7GKAQIR/xhMVrAKaI6akBBzFSgKZM3Uc5RDZO03PE3wCrgK5SVClGwUIwkQwkA0VHbuKrozZQdAQTwUIASUcyEK1T9Qt7o2hINBUMGUM8Rtzt9NbWJztUfnF6q50sC8g6ooloLrpSC6zWZVgChogp0lSoBqhoND1mckoYhnHPPfc8+uijV1xxxec+97mzzjoL+P3f//13vOMd3/72t6+99trrrrtuSaJfqVS+853vPP300zfddNPtt98ei8WAG2+88YILLvjgBz/4rW996zWvec0ll1ziMqIPlSCRkotviAbbIAVFmIc8NPp+kC1ACGIQdnwbvRl/3UNyLPnHoA6Nk4i+cTzRF48n+hLIoLhLzWWIlEItLb7HWtYSC/HuVH8pviFS81MOUtWoerRpo447S0KX0BcKe1qIBrKBaLZItqyjNPHVUfRjm8MT0FRoqK2fhtzatAsWls3jF4JE1qLY/kmdrbW1cJ4jLEX0LdFlspz8UUq/QehxlKLZiXnL7OzsI488Ui6X3/GOd9gsHzjnnHNuvPHGW2655d5777322mtFcYkrL5VKDzzwQDwef9Ob3hSJRFoMXpbf+MY3fulLX9qzZ8/hw4df/OIXL7lJGCTRL4ZIzQ7OTb9NyhWFCCShBmXIQx4qvZT0KA6ntx9B8IEnYt6AHEty+sBahilQDpAZ8ij+2uyEHvpF8SsaxTCVAA0fTdmzw/dw3Eg0ZRryiZ3GjrUvO/cunMgJne/nLXEN5um8kCajIvQ41rWlE9uWo0ePHjx4EPiDP/iDhT+qqnruuedu2rTppz/9qWkufUebzebk5OSZZ545MTGxeCegqurIyEi9Xm80ljWJHyTRb6pUgoRLa2CMtYQQURgDC2qOrKLsyKntCKu16MEpw//C8SFYFSIQgSBoDq0XvOXWw1plLXakpxxsUfy21hsPrtynWd596+rQaP0iYAotzUMl0MpZtERvzvewEvYvOVVHPCyGciG+S3tO9IUnO3jRzMxMOp3evHlzMplc/PdUKjU6OvqLX/yiWCz6fL6TXzg8PPzAAw+EQqGxsbHFf8/lck8++eTY2NgJb+gWom9IlIOESmtkTlucUxKEoDNtG9CEBjRBh6bzsPUVJ+dTGg6z94EP/I6Q2ovfeFgXMARq/pYWv+xZvq51ou/dvtVx+hahlzBFDBFTQpcwJHSZhkrNT0PF9IxlPXjoJkQEuedEv6NBWyqVyuXyrl27TtDYBIPBUChkWdb09PSSlF1V1fPPP/+4ydk05+bm/umf/unw4cPXXXfdzp07l9TtDJjoWwJVDV1uiczW6JYaGWTQTprjLSdv0jrpv+xXeSuoh3VG8UWqGoUwpTB136LwpIc1i0qAahmt5hHRNjZFYInoUstMsCmjy62qQDa5tx826fca1IOHDYharVav1wOBEyW5kiTJsmzvBNp8n4cffvgrX/nK17/+9QsuuOBd73rX+Pj4ck8eqPOFQEOlrq5lon+KDcCClYqHzvaBHW+ZPfT9Ttm5trb8oKF6m9j1g0KEmp9wkXgWf90bj0uQe1t7U9NoKK1Kn7Y22n5YeDnNHjxsROzdu/eXv/xls9lcoPJve9vbLMuyLOsU9a2Wi8ovxsGDBz/96U9///vfP3To0JVXXnnrrbdeccUVp3jPAVvc2WeXwYo3DXo4kTvWVUohIgUU3esertuAtVyTJWp+SiFKIZqqZ4q/Hm+3RN1P3U8uRqRILIuv4WQBWuvtbp98+Gp/Pev4n6aALlP3UdUoB2moWOIia0Kv/3vw4AF+/vOff+ITnyiXy/Y/VVW9/vrr/X6/3+/PZrMnPLnZbNrZtNFodNkJyrKKxeIPfvCDj33sY4cOHZqYmLjtttve+ta3xmKxJY163EL0LZGqhiEhG16v8NBaXO11tBhmdpimwsjsMaNfD4O9NbpMU6GhtBwAa36vqO0GgACgq2QSZGMoOrJOoIxWbbn7ScZqq/kMbLMqYIlODF5obV9NsWU+aAqLYvNSS2FviDQVDAnLO6314MHD8rj66qvHxsZ0vSVZEUVR07RYLBaJRKampkzTXMzOi8ViPp+XZTmVSi3H8jOZzJ133nn77bcnEokPfOADN9544/bt209N8V1B9IFqAF32iL4HLKj5KQeo+6j7qGkYCpkhtCrhorttWDfA1qvhoxygHKLuo6F46YMbtTNINCQaPipBBANfHV8dpYnSRG2gNlCaSGavSP+JZmbCMe8a0zHztgTH9nvxawQsWv9rs3ZdbMlsDAldOcb1EVqM39PbePDgYTXYsWPHjh07Tvjj8PBwMpncs2fP9PT0pk2bFv6eTqenp6e3bt0aCoWWfLdms/m9733vM5/5zPbt22+99dZXvOIVS5rzuJTo133UVXye+nPDQ5eZHKOqHUciDYWpMUohkvNeJxkAxa+rLW/vuo+G6pWz9XAc6a8FqGkAolPIU26iNvDX8NWRDSQd0USwTl/C03IYtim1ynnaD9Fs1fox7ND7Iv79/7d3pjGWVWW//609nKnm6kkuTbeCgFzo4MCgXpAhikTT8gE1IBIkBPPGxGggGAyfxESDGCFRYkI6GmNMIEa5QSAYIxLgJkpe0eBA+wJe+kLz0l1d1d01nGGP98Paz6516pyqHqu7quv55+Tk1Km999nDWs/6r2f9n+ex1T0zn9xIDSD5b+8aoN2gnBsUBYNQNq9QKE4ctm7dunXr1j//+c+/+93vbrnlFvtlFEWvvPLKnj17brnllsWk9gcPHtyxY0ee53feeec111xjI3dXDdHPPWaGGJ7RBrDWOeW+dcwN9hl34wpT65gZYvQAIwepdYqafIrleAqWP0Uhc4NMD9FqFH5QpUSK/jBAkc87BmoFzy7KZ4KXOtMAW8XTzDvXi4Zn5lk73eJ4k8/L33Oz6AkoFArFysf4+PhnPvOZ559//qGHHrr00ku3bt3qed5LL720Y8eOsbGxz3/+8yXRf/TRR3/1q1+dd955X/3qV9evX//GG2+8+OKL27Ztazabv//97xcc1vO8Cy+8cOPGjSuU6AMzQ2ReseCrWGvMMvWJQ9o1JtctMmYbgLjKxCYm1zM+ybpJKrGO78fzKWSGNCAOadWYGaI5QKrOe8XR8n7rYrc4xoakkj2FQnHqGEhjrrvuuj/96U8/+clPvvCFL3z605+u1Wo//elPp6amvva1r1166aVl1p1XXnnlscce27dv32233Qa8/PLLcRy/9NJLt956a+9hG43GI488sn379pVL9OMK7SoDLW0DawsZTA8zPVLItw6nwl/mM7meqMr6CU3WdMzM3icJiCtEIVGFqEqnQlzR/PcKhUKhUCwLRkZG7rnnHt/3X3jhhR//+Md5np911llf/vKXb775ZjflzgUXXHDDDTece+65Nun+aaedduONNy52zEqlslLz6M/PcZgeVqK/tpD4TI4ztY64coQk1WN6mKjChr0MT2uQ7mFNqGwdH5szx33ZOp1awUehUKxox4RUmbcfWjADc5BDDC1IIYIQRmAExiEEDwII9Q4qVhhOO+20b33rW7t27ZqamsrzfMOGDWeeeeaCMNxrr7328ssvD8PQsv8rrrjigx/84KIk2pgl8nKulOX52UGyPVpm59S310Dm0amwdyMzQ0frPDa0a+zezFSLsSmGZgjSU5mmunOZIpk3oo2WlCNxSBKQQ+6RS+Si9dmX9ThttKKbFHwtk3u3dLXp/rK8MaZnywQiAGoQOJt5oHMlxSlpecr2n/Ur9Z5CAgnE0IY56EAKNTCQwBy0oAohhPIhgwpk0JINYqhDAk3nPZJfiaFjy5NBCrFzJvbckI5se6Lv1Kwfg3FYB6PQgBB8efekpmUux0wg7a74l3aXsy/38ueHoy4jgJOxSQ3CUYxxa+G+GWPGxsbGxsaW2GZwcNCl/gMDAwMDA0f3cyuF6McVmg0Gm9rgT006ZTPZJQHtKtPDtOskx+hmMWQ+c4PMNWi0GJticJYgOURyj+M+/hVs25PcfNbE586wI4GJ5ZflBmbpg5uu+ppxUEQrpgGpRxIUDD4JST0yT4vRLsrjFyCBNrShCdOwH1pQ5nmy3sFMaIqlJh3ZeBrmoG2tMLwL6uBBCBvg3TAmOyoUqxoZRHAApqEJM9JZDsJcd7eyW8YQrdSAijd7SGQAFYe4l0Q/kYmE75iRxNkrkL3sjMVzvhmAYRiEGlQghAYMOlOL1e4LyJ3na2cyeXfG29IVkjorMKnzL9cm+876THmf7Zjpi+HNHEeMDxW5t56G7qxSop/6zA2o6vpUY1qpT7NOq067TlQpvM7H+Rl7NAdo1RmYpd6i1qbWphLNM/6MIqceFPVxEh8DXjbv4baU3U/wUzBF4frc4NnMIXnB5u3Glm1b5l1kC7Gc2xcLmBV5gXIjNUQzIfd5kYHEy/Az/KR4N3JusTjg45A0KPQ2SUAakBll8/3HngQ60IJZiGR46AibX8D1m3AQpoWyJEf70y2YcP704V3wHjgTzoBhhysoFCu/H1nKNSfM/iD8N7wF+6AtbOyUudgY4kPNc45irwVziTqMwxg0oAp1GJD5wDAE4l/wnaWAw3lMWfcZ2pmJKQbDYoEll2WW1FmpKLcvWXJFbJcnx7QPOpUP9kLcKZBFKL+YOMsgHTHF5faZrMkkcsLlh0BOMi7ZgmNLK1B3rsVABQZgROZOO6Gh/XbVEf3cMDvI6EGqkT6UVU7uvSLEs1NlZpB2jThc9uozucfsMLNDBAlhTKVDkOCnwsv9eZqOIfULF/t8am1L9FNMVswK7DclO4f5KYFVtM8fkCO5NDmgfXkpXo6XFrMCe7ZFkU4VgvSMsok41yNoQwsOwkGYgaYw+0TYfyxDXX6oIfz4uCpgN7wNf4MNsBnOhzNWjoVVKLqbawRzcEA6kZ33WuF7BC1oq9/0mOcS0/CGDBG+rAM0oC702jr+ra+6BqGQb4QWlw7vtpi4WBiw/b4jNs2OsQuCGcr3zHn0eTf/8xyNYjmLKI/pCe/Pejz6dG+fnZAGY+ceE/C/tJ2tOqKPoTnAgVE2TGiW9FVgxcrpWerRqtOpkoSF+zmqkAYFbT3RIZ6GJCQJaNULkQwLcm+bk9/OcZIPrsEUlq7qt6stOd+n0IaDMAmz0IR9MCVC3sxZAk5P4ABzmFdnOdP/hb/AJXAZ1LXK6tpr26bn+74+AbOYae35c0H0CNLsrTJ+HxyAGUdeYqAFiUgdquBDBrMwBZMwLTGs5StXZr+cbcP6HVpwoPtfntgHr8dQ5N1tIOtnOdfsJErb6iok+pB7TI7TaDI4q89lxXWtQjIu0herLWk2mB0krq6w05URVQ3BiUfWzUvK4a3jrORGInlPHO9ULErftqjh26v5PqRwEH4H/4YPw1YY0WjdlWfWsm5WnQiXyrpdmJ6oLEx3tKVxmEdH4koPQqdnZM1Edhw4caKBZIbxZH5b9pSWhLTGcmLT0AFE8B0JU5+FuVNLWrM2baZCsSaIPpBUmFxHvUmgbX9lDISpT6dKsz7vsC/l4yoZX+ttQyQ01uneFl6SSLqMRLZpCimJVnzc3nHH67AbzoT/Ce+DEeX6J4PNJ9JESwFxJA0yd3TGLYdYlw3YOIy8zLXiOQHcuYjaD8DcoXyNnnOcQFLQWDvakQ6SHLYWXKFQKFYZ0QdmhtizkY37CBN9OifHu1CIxQNmB5gdol0jClUyvqabREsYTEs+7xdXYkvkvJGj1My6laBrHG34J7wBL8MFcJ549xXHkc27M0zL5uecXEmzEqgdC62PneDCbJEETcvUm7JjCAFXKBSKVU/0c4+p9XRqbJygMafa1uUdHYHckPjMDNGqFw77IqWjxLDqA1hDjUHeI9Ga74U3YA+0unNpJ90BXopDogn/BbvgBfgfcCacDUOSm29FBZKc9HZIzyzRzZhuqfwkzMlsc6/kiokdKXPmBBGqskWhUCjRX1lcf3aYVp31E6ybUhnP8SdzuSlKonaqTA8zM7wWo0LXzkN3dfML/lV6QJuSIb4DE/AqTCiPXwZ0YC/shb9CCBvhDNgMA6LhdmXcLvX35PtSMZI6QcnWQ+w5EZ9uDa/USd9RwpNM2JnTTkpVid8TILhYmOASEZz5kp7y3Dmx1LmQtijU7UUl3VGMB2A/NJW7KxSK1Tsu53kcx3v37p2ZmQmCYHR0dHx83PcPkZM5juO33357Zmam91/r1q3btGmT53mrhuhbpCETm0gDhqeptfEz9Sx3jZFRSKdWpJQx5c2RNO2+1JkoEr37ZN3VUqMqnSpxSKbpvldnA7Bxe76kaTPOl01JN2ljBDuilV9AuTLRNpRlcZTZn0jEsBt2CzUPJc6yAlUpx1MS/TIBX1ViN+NucTlOcmvPmS34Tk5Sd+YQOFm3yxbly09XHW26zWldkdEidVZ1cmHkvcY5W2SCUSKRdIEdR5geycxTm6JCoThVMTc39/Of//y3v/3trl27Go3GOeecs3379quvvnp0dHSJvd55553vfOc7L7zwQu+/vvjFL95xxx3VanWVEX0g85lcz8wwtRYDcwzOUo3WNN3PTOGGnx2k2SCqSsK13CH6Njt7VjA/ugus2lcx1CtOLKtLHcd54lQD6XR3SDcvhy8Ezq3UOAV7YRJmHGZmy5o0RTHfFvKUqHphtUzdu7n4CoFxJgy+MHi3zmW6CCnXXI0KhULRiyiKHnroofvuuy/Lsve97315nj/66KPPPvvsnXfe+aUvfWlwcHCxHaempv7yl7+8/vrrvc77OF4qgH+lKzZyj06NTpWZYYKYoRlG9xMm88nR/Qw/XTgyrdKRfgGnj0NadeIQIDfEIZ0qcaXw0OenUPhC3vM57ynFZ6s2Wr8mQjUGHC/mYm0gP7xfRJziS020oAM5eEKdbUoZoC6ZqgNh8LOOs3xa9AYtR6VAP22D6XnRo5qIuxMJG6cgufpBj7rHLdGEDrm7OaXvUqLBo9pZjryDHOOvmOPanQ+/jy/H7NSckCfi1h86nOTShzdKmn475kuemDn8c1ghN/OEdqU8f/755x9++OFarfbd73736quvNsY8+eSTd999949+9KPLLrvswgsvNKb/Vc7MzOzbt+8jH/nIgw8+uGA+MDIyEobhaiX65bPNfCKfyRqT67qIj58wMMvwNGGMl+HlmAwvw8uk/ujJbiKuMt62/fI0imKrtt6qR1ShVSeqkATEIVGVfDXn5si7NcRpd5nSBWWPrDZ3BmZhP+yFfVLwpST6lsXatmwPtQnOhk2OxLkiBWLKvdxi4IlTEnJWSj+WmhbfieSLe1zgkXD3TNj8gm18OYFE1DIn8j4rcrA9PsXPMJ7cFTveWEuQF+q24mV3yTAZfoZnlW4BqVP42PbO3DhjmP2V0sB45LbCRNnFfRKfVBMJaIM8XjRF+rjJ8KRJd7FiqbVt7Bjo7mrkXEwP9zJdjbwPUvwML8WP8SOqgCeOJo/MdHcTqSeeQ24LfzsjcE7XaDx/VuX3OSbFs79ok0EYcnt827+czjjfH8sxP8GPCSiqwxYd3O6SYxKCmNAnDYl90oDEL/psF0MtbYh0cM/ecI+sZBaAnFvqyVUnhcvR71BNCDyykLhKJyAOScpy5/Zkuhlz35tvcoyR6rTOgr1xCI695EqHakwQU+lQKc2dTyoJNcpLTu0BfRJrssqTzzEJfoofU4kIY8IU374iKh2qOSYgCUhCYmkD2SK+MD+TVlr+uiG3dywgcZ5shjypNrXyAXlkNdoVopDYI7On0abWplajPcqBGh3/0KNrRp6Q5yejix8CzWbzF7/4xa5du+64445bbrnFfnnjjTf+61//evDBBx977LFt27b1Fevneb5///533nnnU5/61Nlnn91oNA7/R1dhDGY3900DpkeZHpHmn+MnhAlhJE01xcsA/IxKhJcWhsH2HnPkzzPvO12VA2WlAZD3zJAEhXVMfXHB5kAhmrdymiQgrqwaZu8Wl8Eh63F35aO25KuehQ7MOcS9lJRYxUIqUt1Dwl2g2gN7unl2KDqWkp2X55YtqRg+InT6D4pFSddTmkkjjbcYC70iDCTHSSsu46Udtu3A6VnGkBZjQCb22CsJhxRky2SsdX/ac0l2Xowodt9M4hPsQFWxY60dDLzigKSF8MTYzWLCBJ9iaPfs4GQKl4Il+gXjL4elktlbLpIQ5Hg5eORBwexzj9SQN2g2aNZo12nVaVvSr1hJ3ofC/GcYaRh4PZSrZHspvvDazOGduMVqbaeICSPCkh+n85q7klXbqWDqkNfMW4RqZ5iUwHKgmCAhiKh4ZH53MWhhfn6GZ7d0eVi5ccmuyvPxi+ZdtPle12ybWkS1TbVDNaICxt4HvyCRSUndyiuyBiHDSwnK/m7Jt+1riJ5UWKZXUuqIMCEoib5PZmu32P7ljJaWYacJYUzFXnWTeoeqfSjCBYy929b+lM/fL4bihZdcThtyOVWhCXjkeREKZ4+TydieSWS8/cWuBFqGLCCp0KkSBSSWYdv7UN5/04802zMROmtSqdKWFnS8aAxJYcQOkzQU06TSoPly/ileQpDiZ/Oh/svbC430IJmXml7XbkDskafSsMEYskFm1jG5nsl2EZe0CPbvZHcLs8x0at3R1HZ98803X3vttTzPb7755vLLwcHBj370oz/72c+eeeaZe+65py/Rz7Js37597XZ7y5YtQXBk1P1USbZipPtCXBGylQtByAG8jDASA5DiZ4QJlQ7VCJORe5gcL8FQmIHcYHJSnzQgDgppe+lMyDzH0Jp5gl6MA6W7w/mwqv17mfiwmzAFu2HK8VuXZLqMqEskSu+ErfuXPHtG6cwx0CBhNl5E1VKWpBiwg9LfJi5w6zjPrKfHJ60QG7JIaHRCmBJkjq8x6yb6zsBfMB5LFPLCd266nW29RL8Yg62/0J5ejn8sl5/jZcdsFSfJrUuvRrtOc5jpQWYHmasQKeM/gVTeiwitszAhyPCt29JSyZSgbMm5eLt7iD7iMPaNQ/GtN9QnMWTIVMH+YiwO0XKZaMEwZccQf57pFsx4ERnxtbUcAAAQnUlEQVSJsSecFN1t+UaRPjONvNevBrb/LrdJTw9dMiw3ZPmhbkjPaqcRQxEe6fkscDdmkB3K1OR4MZWYytzKIEnWhCb4K+BM/PzQt67a++UMI7MMTbARJvIlZjjv1Hl1iOW+0nOO5vhvv/32nj17RkdHzz333Pn25Hmnn3766aef/te//rXT6VQqlT4uzjh+66238jzfuHHjM888849//COKovXr13/sYx87++yzF8u3c2oR/UXYP2Z+smznAK4NM/m8yMfS+tJBk4vGpiQgpT3Ju1349P1zRY5/S/zLGlbr856RQu4zkralLQVoWuJ3b4uPXHEsd34ZKM78Ir5w9CAXxuCuPluPI7I6n+OJlygoiZH4t9zXvEff9eB7zrvjCVuz6hWT4XfwO9QOMjLBRjsXGmJ6lAOjHKjT8vqvCCoO0X1yTDrvoC24S4rXotGiZpf4U/xEVnZts1/womcmeXS9zRV0rfInuUDluipOWBPGrU2D4M0xCK0lAwXeQ3bRshP9/HdHsdP09PT09PSWLVsWsPmRkZGxsbG//e1ve/bsGRoa6kv0d+/ebYx58MEHp6amDh48mGVZGIabN2/++te/fvPNNwdBsJi4f62mTzeFTyD1VnE2krxbB1++p921HkseH4lLvixoakU1ByRVS7oi836cXIaRd4/fvaoSHO6bO0OmfbcTSXGEF/qTmDATZVmvtSrVpSI+yayapeTlpXc8L+SVYYofF9Tc+s59WYc9QfPprDhzRZ/7kxKkBB1qswz9N6d7pDVaAzQHmB1ktk6rQhyQOBKO3BwJZ1wiUFLasHGbXzfZXbBj4XIuNUvmCOOSXUeKY6a8vIdQ5t0rNvQhzdZB48cEHapNGrMMzjIUEWaFvsLLT1qJ4VKAqVAoFIeLubm5ZrM5PDy84Pt6vW5l9/v37++7Y6fTef31140x+/fvv+GGGy6++OLp6ek//OEPTz311De+8Y25ubnbb7+9Vqsp0T8VqGcqWRpt3GpTpPCxo5Jvi6imrBPZEil8vHrSLLpq2myeKMsYW7AiuwKOG6G1gGqUnCbrlmDadfBMBmzr5y7VnOX2pUcwk8yl9pvuUy3+K7owT87ZiFDVanY98LQZr3Fk+E0GmwxOsBHygLhOu8FchTggtnJk+241yqWa2RPBYObEE5d6Kvu9m0fXNlcr7I6oxoTuXmWjdVm+VT/7JBWiOu2QyE5CAmL59SI+MsWzEmErx8oxPllerBR5dpJZdrdEzjAvegFlN0TCo3GkMl3DG9WYMCXQZQ+FQrGKMDExsWfPniwrPGDGmPPOOy+O4yRJ+opzLJKkvzIuCIJt27Zt3Ljxpptuuuaaa6xM/6abbrrvvvu+/e1vP/LII1ddddUFF1ygRH/VoOTrM3BQysckUgipBdMwKxGuK5C7W6m35IKglxkLq8gyh3BkeG2q9oOVkYg+NRAyUZAAJ3az4DQ2QMOVmeYS+58Wzu9SjzsvGaeQpFvXeym0LXMvePn8TMDkaBoVxXGHSajMUJmhdPBkTiR/GkiMI2C/FDbcRfTL2WkZ3GmjhyUu4uhi7Aq/flDEXBYOfo/Mxjta/l12TBv0vKDXaJc5wc2pnzFWKBQnAc8888zDDz/cbNoU3IRh+MQTTwRBEARB+eW8AyjL0jQFFkunMzQ0dM899xhjhoeHy2DcWq122223PfLII3//+9937dp1/vnn91XvKNE/CSTY6t1nnFzsHckvGcFBOCDJH2ORzudOoptsZRjvMnAzwY8JO9Rs6FtEJaaSiA87I8j6u7Fz05PFJcWjK7vZ4Ui9c/oF0uFkVEQJx9EwBk+q7pYJjdqLyHPc9EtLtM20e5dlgq3sZLrzQh1HeMwn3zDOEo0HyfHQvh1WnN+JaQM25Dqmov2hXwcxi7SNBZ892diXfL+urDLrbkVGtq9CTRL21iRvMFC3nAE8yf4VUix3hFDrWTO0vSAWj1DkBGS15PuOszCcOa9cTqABQzAKdWjBQZiU3bUQ34pqkAssUurQh8OxbL6Uw65156kuy6/7UqQRqMnPhbJvZXHKk0o661waYcv5V0u4aEvkCPZlj1++kILgqwPDw8Nbt25tt4vsMEEQ+L5fr9er1eqBAwcWbNxut1utFrBYcVzf99etW9f7/ejo6LZt23bu3Llv374sy/pm7FGiv3wkuBj2Y2jBAZiASXgHpmC2h+nkJ+Ssuj8bx4HtLWDGrnbFetY7VBPCiNCmVYmoiNM9PFQgl1lmA0e+gvSypvvdzTlpuuXTeY+Z9nrstddTOMs1vsbh0CWx8HsMdO/2oRQk8KEGNajDgLAKW/6rIhyieqhLjqU5p0sO/JFzyalDO1rd4SHlSNA7nYic4ceXAcbIqZZnbquoRRI33nLqES82wlW6B8iKw9Ls58D54IvlNMyn7wigJV38LenuMxq5sMzwuiddxiElJT8IhL5UoC7tpOH0gnr3MStOTeqw5+dsz+2b1tB3hlTfOUgv+U6dXmCYFybZz96JMqF5z1Q8FfZvS5U0oCYXssB2dWSBedapCjgt0V5u4mX3hvjyREKZyViCGEgvNtAUb1gk7q+s+1CZTGBSx79Qzpp857lX5On39QhUD+WVKC/cNonMydgcdVeIKX/atcmZ3EZPaHff0zDO9u7YYW9XHTynudorqktjLpu079Du8sixk1k6llRGrZ4m3YCK2PyKY/2WdUDPFx8mYvF/GhmDAukj1kc6Bf/Jio/Gvvbaaz/5yU923ThjNm3atHHjxl27drVarXp93vLs379/cnJyw4YNmzZt6nu0ZrN58ODBRqMxNDTk5tgxxlSrVSBfvG6AEv3DZe2ZmzPZkcsn0kdjJ5ukVddMwX6YggPQPFEDvhNCWlQJKSNBU0famxXSXpuYxSYFL1OymLTQz4RlUsU1LC73xNxUoe6MIqbbWJf+75pYJV8+5BIu4fKAuKckbumQ82Xw82QgDB0aEYqBKx+KbYx+P6LvOdZw+R5iVa2EULpheI/MVV6HP8N/sXTKZ8XRdMkKDMEGGIO6sKJyvlcVSlQVelT+dyVg5ayQmJ4bG0rx8UPu1YDGIu7bpHvkXOAw9o6QeKT9iL61n22HxdqUzoF4Lsr1kHDZnnvmjPl5D9F3GXYgVRb7En2vO/VdKD6dQIj+KZlfaLHZQm3JFliFcdgKM/D/VvoVGtMrpNmyZcsZZ5zxz3/+849//ONVV11VNPE0fe211958882rrrqqr0seePnll++9994rr7zy9ttvHxsbK7/vdDo7d+4cGxvbuHHjYkk2Tymin/eQ6TK/u3GoWQYd5ivUVpwpZObs2HZCXVuihvek9Gna3cVdN0hZKypdtsu0pDwmiAkTQhtmlxdRekW6aFulryTrEldalgz2VrCC1jg+OV/8DaUryFa2bcpU65CufNfVMQyjUHU8H/Zoc3Ir7KhQl7XL0okyAA2oy0Dl9/SjkuiHi0wGFGsHVnpxHpwO/4D/hLfUtX9s8GEQTocRGIdhGIENMKQB7ius5VeO90zGX6lM11uGi1Wc4jjttNM+/OEPP/fcczt27LjkkksGBgaAiYmJp556qt1ub9++vST6O3fufPXVV8fHxz/wgQ80Go2RkZEXX3xx586dF1544Sc+8QnL6bMse+KJJ15++eXLL7/8ve9976pPr1m6yTuSQ6bpCAw7MuVPunlfJCloygly3lMe1etxFyDcPXHEYqVH3ztsydsxT1oKF7uVysSEtjyhfVmKX7rnS7F7qWtfMfGjvqg8hx3PSiwpPWO5qQ1YB+MwJhqSQMxoKGTdFDUW53cv0wt1YNaRf/iiRak6fL0mf/qOBqZMVlRKNTxxpXjdGgBl7YojJT0jcAm8B/4F/4LdYqvyE94H6zAuc2akVEZLuoyRhaNhqEIiWQCWWxEbiDZsyNGX27xiNnCpBgPwLjgTNsCg2ARf+6NCoVh1CMPw+uuv/+Uvf/n000//4Ac/uOmmm3zfv//++5966qmLL7748ssvL8n6k08++cMf/vCSSy554IEHGo3G5s2bP/e5zz388MN3333366+/fsUVVzSbzaeffnrHjh3Dw8Of/exn3/3udy9hZ/sgy0gTkuPtKLFu8lnhaJXuWL/SL26DfSxrq0rgz3440O2/7VGcL8qYj/tVHNuMxS+d7hGVFnVh7YV4xuaoSebTzoROpsiSQBz+fOHoboDXHYvpRsT6ojMJoQEDMASDMCRr6PNNGqpQhYaoO0zPY8l6NOgLLtAcxoPtbRSm3+5HzQzylRJzVgQeS3Eq6K4CdDyOXyY0Sr2F5aCRXyxnl2VRAZvrJfGJK7TqZKZo5tWIIC5Kb5E7KVKXfKrmqG/OyqR/62EdfAQ6Ei3QEpMWOT0ukLDIXCafiBg665lCDDjBFYPOYndHgoNaIjazk+dRujJU5o7/JBffZNi9gfWT2PWuA2K898IUNKX+NbKKFQpfH4a6/FmR9bGg2/Hpifmvi854gUsi77neBTPt9Pj3rNzMv9ycW/23N04HXPJouGW1et/77mszLS3iprF9M/WJK0QhqQ9GAqlk0MDJLWzKLKZ2jmnm6yUYJDvr0hersyrFCkO6iqPAzz///AceeOArX/nK/fff//3vfz9NU9/3P/ShD917773nnHNOSfTzPM+yrMzOOTg4+M1vfjPLst/85jd33XWXVeSHYbhp06a77rrr1ltvXSJlZx+iPzo6+vb/GfjfP5nzj/dyWQS7YLcToRY4cgdrvDurKKb6aCYJZprhJg2JZA362VR7A+LSF3cyYHM+NESvYvXiVXlonghafOEWHZhU47P8RN+Q+SQ+SUjqYSgKgAaJFK065uPHIVGFqEISLEL0mY/v8FOCFJMThcQVEr/YxUURCZLgZVQ7VKKlAqdzj8wrmMoR9y6/mEusVnQcmxz2RIgu4jdgBmYWP+A07DmuJzkKHuyTKKQcBmAcBmUtzhfzFa8q0+yRhCQBSUDq4adUIqrRIt3KFJuZvCiSsWBmkttJb0gakPpdNdj9VLKeZv0PngZFH0x8cq//NCD1i/Ih/b00eddcwv6KEcKem/mybIUBiYuOuVjfsVtqpk7FikH46psj42f5/qqMXjDGfPzjH//1r3/9+OOP//vf/07T9IILLti+ffvZZ5/tiuyvv/76iy66aGRkZHx83O61ZcuW733ve9ddd92zzz47MTHhed5ZZ511zTXXXHTRRYf4xd5A3TfffPOJJ56YnFTeplAoFAqFQqFYQajX61deeeX73//+Xq7/3HPP/cd/8MorH1xuN+n27T94/PF7juUIeZ53Op08z2u12mLy+sV2bLfbNt/O4ezYx6O/efPm2267rVwvUCgUCoVCoVAoVgKMMTYtfe+/NmzYcNllz55++t+WW3D2sY+dduxXUavVjm5HNzXnobdfIvWmQqFQKBQKhUKxKpBlWRTFJ4DZ+r5fqYSr4p4o0VcoFAqFQqFQKE5BaAZihUKhUCgUCoVCib5CoVAoFAqFQqFQoq9QKBQKhUKhUCiU6CsUCoVCoVAoFAol+gqFQqFQKBQKhUKJvkKhUCgUCoVCoURfoVAoFAqFQqFQKNFXKBQKhUKhUCgUSvQVCoVCoVAoFAqFEn2FQqFQKBQKhUKhRF+hUCgUCoVCoVCir7dAoVAoFAqFQqFQoq9QKBQKhUKhUCiU6CsUCoVCoVAoFIqTgf8PPdVC0BWuOO8AAAAASUVORK5CYII=;" vertex="1" parent="1">
          <mxGeometry x="78" y="401" width="1016" height="325" as="geometry" />
        </mxCell>
      </root>
    </mxGraphModel>
  </diagram>
</mxfile>
